<svg id="Layer_1" data-name="Layer 1" xmlns="http://www.w3.org/2000/svg" viewBox="0 0 600 600"><path d="M516.37,467.6c-23.81,0-37.93-11.87-39-29h22.77c0,5.7,3.24,13.29,17.33,13.76,9.76,0,15.16-5.7,15.16-10-1.08-6.65-9.76-7.12-18.41-8.57-9.76-1.38-17.33-3.31-22.77-5.66-7.56-3.82-11.92-11.91-11.92-20.44,0-15.21,13-27.09,35.77-27.09,21.69,0,35.78,10.93,36.82,27.56H530.46c0-4.25-1.08-11.4-14.09-11.4-8.68,0-14.08,1.41-15.16,7.59,0,8.56,18.41,8.09,32.49,11.4,13,3.34,21.69,11.39,21.69,22.83,0,20.91-17.33,29-39,29M100.3,327.25l75-42.41,40.21,67.21H114.6"/><rect x="247.02" y="380.71" width="21.62" height="84.83"/><path d="M65.51,424.26c0,13.32,11.95,24.28,25,24.28,14.16,0,25-11,25-24.28,0-12.86-10.84-24.29-25-24.29-13,0-25,11.43-25,24.29m23.61,43.83c-23.88,0-44.51-19.55-44.51-43.83S65.24,380.9,89.12,380.9c9.79,0,18.5,2.4,26.08,7.6v-6.62h22.22v84.25H115.8v-5.21c-6.5,4.77-16.29,7.17-26.08,7.17M379.54,352,275.24,174.8l75-42.89L480.58,352M165.47,424.26c0,13.32,10.88,24.28,25,24.28,13,0,25-11,25-24.28,0-12.86-12-24.29-25-24.29-14.12,0-25,11.43-25,24.29m23.93,43.83c-25,0-44.54-19.55-44.54-43.83S164.4,380.9,189.4,380.9c9.76,0,18.47,2.4,26.09,7.6V352.63h21.62v113.5H215.49v-5.21a48.18,48.18,0,0,1-26.09,7.17m-.5-217L264.62,209l83.3,143.05h-79v21.06H247.32V352.05m294.09,21.6c-5.45,0-10.87-4.77-10.87-10.49s5.42-10.48,10.87-10.48c6.5,0,10.88,4.77,10.88,10.48s-4.38,10.49-10.88,10.49m0-19.51c-5.45,0-8.71,4.26-8.71,9s3.26,9.07,8.71,9.07,8.67-4.29,8.67-9.07-3.25-9-8.67-9"/><path d="M543.65,369.1l-2.16-4.77h-2.32V369h-1.81v-11.7h5.21a3.84,3.84,0,0,1,3.25,3.35,3.38,3.38,0,0,1-2.17,3.31l2.17,4.77M541,359.07h-1.8v3.51h2c2,0,2-.44,2-1.76,0-.91,0-1.75-2-1.75M397.91,424.26c0,13.32,10.88,24.28,25,24.28,13,0,25-11,25-24.28,0-12.86-11.92-24.29-25-24.29-14.12,0-25,11.43-25,24.29m23.9,43.83c-25,0-44.51-19.55-44.51-43.83s19.54-43.36,44.5-43.36c9.8,0,18.5,2.4,26.09,7.6v-6.62h20.42v84.25H447.89v-5.21a48,48,0,0,1-26.09,7.17M298,424.26c0,13.32,12,24.28,25,24.28,14.13,0,25-11,25-24.28C348,411.4,337.15,400,323,400c-13,0-25,11.43-25,24.29m50.18-71.63h21.62v113.5H348.2v-5.25c-6.51,4.77-15.18,7.18-24.89,7.18-24.89,0-45.43-19.57-45.43-43.88s20.54-43.41,45.43-43.41c9.71,0,18.38,2.4,24.89,7.62Z"/></svg>