<svg id="Layer_1" data-name="Layer 1" xmlns="http://www.w3.org/2000/svg" viewBox="0 0 600 600"><defs><style>.cls-1{fill-rule:evenodd;}</style></defs><path class="cls-1" d="M507.18,316.33l.05,1.17H493.49v-1.25c3.36,0,3-1,3-5.56V285.86s.66-3.27.44-3.87c-.43-1.58-1.09-1.63-3.44-1.74v-.75h13v.75c-2.91,0-2.8,1.14-3,5.61v24.9c.2,4.15,0,5.57,3.69,5.57ZM467.23,318c-14.27,0-13.29-2.12-15.52-5.61-2.67-4.14-5-10-9.92-10-1.31.05-5.67,0-6.49,0-2.29,0-3.59.11-4.81,0v11.33c-.2,2.67,1.11,2.89,4,2.89v.9h-14v-.9c1.57,0,3.09.11,3-2V284.28c.09-2.77-.88-3.48-3-3.48v-1.3h17.15s9.81-.07,12.48.53c6.05,1.37,9.76,4.47,9.81,9.49s-2.5,9.32-12.09,11.11c6.32.71,7,3.49,9.42,7.74,2.62,4.69,3.76,8.34,9.87,8.28,0,.33.1,1,.1,1.36Zm-36.74-19.45c5-.05,12.21.33,16.62-.82,2.51-.92,5.83-2.34,5.83-7.74,0-3.81-1.9-5.06-4.19-6.15-4.31-2.07-12.6-1.36-18.26-1.36v16.07Zm-47.81,9.94H360.07l-2.21,3.83a8.7,8.7,0,0,0-1.34,3c.05,1.86,1,2,3.06,2l-.05,1.22h-12v-1.08c2.61-.05,3-.91,3.8-2.21s1.19-2.15,2.6-4.85l15.78-29.86h5l16.65,30.19c3,5.44,2.82,6.36,6.18,6.36v1.45h-14v-1.33c3.18-.16,3.67-1.22,1.89-4.15l-2.7-4.52Zm-1.65-5-9.65-18.09-9.15,18.09Zm-49.64-2c-3.92.49-4.2.66-4.09,4.47l.11,5.5c-1.69,3.71-7.25,6.22-11.44,7.3a41.28,41.28,0,0,1-10.25,1.37c-8.72,0-15.8-2-20.92-6.33-4.25-3.59-6.87-8.17-6.87-13.18,0-6.1,2.62-11,7.9-15s11.72-6.11,19.73-6a44.88,44.88,0,0,1,9.53,1.14,30.61,30.61,0,0,1,8.56,3.33l2,8.55-1.25.49a21.14,21.14,0,0,0-7.79-7.9,23.13,23.13,0,0,0-23.05,1c-4.36,3-8.07,7.8-8.07,13.63A16.12,16.12,0,0,0,292.59,313a23.58,23.58,0,0,0,13.24,3.71,27.48,27.48,0,0,0,8.67-1.64c2.07-.82,6-4.52,6-4.52l.06-3.45c0-1.15.21-4.09-.64-4.75s-1.93-.54-3.42-.54V300.5h15v1Zm-92.9-20v.71c-1.75.06-2.08,0-2.73.49-.44.44-.77,1-.27,2.78v30H253s7.74-2.39,9-4.52l1.25.49-4,8H225.49v-1.32c1.93-.06,3-3,3-3v-28s-.09-3.32-.64-4-1.09-.93-3.36-.93v-.71h14Zm-71,0v1c-2.21,0-3.81.5-2.76,3a40.48,40.48,0,0,0,2.1,4.15l12.88,24.27c1.61-3.87,14.55-28.09,14.82-29.75.34-2.1-2.93-1.66-3-1.66v-1l11-.05v1.4c-.84,0-2.15-.22-2.62.38-.78,1-2.77,5.33-5.5,10.72-4,8.14-9.27,18.92-12.52,25.55h-6.3l-16.22-30.57c-1.3-2.53-2.38-5-3.24-5.54a4.41,4.41,0,0,0-2.6-.49v-1.4Zm-43.06,17.93a27,27,0,0,1,7.95,2.29c2,1.14,4.25,2.72,4.25,7.9a8.54,8.54,0,0,1-4.08,7.57c-3.82,3-13.14,3.17-18.8,3.31H93.49v-1.45a2.5,2.5,0,0,0,2.5-.93c.49-.6.32-2.83.5-5V287.44c-.18-2.4-.28-3.1-1-3.76s-1.31-.6-2.67-.6l0-1.25c13.41.06,18.8-.11,26.92-.05,5.45.27,12.54,2.34,12.54,8.88a8,8,0,0,1-2.89,6.27,13.21,13.21,0,0,1-5,2.5Zm-21.94-.93h8.76c3.66,0,8.59-.1,11.35-2.33a7.38,7.38,0,0,0,2.29-4.67c0-2.23-.53-3.29-2.82-4.78s-7.21-1.22-11.41-1.22h-8.17v13Zm0,18h10.85c7.79,0,15.69-.43,15.69-6.75a6.83,6.83,0,0,0-2.89-5.29c-3.16-2.34-7.85-2.29-14.71-2.23-3,0-6,0-8.94,0V316.5Z"/></svg>