<svg id="Layer_1" data-name="Layer 1" xmlns="http://www.w3.org/2000/svg" viewBox="0 0 600 600"><defs><style>.cls-1{fill-rule:evenodd;}</style></defs><path class="cls-1" d="M108.5,312.61h5v-26h-5v-1h18.26c3.9,0,8.54.15,12.13,1.5a6,6,0,0,1,3.74,5.39c0,2.1-1.34,3.29-3.29,4.64a8.43,8.43,0,0,1-3.29,1.35,14.13,14.13,0,0,1,5.83,1.94,6.65,6.65,0,0,1,3.15,5.69c0,2.4-1.65,4.64-4.64,5.69-4.49,1.65-9.73,1.8-14.53,1.8H108.5v-1Zm14,0h3.72a25.56,25.56,0,0,0,7.59-1.19,5.64,5.64,0,0,0,3.27-5.21c0-3.28-.89-5.51-4.46-6.7-1.79-.44-10-.3-10.12-.3v13.4Zm0-14.84c3.87,0,8,.15,9.67-.45,2.38-1,3.28-2.08,3.28-5.06-.15-2.52-1-3.86-2.53-4.61-1.79-.89-4.62-1-7.59-1H122.5v11.16Zm132,14.84h5v-26h-5v-1h18.26c3.9,0,8.54.15,12.13,1.5a5.8,5.8,0,0,1,3.74,5.39c0,2.1-1.19,3.29-3.29,4.64a8.43,8.43,0,0,1-3.29,1.35,15.63,15.63,0,0,1,6,1.94,6.86,6.86,0,0,1,3,5.69c0,2.4-1.65,4.64-4.49,5.69-4.49,1.65-9.88,1.8-14.67,1.8H254.5v-1Zm14,0h3.57a24.74,24.74,0,0,0,7.59-1.19,5.41,5.41,0,0,0,3.27-5.21c0-3.28-.74-5.51-4.46-6.7-1.79-.44-10-.3-10-.3Zm0-15c3.81,0,7.77.15,9.38-.44,2.35-1,3.23-2.05,3.23-5,0-2.49-1-3.81-2.49-4.54-1.76-.88-4.55-1-7.33-1H268.5v11Zm-110,8.9v-18.9h-5v-2h19v2l-6-1v19.75a5.25,5.25,0,0,0,2.61,4.31c1.49,1.34,3.42,1.94,7.14,1.94,4.32,0,7.44-.89,9.23-2.53a7.62,7.62,0,0,0,3-5.36V287.61l-6-1v-1h13v1h-5v18.26a8.32,8.32,0,0,1-3.83,6.84c-2.68,1.64-5.66,2.54-10.57,2.54-4.61,0-10-.6-12.94-1.94a7,7,0,0,1-4.66-5.66v-.14Zm51,6.1v-26h-6v-1h21.22c4.57.15,6.93,0,10.17,1.2a5.58,5.58,0,0,1,3.69,5.42c0,5.42-4.87,6-8.26,6.78a18.1,18.1,0,0,1,6.49,1.5,7.39,7.39,0,0,1,3.24,3.76,17.81,17.81,0,0,1,.3,4.82c.29,2.71,1.62,3.92,4.12,3.62a4.11,4.11,0,0,0,1.77-.91L247,313a7.36,7.36,0,0,1-4.86,1.35,13,13,0,0,1-6.78-1.5,6.72,6.72,0,0,1-3.25-4.67c-.29-1.8-.14-3.46-.73-5.27-1-2.71-4.72-3.31-7.08-3.31H217.5v13h6v1h-20v-1Zm9-15h7.15c3.43,0,5.57-1.43,5.57-5.71,0-3.43-2.86-5.29-5.86-5.29H218.5v11Zm188,15v-26h-6v-1h21.22c4.58.15,6.93,0,10,1.2a5.52,5.52,0,0,1,3.83,5.42c0,5.42-4.86,6-8.4,6.78a16.66,16.66,0,0,1,6.49,1.5,6.24,6.24,0,0,1,3.24,3.76,13.65,13.65,0,0,1,.44,4.82c.15,2.71,1.62,3.92,4.12,3.62a3,3,0,0,0,1.63-.91l.73,1.21a6.88,6.88,0,0,1-4.86,1.35,12.79,12.79,0,0,1-6.63-1.5,6.27,6.27,0,0,1-3.24-4.67c-.3-1.8-.15-3.46-.89-5.27-.89-2.71-4.57-3.31-7.08-3.31H414.5v13h6v1h-20v-1Zm8-15h7c3.43,0,5.71-1.43,5.71-5.71,0-3.43-2.85-5.29-6-5.29H414.5v11Zm-59,15v-26h-6v-1h21.22c4.72.15,6.93,0,10.17,1.2a5.69,5.69,0,0,1,3.84,5.42c0,5.42-4.87,6-8.41,6.78a18.1,18.1,0,0,1,6.49,1.5,7.39,7.39,0,0,1,3.24,3.76c.59,1.51.3,3.32.3,4.82.29,2.71,1.76,3.92,4.12,3.62a4.11,4.11,0,0,0,1.77-.91L393,313a7.12,7.12,0,0,1-4.87,1.35,13,13,0,0,1-6.77-1.5,6.7,6.7,0,0,1-3.25-4.67c-.29-1.8-.15-3.46-.73-5.27-1-2.71-4.72-3.31-7.08-3.31H363.5v13h6v1h-20v-1Zm9-15h7.15c3.42,0,5.57-1.43,5.57-5.71,0-3.43-2.86-5.29-5.86-5.29H364.5v11Zm-64,15h6v-26h-5v-1h35v8h-1.33c-.59-2.14-2.07-4.86-3.85-6-1.18-.71-3.1-1-6.35-1H315.5l-1,11.84c2.34,0,5.45.15,7.48-.73a5.61,5.61,0,0,0,3-4.11h1.56v11h-1.56a5.26,5.26,0,0,0-3.12-4.1c-1.55-.59-4.52-.59-7.32-.59v12.69h10.87c4.67,0,6.34-.56,8.15-1.54a10.94,10.94,0,0,0,3.77-6.46h1.21v9h-38v-1Zm158,0h6V300.43l-13.22-13.82H446.5v-1h21v1h-6.66l10.92,11.72,11.37-11.72H475.5v-1h16v1h-5.81L473.5,300.43v12.18h6v1h-21v-1Z"/></svg>