<svg id="Layer_1" data-name="Layer 1" xmlns="http://www.w3.org/2000/svg" viewBox="0 0 600 600"><defs><style>.cls-1{fill-rule:evenodd;}</style></defs><path class="cls-1" d="M140.72,325l20.91-20.44H105.07c-34.64,0-86.17,62.75-32.62,71.89h57l9-9.16H170.8v9.16h30.49l33.25-50.75H246.8c4.28,0,3.31,8.46-4.84,8.46h-8l-10,15.31c-8.55,13,7.32,27,18.33,27h38.41l33.25-50.75h11.27c7.13,0,3.87,8.46-4.38,8.46h-8.49L302.2,349.51c-6.76,10.34,5.33,27,21.3,27h59.86l13-19.73h-24l5.08-7.76h23.9l11.08-16.91H388.68l4.19-6.35H417l13.4-20.44h-52l-33.79,51.46H328.1c-4.26,0-8.83-7.45-4.42-7.45,25.78,0,48.42-34.51,19.21-44H299.65l-33.79,51.46H252.31c-8.88,0-10.48-7.45-7.14-7.45,25.57,0,49.5-36.46,17.51-44H221.81L190.54,353V305.3H174.47l-52.69,51.46H86.52C67.13,356.76,89.69,325,106,325Zm15.66,24.67H170.8V334.25l-14.42,15.46Zm237.21,26.78h27l33.3-50.75h12.49c6.37,0,.41,8.46-5.09,8.46h-8.15l-10,15.31c-8.09,12.29,7.22,27,19.45,27h29.11l8.39-9.16h30.22v9.16h20.44V304.6h-16l-50.91,52.16H472.67c-7.08,0-11.66-7.55-8-7.55,26.44,0,51.48-39.51,14.47-44.61H440.75l-47.16,71.89ZM516.7,349.71h13.55V335.07L516.7,349.71ZM132,401.86H113v4.23h17a11.27,11.27,0,0,1,5,.75,3.25,3.25,0,0,1,1.31,3v1.75a3,3,0,0,1-1.31,2.9c-.89.55-2.51.8-5,.8H114.47c-2.48,0-4.17-.26-5.07-.82a3.29,3.29,0,0,1-1.32-3V411l4.22-.57v2.75H132v-4.93h-17c-2.47,0-4.14-.27-5-.79a3.35,3.35,0,0,1-1.31-3.09v-1.41c0-1.52.42-2.52,1.31-3s2.51-.84,5-.84h14.16a27.41,27.41,0,0,1,4.91,1.16,3.19,3.19,0,0,1,1.42,2.79v.31L132,404v-2.11ZM153.89,399v14.1h19.73V399h4.23V412c0,1.57-.41,2.59-1.29,3.13s-2.52.87-4.89.87H155.9c-2.43,0-4.08-.33-5-.87s-1.29-1.62-1.29-3.13V399ZM191.24,416V399.75h2l20.66,10.82c.49.26,1,.57,1.5.88a16.62,16.62,0,0,1,1.61,1.19,13.53,13.53,0,0,1-.27-1.65,13.82,13.82,0,0,1-.11-2.33v-8.91h4.23V416h-1.71l-21.2-11.29-.48-.21a9.67,9.67,0,0,1-2.3-1.61,13.9,13.9,0,0,1,.21,1.56,19,19,0,0,1,.11,2V416Zm68.37-14.1H238.46v11.28h21.15v-4.93H249V406.8h14.8v5.33a3.25,3.25,0,0,1-1.34,3c-.87.57-2.52.83-4.93.83H240.45c-2.46,0-4.06-.31-4.93-.83a3.23,3.23,0,0,1-1.29-3v-8.55a3.22,3.22,0,0,1,1.29-3c.87-.57,2.47-.83,4.93-.83h17.39a10.34,10.34,0,0,1,4.72.74,3,3,0,0,1,1.28,2.75v.34l-4.23.54v-2.26Zm17.62,13.39V399h4.23v14.1H301.9v2.11Zm39-5.63h14.38l-7.24-8.28-7.14,8.28Zm-9.7,6.34,14.56-16.21h4.81L340.68,416h-4.12l-3.62-4.23H313.77L310.15,416Zm65.89-14.1h-19v4.23h17a11.18,11.18,0,0,1,4.92.75,3.14,3.14,0,0,1,1.3,3v1.75c0,1.45-.41,2.4-1.3,2.9s-2.51.8-4.92.8H354.81c-2.49,0-4.13-.26-5-.82a3.21,3.21,0,0,1-1.38-3V411l4.23-.57v2.75h19.74v-4.93h-17c-2.41,0-4.08-.27-5-.79a3.46,3.46,0,0,1-1.31-3.09v-1.41a3.3,3.3,0,0,1,1.31-3c.89-.58,2.56-.84,5-.84h14.2a27.21,27.21,0,0,1,4.91,1.16A3,3,0,0,1,375.9,403v.31l-3.52.67v-2.11Zm40.17,0h-19v4.23h17a11.27,11.27,0,0,1,5,.75,3.25,3.25,0,0,1,1.31,3v1.75a3,3,0,0,1-1.31,2.9c-.89.55-2.51.8-5,.8H395c-2.48,0-4.17-.26-5.07-.82a3.29,3.29,0,0,1-1.32-3V411l4.22-.57v2.75h19.74v-4.93h-17c-2.47,0-4.09-.27-5-.79a3.35,3.35,0,0,1-1.31-3.09v-1.41c0-1.52.42-2.52,1.31-3s2.51-.84,5-.84H410a27.47,27.47,0,0,1,4.92,1.16,2.6,2.6,0,0,1,1.17,2.79v.31l-3.52.67v-2.11Zm17.62,13.39v-15.5h25.37v2.11H434.4v4.23h12.68v2.12H434.4v4.93h21.85v2.11Zm59.2-13.39h-19v4.23h17a11,11,0,0,1,4.91.75,3.17,3.17,0,0,1,1.36,3v1.75a3.1,3.1,0,0,1-1.31,2.9c-.88.55-2.5.8-5,.8H471.8c-2.48,0-4.17-.26-5.07-.82a3.18,3.18,0,0,1-1.32-3V411l4.23-.57v2.75h19.73v-4.93h-17c-2.46,0-4.14-.27-5-.79a3.35,3.35,0,0,1-1.31-3.09v-1.41c0-1.52.42-2.52,1.31-3s2.52-.84,5-.84h14.47a28.42,28.42,0,0,1,4.91,1.16A2.51,2.51,0,0,1,492.9,403v.31l-3.53.67v-2.11ZM348.85,254.56H180.12c3,3,7.59,5.89,13.94,8.46H340.34l8.51-8.46ZM206.48,268c23.93,6.36,62.56,10.44,119.64,10.5l10.6-10.5ZM287,250.33C259.42,216,337.13,185.7,425.6,213c15.3-9.31,34.8-14.79,56.62-18.15-141.93-33.81-321,19.7-306.1,55.53Z"/></svg>