<svg id="Layer_1" data-name="Layer 1" xmlns="http://www.w3.org/2000/svg" viewBox="0 0 600 600"><defs><style>.cls-1{fill:#221f20;}.cls-2{fill:#fff;}</style></defs><path class="cls-1" d="M371.61,479.27A16.8,16.8,0,0,1,384.89,486c.07.11.15.2.22.31s.24.31.34.47h0a10.31,10.31,0,1,0,15.65-13.42c-7.09-8.74-15.54-13.75-29.49-13.75-22.17,0-38.84,15.33-38.84,36.84,0,21.84,16.67,37.18,38.84,37.18,14.17,0,22.5-5,29.5-12.84h0A10.1,10.1,0,0,0,393.54,504h0a10.06,10.06,0,0,0-7.63,3.5c-3.32,3.32-7.16,6.62-14.29,6.62-10.17,0-15.84-7.33-15.84-17.67,0-10,5.67-17.17,15.84-17.17m-89.8,35.08c-10,0-16.17-7.34-16.17-17.84,0-10.67,6.16-17.84,16.17-17.84s16,7.17,16,17.84c0,10.5-6,17.84-16,17.84m0-55c-22,0-39.19,15.51-39.19,37.18,0,21.5,17.18,36.84,39.19,36.84s39-15.34,39-36.84c0-21.67-17-37.18-39-37.18M450.55,487.5c-9.67-2.17-14.17-2.66-14.17-6.67,0-2.82,2.5-4.16,7.67-4.16A21.91,21.91,0,0,1,457.72,482v0a8.76,8.76,0,0,0,14.79-6.41h0a8.77,8.77,0,0,0-2.93-6.53c-5.83-5.92-14.12-9.71-25.71-9.71-15.17,0-27.5,6.5-27.5,22.5,0,14.85,10.83,20.18,20.5,22.68,11.51,3,16,3,16,6.84,0,3-2.33,4.33-9.66,4.33A24.92,24.92,0,0,1,427.65,510l.21.2,0,0A8.93,8.93,0,0,0,413.93,521a3.13,3.13,0,0,0,.19.36c.17.27.32.53.52.8s.3.35.45.53.31.41.5.59a5.19,5.19,0,0,0,.46.36c6.19,5.56,15.11,9.72,28.67,9.72,22.33,0,29.16-10.66,29.16-23.67,0-15-13-19.84-23.33-22.18m-315-8.23A16.8,16.8,0,0,1,148.8,486a3.21,3.21,0,0,0,.21.3c.11.16.24.31.34.48h0A10.31,10.31,0,1,0,165,473.37c-7.1-8.75-15.55-13.77-29.5-13.77-22.18,0-38.85,15.33-38.85,36.85,0,21.83,16.67,37.17,38.85,37.17,14.17,0,22.5-5,29.5-12.83v0A10.1,10.1,0,0,0,157.45,504h0a10,10,0,0,0-7.63,3.51c-3.33,3.31-7.16,6.62-14.29,6.62-10.18,0-15.85-7.34-15.85-17.68,0-10,5.67-17.17,15.85-17.17m96.19-15.37c-3.46-1.83-5.93-2.21-11.07-1.78-9.29.78-16.49,7.3-17.8,8.94v.24c0-.15,0-.29,0-.44h0v-.05a11.65,11.65,0,0,0-23.25.59v50.49a11.63,11.63,0,0,0,23.25-.19V508.07c0-18.66,10.78-23.37,16.83-23.49,1.59,0,5.69,1.53,8.91.94a11.53,11.53,0,0,0,3.13-21.62m247.21-.59h.58v-1.77a11,11,0,0,1,0-1.12,1.58,1.58,0,0,1,.46-1,.83.83,0,0,1,.38-.23,1.44,1.44,0,0,1,1.57.32,1.25,1.25,0,0,1,.38.68,6.6,6.6,0,0,1,.08,1.15v2h1.07a1.29,1.29,0,0,1,.95.33,1.13,1.13,0,0,1,.32.83.92.92,0,0,1-.47.9,2.65,2.65,0,0,1-1.33.26h-.54v5.9a8.92,8.92,0,0,0,0,1.16,1.16,1.16,0,0,0,.25.65.84.84,0,0,0,.68.26,3.87,3.87,0,0,0,.7-.1,3.1,3.1,0,0,1,.68-.1.84.84,0,0,1,.64.31,1.09,1.09,0,0,1,.28.78,1.3,1.3,0,0,1-.77,1.19,4.83,4.83,0,0,1-2.21.41,3.59,3.59,0,0,1-2.07-.5,2.38,2.38,0,0,1-.92-1.41,10.06,10.06,0,0,1-.22-2.38v-6.17H479a1.43,1.43,0,0,1-1-.3,1,1,0,0,1-.33-.76,1,1,0,0,1,.35-.76,1.51,1.51,0,0,1,1-.3m17.25,5.61v4.13a2,2,0,0,1-.41,1.34,1.38,1.38,0,0,1-1.06.44,1.35,1.35,0,0,1-1-.44,2,2,0,0,1-.4-1.34v-4.71a10.36,10.36,0,0,0,.14-1.72,1.81,1.81,0,0,0-.4-1,1.27,1.27,0,0,0-1.05-.4,1.86,1.86,0,0,0-1.89,1,11.4,11.4,0,0,0-.29,2.84v4a5.23,5.23,0,0,1-.58,1.38,1.53,1.53,0,0,1-2.19,0,7.76,7.76,0,0,1-.72-1.39v-8.36a1.93,1.93,0,0,1,.4-1.31,1.3,1.3,0,0,1,1.05-.44,1.41,1.41,0,0,1,1,.41,1.59,1.59,0,0,1,.42,1.16v.26a5,5,0,0,1,1.63-1.34,4.17,4.17,0,0,1,1.92-.43,3.72,3.72,0,0,1,1.89.44,3.49,3.49,0,0,1,1.31,1.33,5,5,0,0,1,1.59-1.34,4,4,0,0,1,1.87-.43,4.33,4.33,0,0,1,2.07.47A3,3,0,0,1,503,465a6.18,6.18,0,0,1,.38,2.5v5.78a1.88,1.88,0,0,1-.4,1.32,1.47,1.47,0,0,1-2.1,0,1.91,1.91,0,0,1-.41-1.32v-5a10.28,10.28,0,0,0-.08-1.51,1.72,1.72,0,0,0-.43-1,1.4,1.4,0,0,0-1.08-.39,2,2,0,0,0-1.1.35,2.32,2.32,0,0,0-.81.92,7.49,7.49,0,0,0-.32,2.62M158.52,239.59s-2.47,3.75-4.36,3.37-2.82-1.07-1.47-3.57c0,0,2.53-1.83,3.78-1.73s1.71-.18,2-.66,1.59,1.08,0,2.59"/><path class="cls-1" d="M459.73,246.89A180.51,180.51,0,1,1,279.23,66.38a180.5,180.5,0,0,1,180.5,180.51"/><path class="cls-2" d="M121.22,248.39C121.22,161,192.29,90,279.65,90S438.08,161,438.08,248.39,367,406.82,279.65,406.82,121.22,335.75,121.22,248.39m-9,0c0,92.33,75.11,167.45,167.45,167.45s167.46-75.12,167.46-167.45S372,80.94,279.65,80.94,112.2,156.05,112.2,248.39"/><path class="cls-2" d="M389.41,243H390v-2.45c0-.66,0-1.17.05-1.55a2.41,2.41,0,0,1,.3-1,1.85,1.85,0,0,1,.68-.68,2,2,0,0,1,2.4.33,1.68,1.68,0,0,1,.53,1,9,9,0,0,1,.11,1.59V243h1.49a1.9,1.9,0,0,1,1.31.41,1.33,1.33,0,0,1,.46,1,1.18,1.18,0,0,1-.65,1.14,4.33,4.33,0,0,1-1.85.32h-.76v7.51a11,11,0,0,0,.07,1.47,1.47,1.47,0,0,0,.35.84,1.22,1.22,0,0,0,.95.33,5.53,5.53,0,0,0,1-.13,5.05,5.05,0,0,1,1-.13,1.25,1.25,0,0,1,.89.39,1.33,1.33,0,0,1,.39,1,1.62,1.62,0,0,1-1.07,1.49,7.24,7.24,0,0,1-3.08.52,5.38,5.38,0,0,1-2.89-.64,3,3,0,0,1-1.29-1.78,11.68,11.68,0,0,1-.31-3v-7.81h-.53a2,2,0,0,1-1.34-.41,1.35,1.35,0,0,1-.46-1.05,1.3,1.3,0,0,1,.48-1,2.14,2.14,0,0,1,1.41-.41m24.85,8.14v5.76a2.76,2.76,0,0,1-.56,1.88,1.92,1.92,0,0,1-1.49.63,1.86,1.86,0,0,1-1.46-.63,2.76,2.76,0,0,1-.56-1.88v-6.54a21.44,21.44,0,0,0-.11-2.57,2.82,2.82,0,0,0-.61-1.51,2,2,0,0,0-1.57-.58,2.81,2.81,0,0,0-2.84,1.48,10.51,10.51,0,0,0-.68,4.24v5.48a2.7,2.7,0,0,1-.56,1.87,1.84,1.84,0,0,1-1.47.64,1.89,1.89,0,0,1-1.46-.63,2.67,2.67,0,0,1-.58-1.87V245.12a2.7,2.7,0,0,1,.56-1.84,1.85,1.85,0,0,1,1.46-.62,2,2,0,0,1,1.47.58,2.14,2.14,0,0,1,.58,1.6v.35a7.19,7.19,0,0,1,2.31-1.87,6.14,6.14,0,0,1,2.73-.6,5.5,5.5,0,0,1,2.68.61,4.93,4.93,0,0,1,1.85,1.86,7.19,7.19,0,0,1,2.24-1.86,5.86,5.86,0,0,1,2.66-.61,6.12,6.12,0,0,1,2.93.66,4.23,4.23,0,0,1,1.83,1.89,8.68,8.68,0,0,1,.53,3.54v8.13a2.63,2.63,0,0,1-.56,1.85,1.86,1.86,0,0,1-1.48.62,1.91,1.91,0,0,1-1.46-.62,2.68,2.68,0,0,1-.57-1.85v-7a17.06,17.06,0,0,0-.11-2.14,2.41,2.41,0,0,0-.61-1.35,1.93,1.93,0,0,0-1.51-.55,2.71,2.71,0,0,0-1.55.49,3.26,3.26,0,0,0-1.14,1.3,10.47,10.47,0,0,0-.45,3.7M227.78,288.78c-2-2.39-5.68,5.12-10,6.3-2,.55-6.13,3-14.78,1.95-7.46-1.42-17.62-5-28-6-14-1.37-25.91,10.29-29.07,15.67-2.17,3.69-2.45,9.38.09,15.4,2.7,6.43,6.11,9.58,8.27,6.59,1.64-2.28-.23-5.3-.21-9.14a22.43,22.43,0,0,1,2.14-9.19c1.59-3.41,5.1-3.67,6.37-4,2.61-.73,1.73,2,0,5.34a19.2,19.2,0,0,0-2.07,7.52,25.17,25.17,0,0,0,.33,5.53A26.76,26.76,0,0,0,163.8,332c2.2,3.86,8.36,8.68,10.13,6.69,1.55-1.75,0-5.35-.76-9.42a33.82,33.82,0,0,1-.91-8.63c0-4.79.16-4.12,1-7.09,1-3.43,3.11-4.7,5.52-5s1.29,4.38,1.29,4.38a38.45,38.45,0,0,0-.92,6.31A40.52,40.52,0,0,0,180,331.5c.59,3.25,4,10,8.77,9.44,2.57-.27,4.08-2.46,1.62-13.2-.37-1.61.09-6.52.29-8a15.79,15.79,0,0,1,2.44-6.47,6,6,0,0,1,2.56-2.22c1.71-.31,4.69.73,5.25,1.45,1.16,1.49,4,4.25,7.12,3.7,8.24-1.46,8.82-4.34,10.18-8.14a20.37,20.37,0,0,1,5.68-9c3.09-3.26,5.92-7.91,3.91-10.28"/><path class="cls-2" d="M233.63,148.07c1,.09,1.84-1.38,1.94-1.66a12.89,12.89,0,0,0,.38-3.24c0-4.62-4.41-8.36-9.83-8.36s-9.82,3.74-9.82,8.36,3,8.36,8.46,8.36c.06,0,.53,0,.59-.41s-.3-.67-.24-.68a4.15,4.15,0,0,1-2.82-3.95c0-2.42,1.92-4.44,4.55-5.12a1.41,1.41,0,0,1,1.42.49,5.2,5.2,0,0,1,.68,2.23c0,.79-.33,2.15.23,1.92a2,2,0,0,0,1.18-1.55,7.35,7.35,0,0,0,.32-2.28.47.47,0,0,1,.47-.46,1,1,0,0,1,.65.14,9.21,9.21,0,0,1,.77.51,4.15,4.15,0,0,1,1.13,3.76c-.19,1-1.05,1.48-.06,1.94m1.53,139.18c-.33,3.63,2.52,4.84,4.94,5.35a40.15,40.15,0,0,1,5.69,1.73c12.81,2.37,36.06,4,52.16,3.35,3.29-.13,3.46.87,8.4.35s5.65-4,5.32-8.47-8.12-3.28-8.12-3.28c-36.57,1.73-59.66-4.21-59.66-4.21-5.92-1.56-8.4,1.56-8.73,5.18M273.37,154c-4.43,1.35-13.72,1.27-18.63-4.16-3.69-4.09-3.18-14.28,4.29-17.71a33.6,33.6,0,0,1,4.66-1.34,26.09,26.09,0,0,1,7.54.37,11.76,11.76,0,0,1,8.39,5.26c3.46,7.22-.9,16-6.25,17.59m-89.13,95.32c-.66.46-1.21,4.12-1.28,5.12s-1.65,4.38-4.61,4.2c-.93-.06-2,.31-2.56-2.83s6-7.36,6-7.36c1.54-.59,3.12.41,2.46.87m229.7,24.77c-11.21-3.6-25.62-.41-25.62-.41a19.3,19.3,0,0,0-8.4-8.38c-4-2.19-12.11-4.18-18.82-4.39-3.24-.11-15.28,2.17-20.07,3.94-.71.27-3.36.85-2.84-1.86.4-2.08,5.37-5.31,9.08-6.28,8.17-2.15,17.83-3.17,22.26-1.17,7.57,3.42,2.8-9.46,5.32-16.11s-7-8.63-10.13-10-4.44-5.32-2.54-7.31a11.76,11.76,0,0,0,3.17-10c-.63-4.65-7.6-4.65-10.77-6s-1.9-5.32,1.9-8,7-10.63,5.7-14.62-5.7-2.66-8.86-2.66a6.34,6.34,0,0,1-6.34-4c-1.28-2.66,1.9-4,3.17-7.31s-.12-6.19-5.08-6.64c-3.15-.29-6.33-1.33-6.33-4.65s6.33-8,4.43-12.62-7.6-2-10.13-2-1.91-2-.64-11.29-3.66-8.82-9.54-7.64c-4.35.87-7.57,5.65-12,5s-13.91-14.72-18.34-18-10.39-12-20.28-3c-1.56,1.43-4.74,5.13-7.17,7.08-.81.43-1.64.92-2.51,1.47a24.38,24.38,0,0,1-11.89,3.87c-5.7,0-9.88-14.76-16.85-16.09S217.72,110,212,122.56c-1.71,3.76-1.62,10.18,1.55,11.51,5,2.11,7.19-3.2,12.17-3.17,10.58.07,13.85,7.77,13.24,13.6-.86,8.36-13.14,10.56-17.2,9.15-10.2-3.48-11,.17-11,.12-1.73,3-3.17,15.29-6.34,19.94s-12.67,9.3-16.48,12.62-11.27,10-13.94,18.6-5.71,14-8.87,16.61S147.34,232,143.59,237.82c-2.38,3.71-.86,2.66-2.55,7-3.66,9.36,8.24,14.62,12,16.6s11.34,5.37,14.85,11.39c1.2,2,5.44,5.89,16.84,3.23s15-14.27,15-14.27c.63-2,1.44-4.33,4-4.33s4.43,1.33,7.6,1.33,5.42-5,5.21-9.69c-.11-2.79-.81-1.79-1.21-4.12-.2-1.18,2.13-1.16,2.68-.41s.19,1.14,7.89,4.25c9.15,3.71,14.09-13.51,16-18.17s1.76-13.71,1.76-17,.63-4,3.17-5.31,4.43,2,15.21,2,7-12.62,7.6-19.26c.42-4.38-.38-6.69-3.32-7.79-1.31-.49-3.75-2.53-2.65-3.83,2.45-2.88,4.08,1.07,6.62,1.73s3.93,1.15,8.07-.92c3.24-1.61,6.46-8.75,8.07-10.59,2.09-2.38,4.74,7.45,2.21,11.43s-9.05,6.48-11.59,12.47-2,18.3-2.17,21.24c-.17,3.52-5.63,4-7.38,3.85-7.21-.5-11.12-3.68-14.92-3.68s-4.7,9.39-4.7,12.05,1.4,5.64-1.13,9-5.7,6-7,10-1.51,6.83-5.31,9.49-8.78-1.73-11.38-2.08c-3.46-.46-5.37,6.49-6.8,10.46-.9,2.5-7.14,8.21-12.84,10.2-9.67,3.38-9.31,6.32-9.66,8.18-.64,3.31,1.56,7.38,10.76,8.68,3.82.54,13.4-3.87,15.3-6.87,4-6.36,5.38-5.16,8.55-6.48s7.84-2.29,10.76-3.68c18.76-8.93,31.25-17.93,35.05-21.25s5-7,4.36-9.71.95-3.83,2.85-2.51,12.39,3.11,23.8-6.19,11.3-32.52,11.3-35.84,1.27-6,5.07-2,2.09,24.31-5.21,37.14c-3.36,5.91-7.47,8-10,14s8.87,16.62,10.14,19.94.63,11.29,0,19.92.58,10.82,5,12.81,4.16-.72,8-3.29c4.85-3.23,14.63-4.71,18.5-4.6,18.83.48,23.8,5.69,23,8.37-1,3.09-10.11-2.37-25.32-1.71s-27.87,14.63-28.84,18.33c-1.21,4.61-1.38,14.26,3.45,20.79,4.61,6.23,9.3,9.79,11.14,6.13,1.39-2.78-2.31-7.36-2.91-11.63a25.78,25.78,0,0,1,.81-10.51c1.16-4,4.88-4.86,6.18-5.45,2.69-1.22,2.18,1.92.91,5.91a21.92,21.92,0,0,0-1,8.65,29.83,29.83,0,0,0,1.25,6.08,30.41,30.41,0,0,0,4.33,7.64c3,3.94,10.35,8.32,11.94,5.83,1.37-2.18-.88-5.93-2.34-10.32a39.08,39.08,0,0,1-2.37-9.42c-.83-5.3-.49-4.59-.08-8,.47-4,2.58-5.71,5.12-6.37s2.45,4.65,2.45,4.65c0,1.47-1.12,1.95-.78,7.29.39,6.2,2.06,9.5,3.3,13.26,1.16,3.5,5.86,10.43,10.93,9.1,2.71-.72,4-3.38-.39-14.89-.66-1.73-1-7.24-1-8.92a17.81,17.81,0,0,1,1.57-7.56c1.26-2.44,2.67-4,6.36-3.2s14.34,4.91,29.74,1.86c12.42-2.46,25.74-11.41,27.64-24s-8.07-16.4-19.22-20M292.18,263c3.75-.56,8.68-1,9.79-1.29,2.83-.81,1.37-3.72.88-6s-2.69-4.8-5.33-4.1-5.18,1-8.63,1.68-8.56,1.38-8.56,1.38-4.22.92-5.25,3.35-3,6.23,1.1,6.4,13.87-1.14,16-1.45m-35.73,7.38c-1.93,2.83-1.5,7.81,7.73,8.33s33.94.18,36.4.35,9.39,1.21,10.38-1.9,2.15-8.64-4.77-8.81-11.54,1.38-23.72,1.21-18-1.52-18-1.52-5.83-.9-8,2.34m47.43,35.46c-47.11,2.59-63.4-4.31-63.4-4.31s-5.21-1.63-6.2-1.46-5.94.1-6.1,6,8,6.21,9.14,6.21,4.28.51,4.28.51c17.14,5.88,57.5,4.15,57.5,4.15s3.36-.36,5.13-.66c7.33-1.23,10.7-6.54,9.38-9.82s-9.73-.58-9.73-.58"/><path class="cls-2" d="M266.73,133.74c-5.94,0-10.76,4.1-10.76,9.16s3.34,9.16,9.28,9.16c.06,0,.58,0,.64-.45s-.32-.74-.26-.74a4.54,4.54,0,0,1-3.09-4.33,5.6,5.6,0,0,1,2.78-4.66l1.52-.52s1.82-.69,2.45.3a5.62,5.62,0,0,1,.72,2.39c0,.84-.35,2.31.25,2.06a2,2,0,0,0,1.26-1.66,7.49,7.49,0,0,0,.34-2.43.52.52,0,0,1,.51-.5,1.18,1.18,0,0,1,.7.14c.25.15.69.46,1,.65a4.65,4.65,0,0,1,1,3.84c-.2,1.11-1.15,1.62-.07,2.12,1.15.1,2-1.51,2.13-1.82a14.37,14.37,0,0,0,.41-3.55c0-5.06-4.82-9.16-10.77-9.16"/><path class="cls-1" d="M154.87,242.11s-4.94,1.1-4-1.87,2.72-3.82,3.61-4a6.52,6.52,0,0,0,2.31-.66c.64-.39,1.17-1.48,1.45.18s-2.55,6.88-3.36,6.32"/></svg>