<svg id="Layer_1" data-name="Layer 1" xmlns="http://www.w3.org/2000/svg" viewBox="0 0 600 600"><path d="M200.75,277.45a123.27,123.27,0,0,0-10.25-44.71c-6.27-14.41-14.84-26.32-25.92-35.72-11.7-9.4-24.24-15.25-37.62-17.34a240.17,240.17,0,0,0-40.77-3.34H28.5V388.59H92.67a238.58,238.58,0,0,0,37-4.18,84.06,84.06,0,0,0,34.08-15c12.12-9.61,21.11-21.93,27.38-36.77A122,122,0,0,0,201,286.44v-5.65A16.82,16.82,0,0,0,200.75,277.45Zm-42.61,8.13a88.28,88.28,0,0,1-5.43,30.3c-3.35,9.62-8.58,17.56-15.27,23.2A44.06,44.06,0,0,1,122,347.24a110.21,110.21,0,0,1-18.41,3.34,62.86,62.86,0,0,1-6.28.42c-2.09,0-4,.21-6.06.21h-3.6l-3.76-.3H75.28a39,39,0,0,0-4.57-.31V214.93H97.9a30.67,30.67,0,0,1,4.39.21,95.21,95.21,0,0,1,19.25,2.92,39.19,39.19,0,0,1,16.52,9.2c6.49,6.06,11.51,14,14.85,23.83a91,91,0,0,1,5.23,30.1Zm197,100L326.7,351c1.88-1.88,3.76-4,5.64-6.06a85.41,85.41,0,0,1,6.27-6.06q2.82-3.45,5.64-6.27c2.09-2.09,4-4.18,6.06-6.27L333,308.1c-2.3,2.72-4.81,5.44-7.32,8.16s-5.22,5.43-7.73,7.94a34.42,34.42,0,0,1-3.76,4c-1.25,1.25-2.51,2.72-4,4l-25.92-30.3c1.05-.84,2.09-1.47,3.14-2.3a17.74,17.74,0,0,1,3.34-2.09,118.21,118.21,0,0,0,14-13.17c4.39-5,7.46-17.56,7.46-17.56V264c0-10.87-4.39-19-13-24.66a51.59,51.59,0,0,0-51.61-2.72,27.79,27.79,0,0,0-14.84,17.56c-.21.62-.42,1.46-.63,2.3l-.63,2.5c-.2,1.05-.2,2.3-.41,3.35a23.87,23.87,0,0,0-.21,3.76,34,34,0,0,0,4.6,17.14,73.46,73.46,0,0,0,11.28,15.88A123.22,123.22,0,0,0,226.53,315c-6.06,6.06-9.82,13.58-11.5,22.78a2.35,2.35,0,0,1-.2,1v1.05a1.57,1.57,0,0,1-.15.84s-.21.21-.16.41v7.74a48.15,48.15,0,0,0,5.8,18A39.42,39.42,0,0,0,232.86,381a71.14,71.14,0,0,0,9,4.39,93.09,93.09,0,0,0,9.61,2.51l5,.63c1.67,0,4.8.32,4.8.32h2.3a14.43,14.43,0,0,1,2.3-.32,64.63,64.63,0,0,0,21.95-5.86,76.1,76.1,0,0,0,19.22-12.54l12.7,15.26v.15ZM257,264.43v-.63c.06-.42.06-.63.3-.84v-.62c.39-3.77,1.64-6.48,3.94-8.36,2.51-1.89,7.53-3.47,7.53-3.47h3.44a18.91,18.91,0,0,1,9.42,4.6,13.18,13.18,0,0,1,4.61,10.27v2.93a19.71,19.71,0,0,1-5.44,9.84,106.72,106.72,0,0,1-9,7.33h-.51s-.42.47-.63.68a1.61,1.61,0,0,0-.63.42c-.21,0-.42.21-.63.21a23.48,23.48,0,0,1-1.88-2.3,23.27,23.27,0,0,0-2.29-2.3c-1.89-2.51-4-5.22-5.65-7.94a15.67,15.67,0,0,1-2.72-9A1.29,1.29,0,0,1,257,264.43Zm26.6,93.62a38.93,38.93,0,0,1-8.15,4.81,24.8,24.8,0,0,1-9.61,2.09,19,19,0,0,1-4.81-.63,16.72,16.72,0,0,1-5-2.09,23.4,23.4,0,0,1-5-3.34,67.14,67.14,0,0,1-4.8-5.43,23.74,23.74,0,0,1-2.51-4.39,12.92,12.92,0,0,1-.84-4.81,14.63,14.63,0,0,1,.21-2.92l.63-2.51a28.82,28.82,0,0,1,5.85-10.45,71.2,71.2,0,0,1,8.78-9,10.83,10.83,0,0,1,1.67-1.25,18.27,18.27,0,0,1,2.09-1.26l29.05,34.69A59.28,59.28,0,0,1,283.64,358.05Zm188.67-84.93V309.9h52.62l-.63,1.26c0,13-5,22.59-15.06,29.49s-21.34,10.26-34.1,10.26h-5.86a24.28,24.28,0,0,1-5.86-1.05C450,348,437.48,342.33,426,332.91S407.35,310.53,404.64,294a5.16,5.16,0,0,0-.21-1.67c-.21-.63-.21-1.26-.42-1.68a5.78,5.78,0,0,0-.21-1.88,4,4,0,0,1-.21-1.67c-.21-1.26-.42-2.3-.63-3.56v-3.38a81.59,81.59,0,0,1,11.91-42.62c7.93-13.37,19.84-22.57,35.5-27.37,3.76-.84,7.52-1.46,11.28-2.09,3.55-.21,7.1-.63,10.65-.63a67.5,67.5,0,0,1,30.07,6.9,95.81,95.81,0,0,1,26.73,19.22l30.7-22.36a124.73,124.73,0,0,0-40.51-30.71,120.63,120.63,0,0,0-48.45-11.7H467.7c-4,0-8.35.21-12.53.63a92.2,92.2,0,0,0-12.94,2.09c-4.6,1-9,2.29-13.37,3.55a72.92,72.92,0,0,0-12.74,5c-19.22,9.61-34.25,23.4-44.9,42-10.44,18.38-15.87,37.6-15.87,58.08,0,1.88.2,3.76.2,5.64.21,1.88.42,3.76.63,5.43a109.56,109.56,0,0,0,5.85,25.7,115.23,115.23,0,0,0,11.48,24,106.69,106.69,0,0,0,38.64,33.21,120.79,120.79,0,0,0,49.5,14,28.28,28.28,0,0,0,4,.42h4.17c2.3,0,4.6-.21,7.1-.21,2.3,0,4.6-.21,7.31-.41a158.88,158.88,0,0,0,21.1-4.39,75.17,75.17,0,0,0,19.42-9c18.59-10.24,30.91-23.81,37.17-40.74a147.42,147.42,0,0,0,9.61-53.69v-7ZM184.17,407.89h-7.94l-.3,22.61h8.24c5.64-.14,10.45-5.15,10.45-11.42S189.81,407.79,184.17,407.89Zm-.86,19.9h-3.76V410.65l4.6.21c4.18.63,6.9,4.18,6.9,8.57C191.05,423.61,188.33,427.79,183.31,427.79Zm24.89-20.41c-6.9,0-12.54,5.22-12.54,11.7S201.3,431,208.2,431a12.13,12.13,0,0,0,12.33-11.91C220.53,412.6,215.1,407.38,208.2,407.38Zm0,20.48a8.89,8.89,0,1,1,9-8.78A8.88,8.88,0,0,1,208.2,427.86Zm16.88-.07v-19.9h-3.62V430.5h9.95v-2.71Zm17-17.7a9.24,9.24,0,0,1,7.11,3.35v-4.18a14.05,14.05,0,0,0-7.11-2.1c-6.69,0-12.33,5.44-12.33,11.92S235.4,431,242.09,431a12.34,12.34,0,0,0,7.11-2.09v-4.18a9.24,9.24,0,0,1-7.11,3.34,9,9,0,0,1-9-9A8.92,8.92,0,0,1,242.09,410.09Zm19.47.51v-2.71H250.1V430.5h11.46v-3h-8.14v-7.84h8.14v-2.72h-8.14V410.6Zm13.87,17.47v-.28h.2c.21-.21.42-.62.62-.83s.41-.41.41-.61l-.61-.83c-.42.21-.42.41-.62.83a1.09,1.09,0,0,0-.62.82l-2.47-2.88c.41-.42.82-.62,1.44-1.24a1.74,1.74,0,0,0,.41-1.44,2,2,0,0,0-.62-1.65,2.32,2.32,0,0,0-1.64-.61h-.62a1.39,1.39,0,0,0-1.21.45c-.4.45-.8.68-.8,1.35h-.2v.68a1.82,1.82,0,0,0,.4,1.13c.2.45.6.9.8,1.36a7.13,7.13,0,0,1-1.6,1.13,6.87,6.87,0,0,0-.81,1.81v-.08h-.3v.47a1.79,1.79,0,0,1,.38,1c.42.42.63.84.84,1.05a6.57,6.57,0,0,1,1,.76h1.67l1.47-.76a1.9,1.9,0,0,0,1.25-.84l1.25,1.3H277Zm-5.13-6.74c0-.43.21-.65.42-.65a.83.83,0,0,1,.84-.43h.2a1.61,1.61,0,0,1,.84.43,1.13,1.13,0,0,1,.42.86v.22a3,3,0,0,1-.63.86c-.21.43-.42.43-.83.64h-.21c-.21-.21-.21-.21-.42-.21,0-.22-.21-.43-.42-.65a1.65,1.65,0,0,1-.21-.86Zm3.32,6.76h-.22l-.83.81a10.38,10.38,0,0,0-1.25.7l-.21-.31a1.75,1.75,0,0,1-1.46-.6,1,1,0,0,1-.25-1.46V427l-.3-.42v-.21s.13-.41.33-.41c.21-.21.21-.42.63-.63.21,0,.21-.21.63-.42.21,0,.21,0,.21-.21l2.72,3.14Zm32.86-9v0H295.63v2.42h7.45c-.41,4.52-3.76,6.6-7.94,6.6a9,9,0,0,1,0-18,9.13,9.13,0,0,1,7.73,4.18l2.93-1.46a13.08,13.08,0,0,0-10.66-5.65c-6.9,0-12.54,5.23-12.54,11.92s4.81,12.12,12.54,12.12C302.67,431.2,306.64,426.18,306.48,419.08Zm9.76-11.19H314l-9.09,22.31h3.59l2.45-6.33h8.38l2.45,6.33h3.59Zm-4.17,13.26L315.2,413l2.93,8.15Zm57.67-13.26h-2.28l-9.09,22.31H362l2.45-6.33h8.38l2.45,6.33h3.59Zm-4.17,13.26,3.14-8.15,3.13,8.15Zm48.68-13.26h-2.06l-9.3,22.31h3.59l2.65-6.33h8.17L420,430.2h3.59Zm-4,13.26,2.93-8.15,3.13,8.15Zm-72.51-3a5.61,5.61,0,0,0,2.3-4.87,5.72,5.72,0,0,0-5.76-5.39h-7.64V430.5h8.59c4,0,6.91-2.72,6.91-6.49A6.1,6.1,0,0,0,337.78,418.15Zm-7.48-7.85,3.29.3h0c2.28.21,3.11,1,3.11,3.32s-1.66,3.31-3.53,3.31h-2.9Zm3.39,17.49H330.3V420h3.81c1.7,0,4.67.42,4.67,4C338.78,427.15,336.23,427.79,333.69,427.79ZM355,418.15a5.59,5.59,0,0,0,2.3-4.87,5.7,5.7,0,0,0-5.75-5.39h-7.64V430.5h8.58a6.32,6.32,0,0,0,6.7-6.49A5.91,5.91,0,0,0,355,418.15Zm-7.47-7.85,3.24.3h.07c2.08.21,2.91,1,3.11,3.32a3.2,3.2,0,0,1-3.52,3.31h-2.9Zm3.17,17.49h-3.17V420h3.6c1.69,0,4.66.42,4.66,4C355.75,427.15,353.21,427.79,350.66,427.79Zm47.78-19.9v16.75l-16.36-16.75h-1.43V430.5h3V414l14.87,16.54h2.91V407.89Z"/></svg>