<svg id="Layer_1" data-name="Layer 1" xmlns="http://www.w3.org/2000/svg" viewBox="0 0 600 600"><defs><style>.cls-1{fill:#221f20;}</style></defs><path class="cls-1" d="M262.78,187.83c2.59,6.45,16.79,40,16.79,40,2.59,6.45,6.46,14.2,5.17,21.95s-6.45,18.07-6.45,18.07,5.16,3.88,5.16,9-2.58,7.75-6.45,7.75-7.75-6.46-16.79-6.45-10.33,6.45-10.33,9,2.59,6.45,6.46,6.45,9-2.58,9-7.75c0,0,2.58,0,3.87,3.88S274.42,295,277,295c5.16,0,7.75-5.17,9-6.46a3.26,3.26,0,0,1,2.58-1.29,6.15,6.15,0,0,1,3.87,1.29c1.3,1.29,3.88,6.46,9,6.46,2.59,0,6.46-1.29,7.75-5.17s3.87-3.87,3.87-3.87c0,5.16,5.17,7.74,9,7.74s6.46-3.87,6.46-6.45-1.29-9-10.33-9-12.91,6.46-16.79,6.46-6.45-2.58-6.45-7.75,5.16-9,5.16-9-5.17-10.33-6.46-18.08,2.58-15.49,5.17-22c0,0,19.36-40,20.65-42.61s9-9,9-9H301.52c2.59,0,9,3.87,9,6.46s0,2.58-1.29,6.45-15.49,33.58-15.49,33.58-15.5-34.86-15.5-38.74,9-7.75,9-7.75H251.17C252.45,177.5,260.2,181.37,262.78,187.83Z"/><path class="cls-1" d="M221.47,274.21c21.95,0,36.16-11.62,42.61-23.24,0,0,10.33,0,14.21,3.87,0,0-47.79-109.75-50.38-117.5s2.59-16.79,5.17-20.66L203.38,127s5.17,2.58,7.75,11.62,18.08,47.78,18.08,47.78-18.08-5.17-31,1.29S177.56,211,177.57,225.15,189.19,274.22,221.47,274.21ZM215,190.28c28.4,0,37.45,52.94,37.45,55.52s-3.87,19.37-22,19.37c-20.66,0-36.16-24.53-36.16-46.48S208.55,190.28,215,190.28Z"/><path class="cls-1" d="M351.9,138.76c-2.81,7.67-53.81,116-53.81,116,4-3.75,14.31-3.45,14.31-3.45,6.11,11.81,20,23.85,41.91,24.5,32.26,1,44.91-33.55,45.33-47.75s-6.82-31.21-19.54-38-30.94-2.21-30.94-2.21,16.64-38.26,19.48-47.22,8.09-11.39,8.09-11.39L347.35,118C349.82,121.91,354.71,131.09,351.9,138.76Zm11.34,53.3c6.46.19,20.47,7.07,19.82,29s-16.87,46-37.52,45.39c-18.07-.53-21.45-17.43-21.37-20S334.85,191.22,363.24,192.06Z"/><path class="cls-1" d="M355,309.06c0-3.88-3.9-11.63-11.69-11.63s-13,10.34-14.28,12.93-2.6,6.46-2.6,2.58-5.19-15.51-16.88-15.51-15.58,12.93-15.58,12.93L290,309.07h-1.3l-3.89,1.29s-3.9-12.93-15.59-12.92S252.38,309.07,252.38,313s-1.3,0-2.6-2.58-6.49-12.93-14.28-12.93-11.69,7.76-11.69,11.64,9.09,15.51,18.18,15.51,16.88-6.47,19.48-9.06,10.38-2.58,15.58,0c0,0,5.19,3.88,5.19,9.05s-5.19,11.64-9.09,15.52v2.58a9.74,9.74,0,0,1,3.9,3.88c1.3,2.59,11.69,59.47,11.69,63.35H290c0-3.88,10.38-60.77,11.68-63.35a9.67,9.67,0,0,1,3.89-3.88v-2.59c-3.89-3.87-9.09-10.34-9.09-15.51s5.2-9.05,5.2-9.05c5.19-2.59,13-2.59,15.58,0s10.38,9.05,19.47,9.05S355,312.94,355,309.06Z"/><path class="cls-1" d="M71.68,441.61a15.54,15.54,0,0,0-8-6,25.06,25.06,0,0,0-7.3-1H36v47.18H56.34q10.69,0,15.82-8.81,3.78-6.53,3.78-15.94a36.52,36.52,0,0,0-.9-7.81A21.16,21.16,0,0,0,71.68,441.61Zm-6.91,25.07Q62,473.55,55,473.55H46V442.83H55c4.48,0,7.47,1.28,9,3.84s2.26,6.25,2.26,11A24.2,24.2,0,0,1,64.77,466.68Z"/><path class="cls-1" d="M93.61,434.6,76.77,481.77H87.3l3.14-9.52H107.5l3,9.52h10.91l-16.7-47.17ZM93,464l6.12-18.58,6,18.58Z"/><polygon class="cls-1" points="158.09 434.59 147.85 434.59 137.52 470.41 127.28 434.59 116.75 434.6 132.71 481.77 142.02 481.77 158.09 434.59"/><rect class="cls-1" x="164.97" y="434.59" width="9.95" height="47.17"/><path class="cls-1" d="M210.35,435.61a24.7,24.7,0,0,0-7.3-1H182.71v47.17h20.34q10.69,0,15.82-8.8,3.78-6.54,3.78-15.94a36.38,36.38,0,0,0-.9-7.81,21,21,0,0,0-3.37-7.62A15.6,15.6,0,0,0,210.35,435.61Zm.7,31.06q-2.75,6.87-9.73,6.87h-9.08V442.81h9.09q6.72,0,9,3.85t2.26,11A24.26,24.26,0,0,1,211.05,466.67Z"/><path class="cls-1" d="M284.66,475a13.81,13.81,0,0,0,2.1-7.52,12.43,12.43,0,0,0-1.84-6.91,10.45,10.45,0,0,0-5.45-4.16,11.31,11.31,0,0,0,3.6-2.69,10.55,10.55,0,0,0,2.18-6.95,12,12,0,0,0-2.16-7.2q-3.6-4.89-12.23-5h-22.8v47.18h21.25a32.48,32.48,0,0,0,6.67-.64,13,13,0,0,0,8.67-6.08ZM257.15,442.8H267.4a17.75,17.75,0,0,1,5.57.74c1.68.7,2.53,2.15,2.53,4.34q0,3-1.92,4.14a9.41,9.41,0,0,1-5,1.17H257.15Zm16.2,29.9a11.19,11.19,0,0,1-4.77.83H257.16V461h11.59a11.84,11.84,0,0,1,4.7.8,5,5,0,0,1,3,5Q276.44,471.17,273.35,472.7Z"/><polygon class="cls-1" points="326.83 442.8 326.83 434.57 292.21 434.58 292.21 481.75 327.7 481.75 327.7 473.09 301.73 473.09 301.73 460.98 324.67 460.97 324.67 452.75 301.73 452.75 301.73 442.8 326.83 442.8"/><path class="cls-1" d="M354.75,441.86c3.49,0,6.12,1,7.9,3.11a13.52,13.52,0,0,1,2.45,5.18h10a17.24,17.24,0,0,0-3.27-8.91q-5.51-7.9-17.43-7.9a19.67,19.67,0,0,0-14.68,5.89q-6.63,6.78-6.63,19.28,0,11.57,5.83,18.2t16,6.61q8.24,0,13.51-4.89a21.57,21.57,0,0,0,6.55-12.7h-9.92a14.89,14.89,0,0,1-2.47,5.54q-2.68,3.44-7.82,3.43a10.18,10.18,0,0,1-8.26-4q-3.24-4-3.25-12t3.08-12.42A9.72,9.72,0,0,1,354.75,441.86Z"/><polygon class="cls-1" points="402.71 453.97 421.72 434.56 409.21 434.56 391.32 454 391.31 434.57 381.79 434.57 381.8 481.74 391.32 481.74 391.32 465.96 395.98 461.15 410.25 481.74 422.7 481.74 402.71 453.97"/><polygon class="cls-1" points="436.33 460.53 454.5 460.53 454.51 481.73 464.46 481.73 464.46 434.56 454.5 434.56 454.5 452.74 436.33 452.74 436.32 434.56 426.37 434.56 426.38 481.74 436.33 481.74 436.33 460.53"/><path class="cls-1" d="M486,434.56l-16.84,47.17H479.7l3.14-9.52H499.9l3.05,9.52h10.91l-16.7-47.18ZM485.36,464l6.12-18.58,6,18.57Z"/><path class="cls-1" d="M550,434.55l-8.43,37.09L533,434.55H518.55v47.18h9.09V449.82c0-.92,0-2.21,0-3.86s0-2.93,0-3.82l8.79,39.58h9.76L555,442.13c0,.9,0,2.17,0,3.83s0,2.94,0,3.85v31.91H564V434.55Z"/></svg>