<svg id="Layer_1" data-name="Layer 1" xmlns="http://www.w3.org/2000/svg" viewBox="0 0 600 600"><defs><style>.cls-1{fill:#fff;}</style></defs><path d="M300.07,52.29c4.46.09,11.75.15,19,.41,5.92.21,11.83.62,17.74,1,5.29.38,10.59.81,15.86,1.4q8.73,1,17.41,2.28c6.52,1,13,2.08,19.51,3.31a412.1,412.1,0,0,1,102,33.66,72.78,72.78,0,0,1,22.16,16.12,71,71,0,0,1,15.77,27.84A95.64,95.64,0,0,1,533.41,159a134.27,134.27,0,0,1,.26,15.92,144.29,144.29,0,0,1-1.42,15.25c-.72,5.05-1.35,10.12-2.15,15.16-1.21,7.52-2.41,15.05-3.83,22.54-2.33,12.3-5.17,24.49-8.44,36.58a453.83,453.83,0,0,1-28.23,77.15A660.82,660.82,0,0,1,455,405.73a471.41,471.41,0,0,1-51.2,67.92A540.51,540.51,0,0,1,356.67,520c-6.12,5.31-12.35,10.49-18.95,15.21a67.77,67.77,0,0,1-11,6.66,63.55,63.55,0,0,1-18.18,5.2,61.47,61.47,0,0,1-14.66.29c-9.54-1-18.54-3.61-26.7-8.81a158.59,158.59,0,0,1-15.26-11.29,506.77,506.77,0,0,1-42.65-39.58C197.39,475.34,186,462.5,175.35,449a479,479,0,0,1-41.28-61.74c-10-17.67-19.24-35.72-27.59-54.22a452.8,452.8,0,0,1-22.62-62.52Q77.29,247.47,73,223.87q-2.24-11.94-3.86-24c-.62-4.66-1.34-9.3-1.87-14a138.57,138.57,0,0,1-.58-27.32,92.19,92.19,0,0,1,4.91-23.51c6.46-18,18.25-31.38,35.37-39.92a383.73,383.73,0,0,1,49.8-20.43,421.45,421.45,0,0,1,48.65-13q14.19-2.94,28.56-4.9c8-1.09,15.94-2,23.94-2.66C271,53,284.1,52.5,300.07,52.29Zm203.16,203.4c-1,0-1.69,0-2.36,0-6.19.25-12.38.44-18.57.79-6.86.38-13.73.82-20.58,1.38-6.44.52-12.87,1.18-19.31,1.85s-13.13,1.39-19.67,2.22q-12.76,1.63-25.48,3.5c-8.68,1.28-17.35,2.66-26,4.08-12.82,2.1-25.57,4.6-38.27,7.36-15.23,3.3-30.33,7.08-45.27,11.51A422.38,422.38,0,0,0,238.78,306a262.64,262.64,0,0,0-38.38,20.32,167,167,0,0,0-26.66,21.18,81,81,0,0,0-10,11.61,47.89,47.89,0,0,0-5.82,11.2,33.94,33.94,0,0,0-1.47,17.5,43.52,43.52,0,0,0,6.4,15.79q11.22,17.56,24.11,34a516.76,516.76,0,0,0,70.41,73.19,195.22,195.22,0,0,0,16.24,12.7,41,41,0,0,0,8,4.47,48.49,48.49,0,0,0,29.84,2.2,44,44,0,0,0,15.15-6.86c5.86-4.12,11.39-8.64,16.83-13.28A520.3,520.3,0,0,0,390,464.68a458.92,458.92,0,0,0,55.49-74.61c9.83-16.49,18.74-33.48,27.16-50.74a442.05,442.05,0,0,0,30.11-81.64C502.92,257.11,503,256.52,503.23,255.69Zm4.71-20.17a13.62,13.62,0,0,0,.46-1.43c.5-2.33,1-4.66,1.43-7,1.33-7.44,2.67-14.87,3.89-22.32.83-5,1.43-10.11,2.17-15.16a144.9,144.9,0,0,0,1.62-19.52,89.67,89.67,0,0,0-3-25.26,55.9,55.9,0,0,0-12.8-23.42A56.68,56.68,0,0,0,484.6,109a384.06,384.06,0,0,0-42.42-17.5,405.39,405.39,0,0,0-51.95-14.08c-7.87-1.59-15.76-3-23.72-4.11-5.94-.8-11.87-1.63-17.82-2.26-5.62-.6-11.26-1-16.89-1.43-7.33-.61-14.69-.84-22-1q-20.94-.48-41.84,1-11.12.77-22.16,2Q234.9,73,224.13,74.77,206.72,77.69,189.6,82a389.16,389.16,0,0,0-59.79,20.42c-5.6,2.45-11.2,5-16.64,7.76A52.8,52.8,0,0,0,87,140.06a74.39,74.39,0,0,0-4.12,19.1,117.7,117.7,0,0,0,.33,23.44c.38,3.45.87,6.89,1.36,10.33,1,6.87,1.93,13.75,3.06,20.59,1.65,10,3.67,19.94,6,29.82,3.09,13.26,6.69,26.37,10.9,39.32.21.63.45,1.24.73,2,.37-.35.63-.55.85-.8a41.22,41.22,0,0,1,7.66-6.72,85.85,85.85,0,0,1,14.49-7.91,187.93,187.93,0,0,1,25.79-9c18.71-5.22,37.78-8.69,57-11.46,6.73-1,13.49-1.79,20.25-2.6q8.61-1,17.25-1.88c5.28-.52,10.57-1,15.87-1.37,6.44-.52,12.89-1,19.34-1.47,5.77-.38,11.56-.65,17.33-1l9.39-.49c4.28-.22,8.56-.45,12.85-.65s8.71-.37,13.06-.55c8.37-.36,16.73-.73,25.1-1.05,5.92-.22,11.84-.39,17.76-.56,12.26-.36,24.5-.8,36.76-1q24.92-.48,49.83-.71c13.42-.1,26.83,0,40.24.07Z"/><path class="cls-1" d="M503.23,255.69c-.19.83-.31,1.42-.46,2a442.05,442.05,0,0,1-30.11,81.64c-8.42,17.26-17.33,34.25-27.16,50.74A458.92,458.92,0,0,1,390,464.68a520.3,520.3,0,0,1-46.53,45.25c-5.44,4.64-11,9.16-16.83,13.28a44,44,0,0,1-15.15,6.86,48.49,48.49,0,0,1-29.84-2.2,41,41,0,0,1-8-4.47,195.22,195.22,0,0,1-16.24-12.7A516.76,516.76,0,0,1,187,437.51q-12.9-16.38-24.11-34a43.52,43.52,0,0,1-6.4-15.79,33.94,33.94,0,0,1,1.47-17.5,47.89,47.89,0,0,1,5.82-11.2,81,81,0,0,1,10-11.61,167,167,0,0,1,26.66-21.18A262.64,262.64,0,0,1,238.78,306a422.38,422.38,0,0,1,48.93-17.57c14.94-4.43,30-8.21,45.27-11.51,12.7-2.76,25.45-5.26,38.27-7.36,8.66-1.42,17.33-2.8,26-4.08q12.72-1.87,25.48-3.5c6.54-.83,13.11-1.53,19.67-2.22s12.87-1.33,19.31-1.85c6.85-.56,13.72-1,20.58-1.38,6.19-.35,12.38-.54,18.57-.79C501.54,255.66,502.22,255.69,503.23,255.69Z"/><path class="cls-1" d="M507.94,235.52h-1.87c-13.41,0-26.82-.17-40.24-.07q-24.91.2-49.83.71c-12.26.24-24.5.68-36.76,1-5.92.17-11.84.34-17.76.56-8.37.32-16.73.69-25.1,1.05-4.35.18-8.71.35-13.06.55s-8.57.43-12.85.65l-9.39.49c-5.77.31-11.56.58-17.33,1-6.45.43-12.9.95-19.34,1.47-5.3.42-10.59.85-15.87,1.37q-8.64.85-17.25,1.88c-6.76.81-13.52,1.63-20.25,2.6-19.2,2.77-38.27,6.24-57,11.46a187.93,187.93,0,0,0-25.79,9,85.85,85.85,0,0,0-14.49,7.91,41.22,41.22,0,0,0-7.66,6.72c-.22.25-.48.45-.85.8-.28-.77-.52-1.38-.73-2-4.21-13-7.81-26.06-10.9-39.32-2.3-9.88-4.32-19.81-6-29.82-1.13-6.84-2.07-13.72-3.06-20.59-.49-3.44-1-6.88-1.36-10.33a117.7,117.7,0,0,1-.33-23.44A74.39,74.39,0,0,1,87,140.06a52.8,52.8,0,0,1,26.13-29.84c5.44-2.8,11-5.31,16.64-7.76A389.16,389.16,0,0,1,189.6,82q17.11-4.37,34.53-7.27Q234.9,73,245.76,71.71q11.06-1.27,22.16-2,20.9-1.47,41.84-1c7.35.17,14.71.4,22,1,5.63.47,11.27.83,16.89,1.43,5.95.63,11.88,1.46,17.82,2.26,8,1.07,15.85,2.52,23.72,4.11a405.39,405.39,0,0,1,51.95,14.08A384.06,384.06,0,0,1,484.6,109a56.68,56.68,0,0,1,17.11,12.37,55.9,55.9,0,0,1,12.8,23.42,89.67,89.67,0,0,1,3,25.26,144.9,144.9,0,0,1-1.62,19.52c-.74,5-1.34,10.12-2.17,15.16-1.22,7.45-2.56,14.88-3.89,22.32-.41,2.34-.93,4.67-1.43,7A13.62,13.62,0,0,1,507.94,235.52ZM119.85,203.13c.74,0,1.35.08,2,.08,9.53,0,19.06,0,28.59,0a47.22,47.22,0,0,0,7.32-.58c14.35-2.4,24.25-10.37,29.59-23.93a49,49,0,0,0,3-14.12,28.89,28.89,0,0,0-.67-9.13,17.4,17.4,0,0,0-9.07-11.73,26.13,26.13,0,0,0-5.11-2,46.47,46.47,0,0,0-12.52-1.57c-9.4,0-18.79,0-28.18,0-.54,0-1.07.06-1.66.1-.13.44-.27.82-.35,1.21L119.8,202.29A4.08,4.08,0,0,0,119.85,203.13Zm117.55-63c-.15.56-.26.87-.33,1.2L231.37,168q-1.41,6.59-2.83,13.17a11,11,0,0,1-1.49,3.78,5.89,5.89,0,0,1-3.25,2.66c-3.48,1-5.44-.86-5.49-3.74a11.6,11.6,0,0,1,.24-2.63c.91-4.47,1.88-8.92,2.83-13.38L227,141.35a10.27,10.27,0,0,0,.08-1.18H202.37c-.15.55-.32,1.06-.43,1.58q-1.55,7.19-3.07,14.37-2.84,13.38-5.66,26.75a21.62,21.62,0,0,0-.32,7.31,14,14,0,0,0,5.34,9.54,18.92,18.92,0,0,0,4.4,2.55,33.42,33.42,0,0,0,9.49,2.29,60,60,0,0,0,15.67-.37,38.46,38.46,0,0,0,10.91-3.25,25.65,25.65,0,0,0,12.55-12.36,30.34,30.34,0,0,0,2.18-6.57q4.21-19.86,8.44-39.72c.14-.65.2-1.32.33-2.19Zm112.14.1q-16.56,31.07-33.1,62.13a2.56,2.56,0,0,0-.11.71,11.79,11.79,0,0,0,1.38.17h20.82a13.46,13.46,0,0,0,1.39-.16c.33-.68.64-1.29.93-1.9,1.06-2.28,2.1-4.57,3.17-6.85a10.17,10.17,0,0,1,.67-1.11c3.62-.23,16.31-.15,18,.12.05.56.14,1.15.16,1.75,0,2.1.08,4.21.14,6.32,0,.53.1,1.05.15,1.62a6.56,6.56,0,0,0,.86.19c.41,0,.82,0,1.23,0h21.63c.65,0,1.36.22,2-.44q-3.19-29.33-6.4-58.75c-.12-1.14-.29-2.29-.44-3.43a.54.54,0,0,0-.07-.19,1,1,0,0,0-.16-.13C380.21,140.06,353.2,140,349.54,140.2Zm-24,23a24.36,24.36,0,0,0,.62-8.07,15.54,15.54,0,0,0-8.69-13.38,27.73,27.73,0,0,0-9.53-2.85,47.44,47.44,0,0,0-15,.34,37.92,37.92,0,0,0-15.68,6.56,37.5,37.5,0,0,0-13.15,17.55,56.78,56.78,0,0,0-3,12.47,36.16,36.16,0,0,0,0,11c1.32,7.74,5.53,13.16,12.92,16a30.53,30.53,0,0,0,7.52,1.79,46.16,46.16,0,0,0,13.43-.36,37.11,37.11,0,0,0,14-5.3,28.8,28.8,0,0,0,12.67-17.62,10.2,10.2,0,0,0,.14-1.11c-2-.27-15.19-.38-22-.19-.4,0-.79.08-1.24.13-.27.76-.5,1.46-.76,2.15a13.41,13.41,0,0,1-2.12,3.94,5.87,5.87,0,0,1-5.23,2.22,4.06,4.06,0,0,1-4.13-3.52,13.74,13.74,0,0,1-.15-4.87,92.81,92.81,0,0,1,2.52-13c.52-2,1.16-3.91,1.84-5.83a11.53,11.53,0,0,1,2.26-3.85,7,7,0,0,1,6.61-2.37,3.54,3.54,0,0,1,3.29,3.35,26,26,0,0,1,.09,3.06c0,.59,0,1.19,0,1.81a2.39,2.39,0,0,0,.61.2q10.73,0,21.44,0A2.12,2.12,0,0,0,325.59,163.17Zm96,39.87c.66-3.07,1.32-6.12,2-9.17s1.29-6.12,1.95-9.18,1.3-6.12,2-9.17l2-9.18c.67-3,1.18-6.12,2.06-9.23l5.17,0c1.7,0,3.4,0,5.1,0a29.68,29.68,0,0,0,5.21-.17q1.65-7.68,3.31-15.34a9.61,9.61,0,0,0,.08-1.25,5.87,5.87,0,0,0-2.26-.19H396.7a4,4,0,0,0-2.19.23c-.08.28-.18.54-.24.8-1,4.86-2.09,9.71-3.11,14.57a7,7,0,0,0,0,1.31c.77,0,1.44,0,2.11,0H404.7c.51,0,1.09-.16,1.57.39a13.56,13.56,0,0,1-.18,1.35q-3.3,15.47-6.62,30.93c-.84,3.92-1.69,7.84-2.51,11.77-.1.5-.36,1,.08,1.53,1.76.23,17.41.34,23.27.16C420.7,203.2,421.1,203.11,421.63,203Zm33.74-62.76q-6.6,31.13-13.17,62.13a2.73,2.73,0,0,0,.11.66,10.12,10.12,0,0,0,1.19.14q11.13,0,22.26,0A8.46,8.46,0,0,0,467,203q6.6-31,13.16-61.91a2.84,2.84,0,0,0,0-.77C478.57,140.05,457.76,140,455.37,140.28Z"/><path d="M119.85,203.13a4.08,4.08,0,0,1,0-.84l12.93-60.87c.08-.39.22-.77.35-1.21.59,0,1.12-.1,1.66-.1,9.39,0,18.78,0,28.18,0a46.47,46.47,0,0,1,12.52,1.57,26.13,26.13,0,0,1,5.11,2,17.4,17.4,0,0,1,9.07,11.73,28.89,28.89,0,0,1,.67,9.13,49,49,0,0,1-3,14.12c-5.34,13.56-15.24,21.53-29.59,23.93a47.22,47.22,0,0,1-7.32.58c-9.53.06-19.06,0-28.59,0C121.2,203.21,120.59,203.16,119.85,203.13Zm34.6-48.65c-2.41,11.22-4.79,22.31-7.16,33.4a4.72,4.72,0,0,0,0,.85,3.91,3.91,0,0,0,.8.18c.95,0,1.91,0,2.86-.1a10.39,10.39,0,0,0,8.35-5.14,20.45,20.45,0,0,0,1.93-4,67.84,67.84,0,0,0,3.43-16.12,11.53,11.53,0,0,0-.31-4.05,6.06,6.06,0,0,0-4.77-4.76A16.85,16.85,0,0,0,154.45,154.48Z"/><path d="M237.4,140.1h24.8c-.13.87-.19,1.54-.33,2.19q-4.22,19.86-8.44,39.72a30.34,30.34,0,0,1-2.18,6.57,25.65,25.65,0,0,1-12.55,12.36,38.46,38.46,0,0,1-10.91,3.25,60,60,0,0,1-15.67.37,33.42,33.42,0,0,1-9.49-2.29,18.92,18.92,0,0,1-4.4-2.55,14,14,0,0,1-5.34-9.54,21.62,21.62,0,0,1,.32-7.31q2.81-13.38,5.66-26.75,1.53-7.19,3.07-14.37c.11-.52.28-1,.43-1.58H227.1a10.27,10.27,0,0,1-.08,1.18l-5.64,26.55c-.95,4.46-1.92,8.91-2.83,13.38a11.6,11.6,0,0,0-.24,2.63c.05,2.88,2,4.76,5.49,3.74a5.89,5.89,0,0,0,3.25-2.66,11,11,0,0,0,1.49-3.78q1.41-6.59,2.83-13.17l5.7-26.74C237.14,141,237.25,140.66,237.4,140.1Z"/><path d="M349.54,140.2c3.66-.22,30.67-.14,32.29.07a1,1,0,0,1,.16.13.54.54,0,0,1,.07.19c.15,1.14.32,2.29.44,3.43q3.21,29.4,6.4,58.75c-.68.66-1.39.43-2,.44H365.23c-.41,0-.82,0-1.23,0a6.56,6.56,0,0,1-.86-.19c-.05-.57-.14-1.09-.15-1.62-.06-2.11-.09-4.22-.14-6.32,0-.6-.11-1.19-.16-1.75-1.69-.27-14.38-.35-18-.12a10.17,10.17,0,0,0-.67,1.11c-1.07,2.28-2.11,4.57-3.17,6.85-.29.61-.6,1.22-.93,1.9a13.46,13.46,0,0,1-1.39.16H317.71a11.79,11.79,0,0,1-1.38-.17,2.56,2.56,0,0,1,.11-.71Q333,171.27,349.54,140.2Zm12.9,14.09c-.42.38-.56.44-.61.56q-4.87,10.89-9.73,21.8a3.77,3.77,0,0,0-.14.91c3.18.3,8.88.21,10.4-.2C362.42,169.81,362.42,162.21,362.44,154.29Z"/><path d="M325.59,163.17a2.12,2.12,0,0,1-.62.22q-10.71,0-21.44,0a2.39,2.39,0,0,1-.61-.2c0-.62,0-1.22,0-1.81a26,26,0,0,0-.09-3.06,3.54,3.54,0,0,0-3.29-3.35,7,7,0,0,0-6.61,2.37,11.53,11.53,0,0,0-2.26,3.85c-.68,1.92-1.32,3.87-1.84,5.83a92.81,92.81,0,0,0-2.52,13,13.74,13.74,0,0,0,.15,4.87,4.06,4.06,0,0,0,4.13,3.52,5.87,5.87,0,0,0,5.23-2.22,13.41,13.41,0,0,0,2.12-3.94c.26-.69.49-1.39.76-2.15.45-.05.84-.12,1.24-.13,6.77-.19,20-.08,22,.19a10.2,10.2,0,0,1-.14,1.11,28.8,28.8,0,0,1-12.67,17.62,37.11,37.11,0,0,1-14,5.3,46.16,46.16,0,0,1-13.43.36,30.53,30.53,0,0,1-7.52-1.79c-7.39-2.84-11.6-8.26-12.92-16a36.16,36.16,0,0,1,0-11,56.78,56.78,0,0,1,3-12.47,37.5,37.5,0,0,1,13.15-17.55A37.92,37.92,0,0,1,293,139.21a47.44,47.44,0,0,1,15-.34,27.73,27.73,0,0,1,9.53,2.85,15.54,15.54,0,0,1,8.69,13.38A24.36,24.36,0,0,1,325.59,163.17Z"/><path d="M421.63,203c-.53.07-.93.16-1.32.17-5.86.18-21.51.07-23.27-.16-.44-.48-.18-1-.08-1.53.82-3.93,1.67-7.85,2.51-11.77q3.31-15.47,6.62-30.93a13.56,13.56,0,0,0,.18-1.35c-.48-.55-1.06-.39-1.57-.39H393.26c-.67,0-1.34,0-2.11,0a7,7,0,0,1,0-1.31c1-4.86,2.07-9.71,3.11-14.57.06-.26.16-.52.24-.8a4,4,0,0,1,2.19-.23h51.46a5.87,5.87,0,0,1,2.26.19,9.61,9.61,0,0,1-.08,1.25q-1.65,7.66-3.31,15.34a29.68,29.68,0,0,1-5.21.17c-1.7,0-3.4,0-5.1,0l-5.17,0c-.88,3.11-1.39,6.19-2.06,9.23l-2,9.18q-1,4.57-2,9.17c-.66,3.06-1.3,6.12-1.95,9.18S422.29,200,421.63,203Z"/><path d="M455.37,140.28c2.39-.27,23.2-.23,24.78,0a2.84,2.84,0,0,1,0,.77Q473.63,172,467,203a8.46,8.46,0,0,1-1.26.21q-11.13,0-22.26,0a10.12,10.12,0,0,1-1.19-.14,2.73,2.73,0,0,1-.11-.66Q448.77,171.38,455.37,140.28Z"/><path class="cls-1" d="M154.45,154.48a16.85,16.85,0,0,1,5.12.23,6.06,6.06,0,0,1,4.77,4.76,11.53,11.53,0,0,1,.31,4.05,67.84,67.84,0,0,1-3.43,16.12,20.45,20.45,0,0,1-1.93,4,10.39,10.39,0,0,1-8.35,5.14c-.95.07-1.91.09-2.86.1a3.91,3.91,0,0,1-.8-.18,4.72,4.72,0,0,1,0-.85C149.66,176.79,152,165.7,154.45,154.48Z"/><path class="cls-1" d="M362.44,154.29c0,7.92,0,15.52-.08,23.07-1.52.41-7.22.5-10.4.2a3.77,3.77,0,0,1,.14-.91q4.84-10.9,9.73-21.8C361.88,154.73,362,154.67,362.44,154.29Z"/></svg>