<svg id="Layer_1" data-name="Layer 1" xmlns="http://www.w3.org/2000/svg" viewBox="0 0 600 600"><path d="M477.53,307l7.38-21.63L492.06,307H477.6m-76.69-8.07V278.7h3.43c5.67,0,9.48,3.69,9.48,10.36,0,3.68-2.88,9.42-8.85,9.42l-4,.4ZM363.62,307,371,285.32,378.14,307ZM555.5,277.49H533.3v.81h3.63v34.49l-22.14-35.3h-9.74v.81h3.63v43.19h-5.89l-15.5-45.89-16,46.29h-5.8V278.3h3.23v-.81h-8.46L448,313.71l-12.88-36.22h-8.74v.81H430v43.59h-6.7c-2.3,0-4.2-2.05-4.2-5.26v-6.74c0-5.57-2-10-8.2-11a10.51,10.51,0,0,0,9-10.26c0-6.31-4.7-11.18-14.07-11.18H392v.81h3.63v43.19h-6.79L373.38,275.6l-16,46.29h-2.88v.81h8.07v-.81h-4.18l4.83-14.13h15.27l4.67,14.13H377.5v.81h29.06v-.81h-5.65v-22.6h3.94a8.57,8.57,0,0,1,8.57,8.57v3.42s6.22,11.52,9.42,11.42h12v-.81h-4V281.84l15.12,41.48,14.34-42.84v41.41h-3.63v.81h19.78v-.81h-4.18L477,307.76H492.3L497,321.89h-5.65v.81h22.2v-.81h-3.63V280.1l28.25,44.3V278.7h8.48v43.19H543v.81H555.5v-.81h-3.63V278.3h3.24l.4-.7Zm-491,.91c7.68,0,9.59,4.44,9.59,10.79h.72v-11.7H44.5v1.21h4v43.19h-4v.81H74.77V309.78h-.88c0,6.75-1.64,12.11-12.68,12.11H53.78V300.5H57c4.91,0,7.25,2.54,7.25,6.86h.88V292.42H64.2c0,4.39-2.34,6.87-7.27,6.87H53.78V278.7h10.5M261.39,323c-12,0-12.6-15.69-12.6-22.76s.8-22.76,12.6-22.76,12.67,15.75,12.67,22.76S273.38,323,261.39,323m0-46.47c-11.82,0-19.58,13.15-19.58,23.71,0,11.52,8.4,23.65,19.58,23.65S281,312.49,281,300.23c0-10.56-8.4-23.71-19.58-23.71ZM172.33,323c-12,0-12.6-15.69-12.6-22.76s.8-22.76,12.6-22.76S185,293.22,185,300.23,184.32,323,172.33,323m0-46.47c-11.82,0-19.58,13.15-19.58,23.71,0,11.52,8.4,23.65,19.58,23.65s19.58-11.39,19.58-23.65c0-10.56-8.4-23.71-19.58-23.71Zm30,22V278.7h3.43c5.68,0,9.48,3.69,9.48,10.36,0,3.68-2.87,9.42-8.85,9.42h-4.06m25.43-20.18h3.63v43.59h-6.72c-2.29,0-4.18-2.05-4.18-5.26v-6.74c0-5.57-1.95-10-8.15-11a10.49,10.49,0,0,0,8.95-10.26c0-6.31-4.68-11.18-14-11.18H193.44v1.21h3.63v43.19h-3.63v.81H208v-.81h-5.65v-22.6h4.36c5.61,0,8.56,2.22,8.56,7.92v3.94c0,9.44,6,11.55,9.15,11.55h15.87v-.81h-3.63V278.7h3.63v-1.21H227.75v.81Zm-94.45,25h-2.83V278.7h2.65c6.55,0,10.65,3.38,10.65,12.43,0,8.18-3.15,12.19-10.65,12.19m-7.89,18.57h-8.48V278.7h8.48v43.19Zm9.57-44.4H111.67L99.34,313.83,86.41,277.49H77.6v1.21h3.63v43.19H77.6v.81h8.47v-.81H82V281.84l15.13,41.48,14.33-42.84v41.41h-3.63v.81h26.24v-.81h-3.23V304.13h3.91c10.37,0,15.39-5.79,15.39-13.19,0-7.15-4.42-13.45-15.38-13.45Zm220.71,16.14a4.11,4.11,0,0,1,.08.84c0,2.92-3.2,4.41-3.2,4.41H292.13s-3.19-1.49-3.19-4.41a4.11,4.11,0,0,1,.08-.84h22.36l2.22,2.55.51-2.55h15.14l2,2.19,1.9-2.19H355.7M326.36,286l1.72,5.24H314.36l.2-5.24h11.68m35.55,0a4.11,4.11,0,0,1,.08.84c0,2.92-3.11,4.41-3.11,4.41H335.58L340,286h21.74m-57.26,0,4.44,5.24H285.77s-3.11-1.49-3.11-4.41a4.85,4.85,0,0,1,.08-.83h21.7m64-8.08a4.11,4.11,0,0,1,.08.84c0,2.91-3.11,4.41-3.11,4.41H342.22l4.45-5.25h21.95M330,282c-1.26,0-2,.19-2.4,1.51H314.13v-.26a12.44,12.44,0,0,1,1.49-5.47.49.49,0,0,1,.42-.32h12.45c1.25,0,4.27,1.77,4.54,4.44h-3.15m-50.75,1.21s-3.11-1.49-3.11-4.41a4.22,4.22,0,0,1,.09-.84h21.76l4.44,5.25H279M327.24,309l1.38,4h-4l1.42-4h1m2.86,7.95.32.93h-2v.81h6.06v-.81h-1.65l-.33-.8h3.46a3.82,3.82,0,0,1,.08.87,5.13,5.13,0,0,1-3.35,4.78H312a5.14,5.14,0,0,1-3.33-4.81,3.4,3.4,0,0,1,.08-.83h2.62a5.14,5.14,0,0,0,3.93,1.93c1.91,0,2.17-1.14,3.22-1.14.25,0,.46.23.52.82h.76v-1.61h2.6l-.33.8H321v.81h3.23v-.81H323l.34-.8h6.55m-15-14.18a3.8,3.8,0,0,1,1.74.42,2.92,2.92,0,0,0,.86.36c.45,0,.65-.16.75-.72H319v4.44h7l1.61-4.5,1.57,4.5h17.08a5.38,5.38,0,0,0,3.37-5.06,8.45,8.45,0,0,0-.07-1H295.44a4.43,4.43,0,0,0-.07.81,5.66,5.66,0,0,0,3.43,5.25H309a6.56,6.56,0,0,1,5.88-4.13M302.1,309a2.62,2.62,0,0,0-.09.86,5.41,5.41,0,0,0,3.31,5l3.71,0a9.23,9.23,0,0,1-1-3.94,8.31,8.31,0,0,1,.25-2H302m22,6,.36-1.12h4.58l.34,1.21h-5.45m5.66-6.06h13.14a3.91,3.91,0,0,1,.07.82,5.63,5.63,0,0,1-3.41,5.23h-7.71L329.47,309M325,309H311c-.06.67-.08,1.35-.08,2a16.62,16.62,0,0,0,.41,4h6.08v-2h-1.21V311.8H321V313h-1.21v2h3.28l2.12-5.9"/><path d="M317,316.64a2.65,2.65,0,0,1-2.34,1.31,2.9,2.9,0,0,1-2.53-1.31H317m-5.69-9.28c.45-1.78,1.46-3.28,3.63-3.28,1.22,0,2.61,1,3.15,3.28H311.3"/></svg>