<svg id="Layer_1" data-name="Layer 1" xmlns="http://www.w3.org/2000/svg" viewBox="0 0 600 600"><defs><style>.cls-1{fill:#b94542;}.cls-2{fill:#3d3d67;}</style></defs><path class="cls-1" d="M188,228.4a20,20,0,0,1,20,20.68c-.36,10.86-9.64,19.32-20.51,19.32H97.07c-10.87,0-20.15-8.46-20.51-19.32a20,20,0,0,1,20-20.68Z"/><path class="cls-2" d="M178.88,281.4a20,20,0,0,1,20,20.68c-.36,10.86-9.64,19.32-20.51,19.32H126.82a8.26,8.26,0,0,0-8.24,7.92v25.54c0,10.87-8.46,20.15-19.32,20.51a20,20,0,0,1-20.68-20V311.24a29.84,29.84,0,0,1,29.84-29.84Zm38.7-36.78a20,20,0,0,1,20.68-20c10.87.36,19.32,9.64,19.32,20.51v109.7c0,10.87-8.45,20.15-19.32,20.52a20,20,0,0,1-20.68-20V244.62ZM465.7,335.4l9.26,0a3,3,0,0,0,3-3,2.83,2.83,0,0,0-.21-1.15l-30.28-50.88-47.29,81.9a20.26,20.26,0,0,1-17,10.12,4.07,4.07,0,0,1-.61,0H305.42a29.85,29.85,0,0,1-29.84-29.85V245.32c0-10.87,8.45-20.15,19.31-20.52a20,20,0,0,1,20.69,20v79.36a8.27,8.27,0,0,0,7.92,8.25H366c1.1-.34,4.44-1.48,5.46-3.06l53.39-92.41a23.35,23.35,0,0,1,40.41,0l52,87.34a29.91,29.91,0,0,1-23.73,48.11H434.11a18.5,18.5,0,1,1-.28-37Z"/></svg>