<?xml version="1.0" encoding="utf-8"?>
<!-- Generator: Adobe Illustrator 23.0.3, SVG Export Plug-In . SVG Version: 6.00 Build 0)  -->
<svg version="1.1" id="Layer_1" xmlns="http://www.w3.org/2000/svg" xmlns:xlink="http://www.w3.org/1999/xlink" x="0px" y="0px"
	 viewBox="0 0 473 266" style="enable-background:new 0 0 473 266;" xml:space="preserve">
<style type="text/css">
	.st0{fill:#FFFFFF;}
</style>
<g>
	<path d="M336.1,155.2c4.3,0,8.5,0,12.9,0c0,0.8,0,1.5,0,2.1c-0.9,0.2-48.5,0.4-51.3,0.1c0-0.7,0-1.3,0-2.2c0.4,0,0.9-0.1,1.4-0.1
		c4.3,0,8.6,0,12.9,0c0.4,0,0.9,0,1.6,0c-6.7-15.7-13.4-31.1-20.2-46.8c-7.5,15.7-14.9,31.2-22.3,46.8c4.8,0,9.4,0,14.1,0
		c0,0.8,0,1.5,0,2.2c-11.2,0-22.3,0-33.5,0c0-0.7,0-1.3,0-2.2c2.7-0.1,5.5,0,8.2,0c2.7,0,5.5,0,8.3,0c0.7-1.4,1.4-2.9,2.1-4.3
		c7.1-14.8,14.1-29.6,21.2-44.4c0.5-0.9,0.5-1.7,0-2.6c-4.8-11-9.5-22-14.2-33c-3.3-7.7-6.6-15.4-9.9-23.1c-0.3-0.8-0.8-1-1.6-1
		c-4,0-8,0-12.1,0c-0.4,0-0.9,0-1.5,0c0-0.8,0-1.5,0-2.2c15.5,0,31,0,46.5,0c0,0.7,0,1.4,0,2.2c-2.9,0-5.7,0-8.5,0
		c0.1,1.1,13.8,33.4,14.9,35.4c5.6-11.8,11.2-23.4,16.9-35.3c-3.8-0.2-7.5,0-11.2-0.1c0-0.5-0.1-0.9-0.1-1.3c0-0.3,0-0.6,0.1-0.9
		c9.4,0,18.7,0,28.2,0c0,0.7,0,1.4,0,2.2c-0.5,0-0.9,0.1-1.3,0.1c-3.8,0-7.6,0-11.5,0c-0.9,0-1.4,0.2-1.8,1.1
		c-5.8,12.2-11.6,24.4-17.5,36.7c-0.3,0.7-0.4,1.3-0.1,2.1c5.8,13.7,11.6,27.3,17.4,41c3.7,8.8,7.4,17.5,11.2,26.3
		C335.6,154.2,335.8,154.6,336.1,155.2z"/>
	<path d="M226.8,155.2c0,0.8,0,1.5,0,2.1c-0.9,0.3-47,0.3-48.8,0.1c0-0.7,0-1.3,0-2.2c1.8-0.1,3.6,0,5.3,0c1.8,0,3.7,0,5.5,0
		c1.8,0,3.6,0,5.5,0c-0.2-0.5-0.3-0.8-0.4-1.2c-4.3-10.1-8.7-20.2-13-30.3c-0.3-0.8-0.7-1-1.5-1c-12,0-24.1,0-36.1,0
		c-0.3,0-0.6,0-1.1,0.1c-3.8,10.7-7.7,21.4-11.6,32.3c1.6,0.1,3,0,4.5,0.1c1.5,0,3,0,4.4,0c1.5,0,2.9,0,4.5,0c0,0.8,0,1.5,0,2.1
		c-0.8,0.2-26.3,0.3-28.1,0.1c0-0.7,0-1.3,0-2.1c3.9-0.2,7.8,0,11.8-0.1c0.2-0.4,0.4-0.9,0.5-1.3c8.3-23.2,16.7-46.3,25-69.5
		c4.9-13.6,9.8-27.2,14.7-40.8c0.1-0.3,0.2-0.6,0.3-0.9c0.3-0.6,0.8-0.6,1.1-0.1c0.2,0.2,0.2,0.5,0.4,0.8c8,19,16,38,24,57
		c7.5,17.9,15.1,35.8,22.6,53.6c0.4,0.9,0.8,1.1,1.7,1.1c2.4-0.1,4.8,0,7.3,0C225.8,155.2,226.2,155.2,226.8,155.2z M159.7,74.6
		c-0.1,0-0.2,0-0.3,0c-5.4,15.2-10.9,30.4-16.4,45.6c12.2,0,24.1,0,36.3,0C172.8,104.9,166.3,89.8,159.7,74.6z"/>
	<path d="M239.8,180.9c-0.9,0-1.8,0-2.6,0c-0.2-0.9-0.3-158.3-0.1-160c0.9,0,1.7,0,2.7,0C239.8,74.3,239.8,127.6,239.8,180.9z"/>
	<path d="M88.3,211.6c1.6,0,3.1,0,4.7,0c1.8,4.9,3.5,9.9,5.3,14.8c0.1,0,0.2,0,0.2,0c0.2-0.5,0.4-0.9,0.6-1.4
		c1.6-3.9,3.1-7.9,4.7-11.8c0.8-2,0.3-1.7,2.4-1.7c0.8,0,1.6,0,2.5,0c0,7.6,0,15,0,22.5c-1.2,0.1-2.3,0.1-3.7,0c0-1.6,0-3.1,0-4.6
		c0-1.5,0-3,0-4.4c0-1.5,0-3,0-4.6c0-1.4,0-2.9-0.2-4.4c-1.4,2.9-2.5,6-3.7,9c-1.2,3-2.3,6-3.5,8.9c-0.8,0-0.8-0.5-0.9-0.9
		c-1.3-3.7-2.7-7.4-4-11.1c-0.6-1.7-1.2-3.4-1.8-5.1c-0.1-0.3-0.3-0.6-0.4-1c-0.5,0.4-0.3,0.9-0.3,1.3c0,5.1,0,10.2,0,15.3
		c0,0.5,0,1,0,1.5c-0.7,0-1.2,0-1.7,0C88.1,233.2,88,213.5,88.3,211.6z"/>
	<path d="M310.3,221.4c3.2,0,6.2,0,9.4,0c0-3.3,0-6.5,0-9.8c1.2-0.2,2.4-0.1,3.4-0.1c0.1,0.1,0.1,0.1,0.2,0.2c0,0,0.1,0.1,0.1,0.1
		c0,0.2,0.1,0.4,0.1,0.6c0,7.1,0,14.2,0,21.3c0,0.1-0.1,0.2-0.1,0.4c-1.1,0-2.2,0-3.5,0c0-3.5,0-7,0-10.4c-0.9-0.3-7.7-0.4-9.4-0.1
		c0,3.4,0,6.9,0,10.5c-1.2,0.2-2.4,0.1-3.5,0.1c-0.3-0.9-0.4-21.1-0.1-22.6c1.1,0,2.2,0,3.5,0C310.3,214.8,310.3,218.1,310.3,221.4z
		"/>
	<path d="M65.4,223c2.5,3.8,4.8,7.3,7.3,11.1c-1.5,0-2.7,0-3.9,0c-0.3,0-0.6-0.4-0.8-0.7c-1.2-1.7-2.3-3.5-3.4-5.3
		c-0.9-1.4-1.8-2.8-2.7-4.2c-0.2-0.3-0.3-0.7-0.9-0.6c0,3.5,0,7.1,0,10.7c-1.3,0-2.5,0-3.6,0c-0.3-0.9-0.3-21.3,0-22.5
		c0.5,0,1-0.1,1.5-0.1c2.1,0,4.3,0,6.4,0.1c2.2,0.1,4,1.2,5.1,3.2c1.8,3.3-0.1,7.4-3.9,8C66.2,222.9,65.9,222.9,65.4,223z
		 M60.8,221.8c1,0,1.9,0.1,2.7,0c2.2-0.3,3.6-1.7,3.9-3.9c0.2-1.8-0.8-3.9-2.4-4.5c-1.4-0.6-2.8-0.4-4.2-0.4
		C60.8,216,60.8,218.8,60.8,221.8z"/>
	<path d="M170.7,227.1c0-5.2,0-10.3,0-15.6c0.7,0,1.2,0,1.8,0c0.3,0.9,0.3,21.1,0,22.5c-0.7,0-1.4,0.1-2,0c-0.4-0.1-0.7-0.5-1-0.8
		c-2.1-3.1-4.1-6.2-6.2-9.4c-1.5-2.3-3-4.5-4.5-6.8c-0.1-0.2-0.3-0.4-0.5-0.6c-0.4,0.5-0.2,0.9-0.2,1.3c0,5,0,9.9,0,14.9
		c0,0.4,0,0.9,0,1.4c-0.7,0-1.2,0-1.7,0c-0.3-0.8-0.4-20.3-0.1-22.4c1-0.3,2.1-0.1,3.1-0.1c0.3,0,0.6,0.5,0.8,0.8
		c2.5,3.8,5,7.5,7.5,11.3c0.6,1,1.3,1.9,1.9,2.9c0.2,0.3,0.4,0.5,0.7,0.7C170.5,227.2,170.6,227.2,170.7,227.1z"/>
	<path d="M370.1,216.6c0,5.8,0,11.5,0,17.4c-0.7,0-1.2,0-1.7,0c-0.2-0.9-0.3-21,0-22.5c1,0,2-0.1,3,0c0.3,0,0.6,0.4,0.9,0.8
		c1.5,2.3,3,4.6,4.5,6.9c1.6,2.4,3.2,4.9,4.8,7.3c0.2,0.3,0.4,0.5,0.7,0.8c0.5-0.5,0.4-1,0.4-1.4c0-4.3,0-8.7,0-13
		c0-0.4,0-0.9,0-1.4c0.7,0,1.2,0,1.7,0c0.3,0.8,0.4,20.9,0.1,22.4c-0.1,0-0.1,0.1-0.2,0.1c-2.2,0.2-2.2,0.2-3.4-1.6
		c-3.3-5-6.5-9.9-9.8-14.9c-0.2-0.3-0.5-0.7-0.7-1C370.3,216.6,370.2,216.6,370.1,216.6z"/>
	<path d="M410.1,231.1c0-2.9,0-5.7,0-8.6c1.2,0,2.3,0,3.3,0c0,0.3,0.1,0.5,0.1,0.7c0,2.5,0,5.1,0,7.6c0,0.5-0.1,0.9-0.6,1.1
		c-2.8,1.2-5.7,1.9-8.7,1.8c-4.1-0.2-7.4-2.8-8.7-6.9c-1.1-3.5-1-7.1,0.3-10.5c1.4-3.9,4.7-6,9.1-6.1c3.5-0.1,6.2,1.2,8.1,4.2
		c0.1,0.1,0.1,0.2,0.2,0.3c0,0,0,0.1,0,0.3c-0.9,0.4-1.9,0.8-2.9,1.2c-0.2-0.3-0.4-0.6-0.5-0.9c-0.5-0.6-0.8-1.3-1.4-1.9
		c-1.9-1.9-4.6-2-6.6-0.3c-1.2,1-1.8,2.3-2.2,3.7c-0.8,2.7-0.8,5.3-0.3,8c0.1,0.7,0.4,1.4,0.6,2c1.2,2.6,3.1,4.3,6.1,4.5
		C407.3,231.4,408.6,231.3,410.1,231.1z"/>
	<path d="M125.8,234.1c-0.5,0-1,0-1.5,0c-0.2,0-0.4-0.1-0.7-0.1c2.5-7.5,5-15,7.5-22.5c1.3,0,2.5,0,3.9,0c2.7,7.4,5.5,14.9,8.3,22.5
		c-1.4,0-2.6,0-3.9,0c-0.8-2.3-1.7-4.6-2.6-6.9c-0.3,0-0.6-0.1-0.9-0.1c-2.2,0-4.4,0-6.6,0c-1,0-1,0-1.3,0.9
		c-0.5,1.6-1.1,3.2-1.6,4.8C126.2,233.2,126,233.6,125.8,234.1z M136,225.1c-1.3-3.4-2.3-6.6-3.7-10c-1.6,4-3.1,8.9-3.1,10
		C131.3,225.1,133.5,225.1,136,225.1z"/>
	<path d="M343.7,211.5c1.3,0,2.5,0,3.9,0c2.7,7.4,5.5,14.9,8.3,22.5c-1.4,0-2.6,0-3.9,0c-0.1-0.4-0.3-0.8-0.5-1.2
		c-0.6-1.7-1.3-3.4-1.9-5.1c-0.2-0.5-0.5-0.8-1.1-0.8c-2.3,0-4.5,0-6.8,0c-0.7,0-1,0.3-1.2,0.9c-0.5,1.6-1.1,3.2-1.6,4.8
		c-0.1,0.4-0.3,0.8-0.5,1.3c-0.7,0-1.5,0-2.3,0C338.7,226.5,341.2,219,343.7,211.5z M345.1,215.3c-0.1,0-0.2,0-0.2,0
		c-1.1,3.2-2.2,6.5-3.2,9.7c1.5,0.3,6,0.2,7-0.1C347.4,221.7,346.2,218.5,345.1,215.3z"/>
	<path d="M37.3,234.1c-0.6-1.5-1.1-3-1.6-4.4c-0.3-0.8-0.7-1.7-1-2.5c-0.9-0.1-1.9-0.1-2.8-0.2c-1.5,0-3,0-4.4,0
		c-1.2,0-1.2,0-1.6,1.1c-0.6,1.7-1.1,3.3-1.7,5c-0.1,0.3-0.2,0.6-0.4,0.9c-0.7,0-1.4,0-2.3,0c2.5-7.6,5-15,7.5-22.5
		c1.3,0,2.6,0,3.9,0c2.7,7.4,5.5,14.9,8.2,22.4C39.9,234.2,38.6,234.1,37.3,234.1z M33.9,225.1c-0.4-1.7-3.1-9-3.7-9.8
		c-1,3.3-2.2,6.4-3.2,9.8C29.4,225.1,31.6,225.1,33.9,225.1z"/>
	<path d="M247.2,211.5c1.4,0,2.7,0,4,0c0.3,0,0.7,0.4,0.9,0.7c1.1,1.9,2.2,3.7,3.3,5.6c0.2,0.3,0.4,0.6,0.7,1c0.7-1,1.3-1.9,1.8-2.8
		c0.8-1.2,1.7-2.4,2.4-3.7c0.4-0.7,1-1.1,1.8-0.9c0.3,0,0.6,0,1.2,0c-1,1.8-2.1,3.2-3,4.8c-1,1.5-2,3.1-3.1,4.7
		c2.5,4.3,5.1,8.6,7.7,13.1c-1.5,0-2.8,0.1-4.1,0c-0.3,0-0.6-0.5-0.8-0.8c-1.5-2.5-2.9-4.9-4.4-7.4c-0.2-0.4-0.5-0.7-0.8-1.2
		c-0.5,0.7-0.9,1.4-1.3,2c-1.4,2.2-2.9,4.3-4.2,6.5c-0.5,0.8-1.1,1.2-2,1c-0.3,0-0.6-0.1-1.1-0.1c0.3-0.5,0.5-0.9,0.8-1.2
		c2-3.1,4-6.2,6.1-9.2c0.5-0.7,0.5-1.2,0-2c-1.8-2.9-3.5-5.9-5.2-8.8C247.7,212.4,247.5,212.1,247.2,211.5z"/>
	<path d="M293.8,215.8c-1,0.4-2,0.8-3.1,1.3c-0.2-0.4-0.4-0.7-0.6-1c-0.7-0.8-1.3-1.7-2.1-2.4c-1.6-1.3-3.6-1.2-5.2,0
		c-1.3,0.9-2.1,2.2-2.6,3.6c-1.4,3.6-1.4,7.3,0,10.9c0.6,1.5,1.4,2.8,2.7,3.7c1.6,1.2,3.5,1.3,5.1,0c0.8-0.6,1.4-1.5,2-2.3
		c0.3-0.3,0.5-0.8,0.7-1.3c1.1,0.4,2.1,0.9,3.2,1.3c-1.2,2.1-2.8,3.5-4.9,4.2c-5.1,1.6-9.7,0.1-12.3-4.9c-2.1-4-2.1-8.2-0.4-12.4
		c2.9-6.8,11.2-7,14.9-4.1C292.2,213.6,293.2,214.5,293.8,215.8z"/>
	<path d="M225.4,213.4c0,2.8,0,5.3,0,8c2.7,0,5.3,0,8,0c0,0.6,0,1.2,0,1.8c-2.6,0.2-5.2,0-8,0.1c-0.1,2.9,0,5.8,0,8.8
		c2.9,0,5.7,0,8.6,0c0,0.7,0,1.3,0,1.9c-4.1,0-8.2,0-12.3,0c0-7.5,0-14.9,0-22.4c1-0.3,10.8-0.3,12,0c0,0.5,0,1.1,0,1.7
		C230.8,213.4,228.2,213.4,225.4,213.4z"/>
	<path d="M429.9,211.5c3.9,0,7.8,0,11.8,0c0,0.6,0,1.1,0,1.8c-2.7,0-5.4,0-8,0c-0.3,1-0.4,5.9-0.1,8c1.3,0.2,2.6,0.1,4,0.1
		c1.3,0,2.6,0,4,0c0,0.7,0,1.2,0,1.9c-2.6,0.1-5.3,0-8,0.1c0,3,0,5.8,0,8.8c2.8,0,5.6,0,8.4,0c0,0.7,0,1.2,0,1.9
		c-4.1,0-8.1,0-12.1,0C429.7,233.1,429.6,212.8,429.9,211.5z"/>
	<path d="M192.2,234.1c-0.9,0-1.7,0-2.5,0c-0.3,0-0.6,0-1-0.1c-0.3-0.9-0.3-21-0.1-22.4c0.2,0,0.4-0.1,0.7-0.1c0.9,0,1.9,0,2.8,0
		C192.4,212.5,192.4,232.5,192.2,234.1z"/>
</g>
<path class="st0" d="M113.2,213.1c0-3,0-5.8,0-8.8c1.5,0,2.9-0.2,4.2,0.4c1.5,0.6,2.6,2.7,2.4,4.5c-0.3,2.2-1.7,3.7-3.9,3.9
	C115.1,213.1,114.3,213.1,113.2,213.1z"/>
<path class="st0" d="M188.4,216.4c-2.5,0-4.7,0-6.9,0c0-1,1.6-5.9,3.1-10C186.1,209.8,187.1,213,188.4,216.4z"/>
<path class="st0" d="M86.3,216.4c-2.3,0-4.5,0-6.9,0c0.9-3.4,2.1-6.5,3.2-9.8C83.2,207.4,86,214.7,86.3,216.4z"/>
</svg>
