<svg id="Layer_1" data-name="Layer 1" xmlns="http://www.w3.org/2000/svg" viewBox="0 0 600 600"><path d="M199,174.92v15.7c-6,5-19.52,8-29.61,8s-38-6.28-38-35.79S157.91,127,168.63,127s28.92,6.36,28.92,6.36v13.81a1.19,1.19,0,1,1-2.38,0c-.15-2.35-6.5-16.47-22.35-16.16-17.12.35-28.69,13.67-28.69,31.23s11.24,32.65,28.22,32.17c5.51-.15,11.25-1.88,14-4.17l.06-15.29c0-4.38-2.69-5.95-5.38-5.95a1.26,1.26,0,1,1,0-2.51h23s1.73,2.65,0,2.5c-2.66,0-5.35,1.57-5.35,6ZM353.8,147c0,1.86-1.73,1.71-1.73.14-.17-2.36-6.47-17-22.24-16.63-17,.34-28.54,14.13-28.54,31.7s11,33.11,27.91,32.64,24.91-17.1,25.54-19.3,1.73-1.88,1.92-.15v12.87c-7.11,5-20.21,10.35-30.29,10.35s-38-6.28-38-35.78,26.48-36.58,37.2-36.58,21.6,2.67,28.29,7.06V147Zm113-19c2.54,0,2.54,2.35,0,2.35-2.72,0-5.42,1.56-5.42,5.94v52.11c0,4.37,2.7,5.94,5.42,5.94,2.54,0,2.54,3.13,0,3.13H443.36c-2.54,0-2.54-3.13,0-3.13,2.71,0,5.41-1.57,5.41-5.94V136.31c0-4.39-2.7-5.94-5.41-5.94-2.54,0-2.54-2.35,0-2.35Zm-184.3,0c2.52,0,2.52,2.35,0,2.35s-5.35,1.57-5.35,6l-.31,34.29c0,16.42-13.36,28.5-29.86,28.5s-29.37-12.08-29.37-28.5V136.33c0-4.4-2.69-6-5.36-6-2.52,0-2.52-2.35,0-2.35h23.3c2.53,0,2.53,2.35,0,2.35-2.7,0-5.38,1.57-5.38,6l0,38.3a21.13,21.13,0,0,0,21.22,21c11.67,0,21.14-11.75,21.14-23.32l-.57-35.95c0-4.4-2.68-6-5.38-6-2.52,0-2.52-2.35,0-2.35ZM304,281.75a102.07,102.07,0,0,1,45.12-10.45c56.15,0,101.66,45.34,101.65,101.23S405.18,473.74,349,473.73a102.23,102.23,0,0,1-45-10.49c-50.34,24.75-111.3,4.18-136.16-45.93A101.53,101.53,0,0,1,304,281.75Zm20.63,13a100,100,0,0,1,32.52,50.45H335.87S318.75,314.54,304,304.8c-14.76,9.74-31.86,40.89-31.86,40.89H251s16.84-37.6,32.6-50.75a83,83,0,0,0-24.75-3.68c-45.06.05-81.56,36.45-81.51,81.31S214,453.76,259,453.71a81.61,81.61,0,0,0,24.28-3.7,100.65,100.65,0,0,1-35.6-69.58h48.46V400.8H272.57A81.58,81.58,0,0,0,304,440.22a82,82,0,0,0,31.38-39H312V380.43h48.41a100.68,100.68,0,0,1-36,69.32c43,13.62,88.9-10,102.58-52.81A81.56,81.56,0,0,0,324.58,294.78ZM430.89,147c0,1.86-1.73,1.71-1.73.14-.15-2.36-6.46-17-22.23-16.63-17,.34-28.54,14.13-28.54,31.7s11,33.11,27.9,32.64,24.91-17.1,25.55-19.3,1.74-1.88,1.58-.15v12.87c-6.78,5-19.86,10.35-30,10.35s-38-6.28-38-35.78,26.49-36.58,37.22-36.58,21.6,2.67,27.94,7.06V147Z"/></svg>