<svg id="Layer_1" data-name="Layer 1" xmlns="http://www.w3.org/2000/svg" viewBox="0 0 600 600"><path d="M95.77,248.92c0,.44-1.12.84-3.25,1.12-11.59,1.56-21,5.82-28.34,12.82C53.6,273.05,48,286.66,48,302.17a50.7,50.7,0,0,0,5.6,23.91c7.17,13.72,21.56,23.3,38.64,25.76,4.93.73,16.13.51,21.84-.44,8.79-1.46,21.34-6,24.53-9.08,1.23-1.17,1.23-1.28,1.23-17.58,0-17.64.22-19.43,2.91-21.28a6.56,6.56,0,0,1,3.25-.9c3.08,0,4-.95,3.81-3.92l-.17-2.52L130.1,296c-11.26-.06-19.83.11-20.11.39a5.65,5.65,0,0,0-.56,2.57c-.05,2.64,1.18,3.64,4.59,3.64,3.64,0,6.33,1.52,7.17,3.92.73,2.08,1.07,29.35.39,31.08-.84,2.19-11.53,5.32-18.14,5.32-4.14,0-12-1.68-13.1-2.8a2.1,2.1,0,0,0-1.24-.56,17.37,17.37,0,0,1-4-2.18c-7.51-5-12.77-12.94-14.95-22.57-.84-3.53-1-6.16-.79-15.12.28-12.09.9-15.57,4.31-22.85C76.17,271.54,82.78,265,88.88,262A42.21,42.21,0,0,1,102,258.88a33.18,33.18,0,0,1,13.66,3.48c3.48,1.84,9.19,7.16,10.81,10.19.39.73,1.74,3.3,3,5.65a20.69,20.69,0,0,0,3.36,5.1c1.68,1.18,4.7,1,5.21-.28.22-.62.22-7.95-.06-16.35-.33-12.32-.56-15.46-1.23-16.19a3.3,3.3,0,0,1-.84-1.56c0-.4-.84-.68-2-.68s-2,.28-2,.68a8.15,8.15,0,0,1-2,2.8c-1.62,1.79-2.24,2.12-4.26,2.12a23.16,23.16,0,0,1-5.2-.84,76.86,76.86,0,0,0-12.94-2.91c-2.63-.28-3.86-.67-3.75-1.17s-1-.68-4.09-.68-4.14.17-4,.68Zm319.31-.64c.39.62-2,1.68-3.7,1.68s-8,3.31-10.41,5.49a28.66,28.66,0,0,0-9.13,20.27A34.75,34.75,0,0,0,395,287.49c2.07,4.08,9.07,10.08,19,16.18,20.1,12.38,24.36,16.58,24.36,24,0,5.83-2.13,9.75-6.61,12.49-9.24,5.6-22.73,1.23-30.35-9.85a80.22,80.22,0,0,1-4.26-7.84l-2.57-5.32h-3c-3.3,0-3.64.33-3.25,3.36.45,4.25,1.91,14.44,2.52,17.64.34,1.84.79,5.37,1,7.78.45,5,1.29,6.1,4.48,5.82,1.46-.11,2.24-.61,3.25-2.13a10.94,10.94,0,0,1,2.07-2.4c.45-.23,3,.33,6,1.28,7.45,2.47,10.59,3,17.25,3,10.53.05,17.81-2.69,24-9.07,5.49-5.55,7.9-11.32,7.9-19,0-13.05-5.43-19.49-28.67-33.77-13.44-8.28-16.41-10.8-18.43-15.51-4.36-10.19,6.33-18.87,18.2-14.73,8.57,3,14.28,9.13,17.25,18.43,1.51,4.65,2.35,5.65,4.76,5.65,2.07,0,4.37-1.84,3.87-3.13-.17-.45-.84-6.05-1.46-12.43s-1.4-13.39-1.68-15.52-.5-4.08-.56-4.36-1.4-.4-3.08-.4c-2.86,0-3.08.12-3.08,1.35,0,1.85-2.07,4.25-3.64,4.25a31.17,31.17,0,0,1-6-1.62,51.76,51.76,0,0,0-6.78-2c-1.17-.22-2.29-.78-2.46-1.23-.23-.62-1.46-.79-5.32-.79-3.19,0-4.87.23-4.65.56Zm93.8.39c0,.5-.78.89-2.07,1.12-13.95,2.35-24,18.59-20,32.14,1.28,4.48,2.91,7.17,6.55,11,3.25,3.53,5.15,4.93,14.73,10.87,17.08,10.58,21.95,14.67,23.4,19.6,1.07,3.53,1.12,5.15.28,9-1.06,4.88-6.55,9.47-12.26,10.2s-13.1-1.52-18.09-5.38c-3.25-2.52-7.39-8.34-10.3-14.5l-2.69-5.55-3.08.17-3.08.17.17,3.64a57.58,57.58,0,0,0,1,7.45,38.31,38.31,0,0,1,.78,6.16,20.7,20.7,0,0,0,.56,4.31,48.92,48.92,0,0,1,1.06,6.55c.28,2.58.79,5,1.18,5.49A4.2,4.2,0,0,0,490,352c1.91,0,2.3-.23,3.31-2,2-3.25,2.57-3.36,9-1.23,3.19,1.06,6.89,2.12,8.29,2.4,3.58.62,13.78.51,17.25-.22a32.32,32.32,0,0,0,14.84-8.12c3.53-3.53,7.11-9.35,7.11-11.59,0-1.57,1.06-3.47,1.74-3.08.28.22.5-1.57.5-4.43,0-3.47-.17-4.76-.67-4.64s-1-1.07-1.4-2.69c-2.13-8.4-8.29-14.56-24.25-24.36S506.14,279.52,504.06,275c-2.91-6.16-.78-12,5.49-15.18,4.59-2.35,11.09-1.51,17.53,2.19,6.1,3.52,10.58,9.8,12.6,17.64a7.28,7.28,0,0,0,1.46,3c1.12,1.24,4,1.4,5.54.34,1-.73,1-1.18.34-8-.34-4-.9-9.13-1.18-11.42s-.67-6-.84-8.12c-.67-7.79-.56-7.56-4-7.56-2.68,0-3,.11-3,1.17a7.53,7.53,0,0,1-1,2.8c-1.23,2.08-2.63,2.08-8.68,0a53.4,53.4,0,0,0-6.78-2c-1.17-.22-2.29-.78-2.46-1.23-.45-1.17-10.25-1.17-10.25.06Zm-344.85,3c-1.06,1.06-.84,4.26.34,4.82a24.81,24.81,0,0,0,4.59,1.23c4.54.84,5.32,1.29,6.55,3.53.9,1.62,1.07,4.64,1.35,32.59.33,32.14.28,31.47,2.85,38.36a36.64,36.64,0,0,0,6.95,10.41c6.44,6.44,16.91,9.58,30.18,9,9-.39,11.76-.9,16.8-2.91,9.69-3.87,15.46-10.47,18.31-20.89,1.12-4,1.23-6.38,1.63-33.15.22-15.85.61-29.68.84-30.69.61-3.08,3.36-5.32,7.5-6.22a31.6,31.6,0,0,0,4.65-1.28c1.12-.56,1.34-3.76.28-4.82s-35.23-.95-36.18,0-.84,4.09.06,4.76a14,14,0,0,0,4.14,1.29c5.21,1.06,7.28,3.08,8,7.84.9,5.77.73,50.17-.22,56.45-.79,5.09-2.52,9.68-4.71,12.15a27.34,27.34,0,0,1-7.11,5.26c-4.93,2.19-13.1,2.86-19,1.51-4.93-1.12-7.34-2.35-10.08-5.09s-3.81-4.87-5.38-10.59c-1-3.58-1.06-6.27-1.06-33,0-27.38.06-29.28,1.06-31.13,1.12-2.19,3.48-3.25,8.29-3.75,3.53-.4,4.2-1.07,4-3.92l-.17-2.13-21.84-.17c-16.58-.11-22.06.06-22.57.56Zm117.63,0a6.13,6.13,0,0,0-.39,2.71c0,2.65-.44,2.37,5.7,3.53a13.2,13.2,0,0,1,4.71,1.93l1.49,1.27v39.16c0,38.6,0,39.1-1.1,40.22s-3.33,1.73-9.31,3.07c-1.49.27-1.55.44-1.38,2.95l.17,2.62,39,.17c21.48.06,39.58,0,40.25-.17a2.21,2.21,0,0,0,1.6-1.84c.17-.83.67-2.62,1.06-4,1-3.41,2.21-7.92,3.32-12.28.5-2,1.16-4.18,1.44-4.9a9.06,9.06,0,0,0,.49-2.68c0-1.34-.05-1.4-3.7-1.23l-3.77.17-2.21,4.18c-2.61,5-6.87,9.49-10.25,11-4.2,1.84-11.57,2.68-23.3,2.68-10,0-11-.11-12.07-1.06s-1.17-1.4-1.06-18.41l.17-17.35h12.71s17.92,0,20.38,8.62c1.18,4,1.46,4.42,3,4.87a6.57,6.57,0,0,0,3.13.11l1.81-.33V298.34L353.38,280l-1.93-.17c-3.68-.34-4.48.17-5.16,3.51-.9,4.31-2.83,7.83-4.82,8.85-1.3.62-4.7.91-14.46,1.13-7,.17-13.21.06-13.78-.17-.9-.39-1-1.64-.85-16.73l.17-15.94h15.23c19.32,0,21,.38,23.64,5.52a36.63,36.63,0,0,1,2.16,5.63l.94,3.48h3.26c2.16,0,3.21-.22,3.27-.71.33-3.1-.28-21.82-.72-22.38s-9-.66-39.47-.66c-21.38,0-39,.17-39.2.39Z"/></svg>