<svg id="Layer_1" data-name="Layer 1" xmlns="http://www.w3.org/2000/svg" viewBox="0 0 600 600"><defs><style>.cls-1{fill-rule:evenodd;}</style></defs><path class="cls-1" d="M459.69,233.72a5,5,0,0,0,4.87.72c3.52-1.41,3.58-6.44,7.33-7.44a14.87,14.87,0,0,1,4.05-.29,8.54,8.54,0,0,0,2.52-.2,4.35,4.35,0,0,0,3.12-2.76,6.07,6.07,0,0,0-.84-4.82,21.44,21.44,0,0,1-1.7-3.67,5.66,5.66,0,0,1,.43-3.88c.79-1.55,2.24-3.8,2.18-5.79a4.75,4.75,0,0,0-4.86-4.45c-1.24,0-2.49,0-3.74,0-2.45-.05-4.29-2-5.36-4-1-1.86-2.51-3.87-4.72-4.19-2.86-.4-5.09,2-6.11,4.41a6.11,6.11,0,0,1-5.53,3.71c-1.21-.06-2.43-.07-3.65,0a4.48,4.48,0,0,0-4.32,4.72,9,9,0,0,0,.83,2.64c1.18,2.27,2.87,5.2,1.54,7.8-1.21,2.27-2.87,4.91-1.93,7.58a5.14,5.14,0,0,0,4.83,2.81,26.83,26.83,0,0,1,2.69,0,6.54,6.54,0,0,1,4.15,1.43c1.68,1.76,2.35,4.17,4.22,5.77Zm-21.27-19.8a24.28,24.28,0,1,1,24.27,24.27A24.28,24.28,0,0,1,438.42,213.92ZM139,294.87v-72.8h7.8l32,39.6,32-38.18H219v71.38H199V270.34l-19.53,20.77-19-21.27v25Zm168.44,0H326V262.92l36.26,31.95h6.56V223.49H350.3v31.09l-35.48-31.09h-7.35v71.38ZM376,242.05V224.92h55.67v17.13H414.53v54.24h-20V242.05ZM306.05,380.51h20V348.8l35.86,33.14h5.54V310.57H348.87v29.66l-35.48-31.09h-7.34v71.37ZM157.59,350.05v14.76l10-.05s6.75-.95,6.75-7.45c0-7.52-8.5-7.41-8.5-7.41l-8.26.15ZM159,321.69l0,14.57,9.46.15s6.9.75,6.9-7-6.9-7.51-6.9-7.51l-9.51-.2Zm-20-12.55H175s16.1.5,16.1,17.35c0,14.13-9.16,16.6-9.16,16.6s11,2.56,11,16.46c0,20.32-20.62,21-20.62,21H139V309.14Zm58.68,0h19.83v55.67h15.71v17.13H197.56ZM236.28,382l29.21-72.85h9.22l29.11,72.8-21.24-.05-12.33-31.22-13.73,31.27Zm191.83-56.76,1.75-16s-23.2-4-34,2.51c-7.5,4.5-21.39,10.95-21.11,35C375,369,395.58,378,395.58,378s9.26,7.11,35,3.1c.49-.07,0-15.61,0-15.61s-13,1.75-19.57-.2c-4-1.18-17-6-17-21s15.57-19.12,15.57-19.12c6.51-2.76,18.52,0,18.52,0ZM244.43,258.91c0,10.64,8.18,19.27,18.26,19.27S281,269.55,281,258.91s-8.18-19.27-18.27-19.27S244.43,248.27,244.43,258.91Zm-17.52-.12c0-21.08,16-38.17,35.66-38.17s35.66,17.09,35.66,38.17S282.26,297,262.57,297,226.91,279.87,226.91,258.79Z"/></svg>