<svg id="Layer_1" data-name="Layer 1" xmlns="http://www.w3.org/2000/svg" viewBox="0 0 600 600"><path d="M144.05,338.48a4.58,4.58,0,1,1,0-9.15,4.58,4.58,0,1,1,0,9.15Zm0-11a6.41,6.41,0,1,0,6.65,6.42,6.34,6.34,0,0,0-6.65-6.42Z"/><polygon points="208.79 305.01 176.38 305.01 180.06 248.67 159.01 305.01 128.91 305.01 176.67 177.67 208.7 177.67 205 234.78 226.45 177.67 256.55 177.67 208.79 305.01 208.79 305.01"/><polygon points="212.65 305.01 260.4 177.67 290.5 177.67 242.75 305.01 212.65 305.01 212.65 305.01"/><path d="M125.51,261.19c-42,49.35-81.66,115-46.65,145.25,33.92,29.3,76.33,11.95,105.25.38S532.62,256.47,532.62,256.47c3.08-1.54,2.51-3.47-1.35-2.51-1.56.39-347.93,94.26-347.93,94.26-44,12.34-94.07-14.55-57.83-87Z"/><path d="M143.79,333.23h-.9v-1.44h.76c.47,0,1,0,1,.66s-.31.78-.86.78Zm1.5,1a1.59,1.59,0,0,0,1.65-1.81c0-1.65-1.08-2.07-2.89-2.07h-2.6v6.87h1.81v-2.89h.3l1.65,2.89h1.84l-1.76-3Z"/><path d="M446.33,188.42a4.58,4.58,0,1,1,4.64-4.57,4.53,4.53,0,0,1-4.64,4.57Zm0-11a6.42,6.42,0,1,0,6.66,6.42,6.35,6.35,0,0,0-6.66-6.42Z"/><path d="M446.24,183.09h-.9v-1.44h.76c.46,0,1,0,1,.66s-.31.78-.86.78Zm1.13,1.36a1.6,1.6,0,0,0,1.66-1.81c0-1.66-1.08-2.08-2.9-2.08h-2.6v6.88h1.81v-2.9h.31l1.65,2.9h1.84l-1.77-3Z"/><path d="M329.59,296.56l-1.92-66.31,45.46-49.91L329.59,296.56ZM426.49,199l8.14-21.34H342.88l-31.54,38.2,14.56-38.2H295.41L248,305h30.31l20.15-53,1.38,53,92-.2,8.75-24.4H365.75l11.49-30.75h28.9l9-23.88H386.16l9.9-26.77Z"/></svg>