<svg id="Layer_1" data-name="Layer 1" xmlns="http://www.w3.org/2000/svg" viewBox="0 0 600 600"><defs><style>.cls-1{fill-rule:evenodd;}</style></defs><path class="cls-1" d="M379.1,424.72c-21,19.13-39,29.44-77.06,49.42a368.66,368.66,0,0,1-78.54-47.67c-27.69-21.58-47.57-56.64-49.3-78.13L160.39,143.73c93.58-24.36,193.12-23.81,279.22,1.63l-14,202.54c-1.79,18.34-18.17,54-46.5,76.82Zm30.47-83.53,12.64-180.86c-74.1-23.63-162.86-24-244.65-2.49l12.91,183.23c1.35,19.05,15.05,48.17,41.3,70.49,15.81,13.43,46.77,36,69.63,44.63a351,351,0,0,0,69.29-46.32c23.54-21.48,37.44-48.17,38.88-68.68Zm-41.92,63.9c-18.2,15.72-42.7,33.33-66.25,44.57-21-6.51-52.1-30.52-67.06-43.43-26.08-22.55-36.68-46.15-38.29-68.47l-12.68-174.9c77.87-20.48,162.87-20.48,233.49,2L404.34,337.47c-1.82,23-12.48,44.89-36.69,67.62ZM189.19,166.26l2.52,30.14c74.33-18.61,152.2-16.74,216.84,2.83l2.78-30.67C344.35,148,263,146.89,189.19,166.26Zm184.86,11.18-16.77-2.77-.64,7.89-5.46-.82,1.28-20.92,5.58.82-.58,8,17,2.75.55-8,5.7,1.08-1.72,21-5.55-1,.61-8Zm-81.49-6.72c-2.1,0-3.77-.57-4.88-2.42-.95-1.53-.95-6.49,0-8.13a4.86,4.86,0,0,1,4.49-2.45l24.33,0v5H294.1c-1.11.06.09,2,.09,2h18.35a4.84,4.84,0,0,1,4.57,2.93,16,16,0,0,1,0,7.48c-.51,1.67-2.41,2.59-4.78,2.59H288.5v-5h20.61a1.12,1.12,0,0,0,1.13-1.24c-.05-.61-1.13-.76-1.13-.76Zm-13.06,1.62a1.91,1.91,0,0,0-1.95-1.88h0l-15.36,1.11.32,7.62-5,.51-1.05-20.1,22.86-1.71a4.37,4.37,0,0,1,4.83,3.84c.17,2.19.25,5-1.45,6.17,1.42,1,1.79,2.62,1.82,4.81v5.39l-6,.21,1-5.87ZM276,165.73c2-.11,1.84-3.24,0-3.06l-15,1.14.17,2.86ZM226.84,163a169.71,169.71,0,0,1,19.87-3.1c2.36-.17,4.2,1.06,4.52,2.9a51.53,51.53,0,0,1,.71,14.49,4.16,4.16,0,0,1-3.54,3.44,170.55,170.55,0,0,1-19.6,2.78,4,4,0,0,1-4-2.72,55.78,55.78,0,0,1-1-14.31,4.22,4.22,0,0,1,3.06-3.48Zm18.77,12.58a1.54,1.54,0,0,0,1-1.4,28.22,28.22,0,0,0-.35-7.22c-.12-.55-.59-.9-1.64-.82a134.49,134.49,0,0,0-14.16,2.08,1.63,1.63,0,0,0-1.44,1.34,38.32,38.32,0,0,0,.59,7.25,1.24,1.24,0,0,0,1.23.82,125.67,125.67,0,0,0,14.75-2.05Zm82.82-11.71a1.81,1.81,0,0,0-1.95,1.23,46.39,46.39,0,0,0-.36,6.83c0,.38.65,1.43,1.2,1.52,5,.7,14.78,1.58,20.1,1.93l-.32,5.4c-7-.32-14.29-1.43-21.85-2-2.48-.18-4.29-1.52-4.38-3.92a68.37,68.37,0,0,1,.79-13.37c.46-2.14,2.51-3.24,4.82-3.19a210.65,210.65,0,0,1,21.67,2.11l-.35,5.37c-4.44-.38-12.85-1.7-19.37-2Zm-114.29,1.57c7.06-1.67,8.14,10.89,2.24,12.35l-16.47,4.12.79,8.12-5.17,1.38-1.84-21.15,20.45-4.82Zm-.09,8.23c1.69-.38,1.46-3.42-.35-3l-14.87,3.59.35,3.13Zm174.8,6.91-.36,3.39,16.33,4.12-.44,4.73-21.9-5.17,1.9-21.29,22.05,5.35-.5,5-16.41-4-.32,3.59,16.3,4-.41,4.21-16.24-3.89Zm-158,60.61a35.58,35.58,0,0,0-5.37,11.68,4.45,4.45,0,0,0-.12,2.72c2.16-1,5-1.9,6.6-2.42.65-1.43,1-3.07,1.55-4.38a25.43,25.43,0,0,1,2.34-4.36c2.6-4,8.09-8,12.15-7.91a36.43,36.43,0,0,0-5.26,5.84,29.76,29.76,0,0,0-2.39,4.67,14.58,14.58,0,0,0-.88,3.74,29.47,29.47,0,0,1,5.52-1.14c.91-.49,1.2-1.46,1.69-2.36,1.55-2.9,4.59-6.14,6.52-7.19,1.54-.85,3.82-1.66,5.46-1.14a21.67,21.67,0,0,0-4.41,4.68c-.85,1.34-2.22,3.94-2.16,5.17a17.48,17.48,0,0,0,4.29-.21l-.09-3.85,42.22,0,0-57.33c-32.6,0-68.32,3.09-106.2,13.68l7.82,107.68H255.5V287.57c-1.53-1.7-12.1-2.93-18.61-.38-1.58.61-6.72,2.83-9.06,4.67l-6.57,5.2c-.64.52-.7,1.66-.7,2.54,0,1.93-2.25,3.39-3.5,3a7,7,0,0,0-3.71-.26c-1.38.29-2.6-1.44-2.72-2.43-.17-1.23.79-2.83.85-3.36a4,4,0,0,1,1.54-3.65,2.87,2.87,0,0,1,2.78-.06,1.09,1.09,0,0,0,.79.12,9.24,9.24,0,0,0,1.28-1c.09-1.17-.08-3,0-4a25,25,0,0,1,1-5.06,29,29,0,0,1,2.51-5.46c1.52-2.48,4.52-4.88,6.78-4.67a19.21,19.21,0,0,0-1.82,3,36,36,0,0,0-2.83,8.26,15.51,15.51,0,0,0-.44,4.47,44.77,44.77,0,0,1,4.74-3,31.51,31.51,0,0,1,2.91-8.33c1.47-2.77,5.41-5.78,8-5.55a23,23,0,0,0-4.79,8.62,6.65,6.65,0,0,0-.44,2.6,12.93,12.93,0,0,1,3.92-1.14,31.52,31.52,0,0,1,2.25-4.68c2.27-3.5,5.87-5.63,7.91-5.55a24.34,24.34,0,0,0-4,7,8.09,8.09,0,0,0-.44,2.19,30.12,30.12,0,0,1,4-.2c1.46-1.31,2.51-2.89,4.27-4.24a17.9,17.9,0,0,1,5.06-2.8V255.64c-.24-.38-4.89-.73-7.2-.44-6.13.73-21.46,5.55-28,10a20.63,20.63,0,0,1-.55,3.51,4.79,4.79,0,0,1-2.28,2.25c-1.66.73-3.59-1.49-4.44-1.17a4.73,4.73,0,0,1-4.76-.35,4,4,0,0,1-1-3.8,6,6,0,0,1,1.75-2.34c.58-.58.17-2.83,2.27-4.17,1.47-.94,3.48-.18,5,.64a2.3,2.3,0,0,0,.85-.5c.2-.61.52-2.48.81-3.94a40.23,40.23,0,0,1,.94-4.06c1.17-3.53,4-8.62,6.89-11.27,2.31-2.05,5.9-3.68,8.56-3.51-.26.41-3.56,3.36-4.53,4.67Zm6.75-34.57c2.23-3.1,8.07-7.77,12.57-7.51a30.39,30.39,0,0,0-6.14,7,28.11,28.11,0,0,0-3.94,10.43,67.92,67.92,0,0,1,7-2c1.78-3.88,4.12-8.18,7-10.48,2.07-1.67,5-3.1,7.83-2.78a17.18,17.18,0,0,1-2.49,2.34,13.64,13.64,0,0,0-3.21,4.67,48.93,48.93,0,0,0-1.61,5.32,37,37,0,0,1,6.34.44c2.37-3.1,7.54-7.6,13.73-6.58-2.69,1.46-7.59,5.72-7.3,8.06,4,2.61,10.05,8.07,10.31,13.12a30.32,30.32,0,0,0-9.55-6.48,35.42,35.42,0,0,0-17.41-1.2c-11.33,2.13-21.35,7-31,12.79a11.84,11.84,0,0,1-1.78,4.68,5.17,5.17,0,0,1-2.89,1.72,6.85,6.85,0,0,1-4.12-1c-.79-.44-2.86.11-4.18-.59a3.61,3.61,0,0,1-1.93-3.85c.32-1.84,2.16-3,2.43-4.71a4.43,4.43,0,0,1,3.21-3.85,5.35,5.35,0,0,1,3.1.58,9.44,9.44,0,0,0,1.22.68c.38-.12.94-.59,1.26-.73.09-.3,1.05-5.64,1.58-8a57.17,57.17,0,0,1,2.19-6.51c2.28-6.49,9.31-13,14.95-12.68a61.69,61.69,0,0,0-4.61,4.65c-4.06,4.76-5.09,9.81-6.6,18.49,3.12-1.46,5.84-2.52,8.67-3.54a50.6,50.6,0,0,1,2.69-7.86,26.94,26.94,0,0,1,2.62-4.67Zm170.92,7.11-105,.09.09,30.91,102.57-.06,2.35-30.94Zm-92.86,159.5a4.24,4.24,0,0,1-3.3,0,3.19,3.19,0,0,1-1.84-2.78c-.09-1,.88-2.19,1.08-3.27.09-.44-.38-2.6,1.46-3.71a4.06,4.06,0,0,1,2.13-.46c.73.14,1.32.61,2.05.72a14.21,14.21,0,0,0,2.83-1.37,59.71,59.71,0,0,0,1.31-7.16,46.92,46.92,0,0,1-17.87,4.59l0,84c24.39-12.39,51.14-32.66,62.53-43.79,18.43-18,30.84-36.16,32.74-62.39l1.72-23.89-55.4-.06c0,13.55-4.53,27.69-17.47,37.91a47.6,47.6,0,0,0-1,8c1.78-.74,3.45-1.38,4.91-1.82a62,62,0,0,1,3.12-5.92,24.07,24.07,0,0,1,8.73-8.22c2.25-1.13,5-2.19,7.42-1.28-3.18,1.52-5.67,4.26-7.15,5.84a16.85,16.85,0,0,0-3.71,5.84q-.15.58-.24,1.17a79.65,79.65,0,0,1,8.24-1.43c.23,0,.85-1.34,1.31-2a28.75,28.75,0,0,1,1.87-2.33c2.4-2.6,6.46-5.38,10.4-4.77a19.13,19.13,0,0,0-6.43,7c-.26.53-.61,1.26-.46,1.58.58.12,3.47.06,5.23.26a20.71,20.71,0,0,1,6.45-2.86c2.6-.58,6-.11,7.33,1.11a10.69,10.69,0,0,0-4.49.76,6.59,6.59,0,0,0-3.07,2.13,20.06,20.06,0,0,1,5.69,3.45,19.36,19.36,0,0,1,3.31,3.51c2.13,2.89,2.57,8.09,1.42,9.64a15.64,15.64,0,0,0-1.16-2.66,17.36,17.36,0,0,0-4-4.62c-6.62-5.05-16.17-5.31-24-3.74-6.68,1.38-18.75,3.89-26.63,9.49a3.83,3.83,0,0,1-1.32,3.3c-1.19.89-2.88-.31-3.76.16Zm12.78,9.11c.88-1.35,1.93-3.3,2.46-4.15a16.87,16.87,0,0,1,6.3-6c2.49-1.2,6.49-1.9,8.27-1a13.62,13.62,0,0,0-4.82,2.33,27.4,27.4,0,0,0-4.85,4.53,14.94,14.94,0,0,0-1.52,2.78,35.37,35.37,0,0,1,6.25-.91,36.8,36.8,0,0,1,5.58-5.67c1.58-1.11,4.94-2.22,7-1.31a17.35,17.35,0,0,0-6.89,5.46,5.05,5.05,0,0,0-.61,1.23c1.08.09,3.12.29,4.23.43a38.47,38.47,0,0,1,4.53-2.24c1.78-.5,4.7-1.14,6.54.82a9.43,9.43,0,0,0-3.59.58,5.55,5.55,0,0,0-2.68,2c2.8,1.5,5.72,3,7.44,5.79.62,1,1.55,3.24,1,4.73a11.94,11.94,0,0,0-3-2.74,27,27,0,0,0-4-2.2A38.91,38.91,0,0,0,338.54,385a53.38,53.38,0,0,0-20.18,7.45,3.35,3.35,0,0,1-1.17,3.36c-1.67.85-3.27-.59-3.56-.5a4.29,4.29,0,0,1-2.75.21,2.8,2.8,0,0,1-1.2-3.16,7.47,7.47,0,0,1,1.47-2,2.71,2.71,0,0,1,2.59-3.07c.91-.09,1.55.61,2.28.76l1.49-.73c.41-1.46,1-2.95,1.43-4.18a24.55,24.55,0,0,1,2.92-5.84c1.81-2.77,5-5.4,8.85-5.46a13.52,13.52,0,0,0-2.57,2.31,28.25,28.25,0,0,0-3.1,4.7,15.12,15.12,0,0,0-1.63,5.67c1.65-.8,3.33-1.55,5-2.25Zm-.56,15.8a6.42,6.42,0,0,1,3.09-.59c-2.45,1.58-4.7,3.88-5.31,6.63-.06.29-.06.88.2,1.05a24.42,24.42,0,0,0,2.95-.79,16,16,0,0,1,1.52-2.22c1.75-2.33,4.27-4.67,7.74-3.79a9.27,9.27,0,0,0-4.59,4.26c-.17.32-.28.94-.05.94.58,0,2.8-.09,3.12-.09,1-.91,4-2.63,6-2a10.55,10.55,0,0,0-2.78,1.9,2,2,0,0,0-.52.88,23,23,0,0,1,4.91,3.21,8.81,8.81,0,0,1,2.62,4.09c-1.75-1.52-7.47-4.24-10.6-4.38a25.54,25.54,0,0,0-5.87.58A53.81,53.81,0,0,0,316,413.64a3.07,3.07,0,0,1-1.08,2.65c-.64.53-2,.79-2.57,0-.29-.41-2.19,0-2.6-.49a3.79,3.79,0,0,1-.55-1.67,2.57,2.57,0,0,1,1.11-2c.14-.18.11-1.81,1.34-2.37a2.18,2.18,0,0,1,2.16.18c.27-.15.47-.29.65-.41a19.71,19.71,0,0,1,1.19-5.55c1-2.69,4.12-6,6.84-5.84a16.34,16.34,0,0,0-3.83,7,18.47,18.47,0,0,0-.2,2.83,13,13,0,0,1,2-1c.29-.7,1.14-2.45,1.58-3.24a13.78,13.78,0,0,1,5.81-5.58ZM202.12,340.72c.36,10.18,4.51,22.48,10.22,31H297.5V359.44s-27.65-7.22-34.25-19.72l-60.78,1Zm58.38-26.54c0,54,79,54,79,.56l0-65-79,0ZM286.34,288a7.42,7.42,0,0,0,1.93-3.51c.15-.93-2.48-.87-3.44-.29a5.67,5.67,0,0,0-1.44,1.55,1.4,1.4,0,0,1-1.86.29c-.56-.52.43-1.43.4-2,0-.94-1.78.46-2.6.08a1.09,1.09,0,0,1-.2-1.6c.2-.26.79-.15,1.05-.44a2.42,2.42,0,0,0,.35-1.11c.12-.44.59-.64.88-1,1.11-1.08,3.21-2.92,3.62-2.89,1,.08,2.34.58,3.18.14.18-.09.5-.38.21-.55l-2.28-1.5a1.61,1.61,0,0,1,.52-1.25c1.06-.94,2.69-.29,4.07-.5a4.69,4.69,0,0,0,2.56-1.2c.18.7-.26,1.41-.26,2.14.88.81,1.78,1.51,2.63,2.3a14.51,14.51,0,0,1,3.77,9.38c.15,1.49.15,3,.15,5.49a14.58,14.58,0,0,0,.76-3.94c.38-4-.24-7.51-2.49-10.52a24,24,0,0,0-3.09-3.51c.12-1.16,1.11-3.15,2-2.42.62.47-.29,1.17.35,1.58a3.31,3.31,0,0,0,2.17.29,19,19,0,0,1,2.94-.61c.44,0,1.17-.24,1.32.2s-.2.5-.53.61-1,0-1.28.35-.53.56-.44.94a.81.81,0,0,0,1.05.53,22.56,22.56,0,0,1,5.41-.82c1,0,.75.7.29,1a3.33,3.33,0,0,1-1.14.35c-1.72.2-3,.32-2.81,1.31.15.68,1.23,0,1.46.53s-.46.82-.4,1.17c.17,1.11,2.3.88,3.3.64.73-.17,1.89-.76,2.24-.29a.78.78,0,0,1-.35,1.17c-1.05.29-2.86.82-3.36,1.4a1.23,1.23,0,0,0,.65,1.75,26,26,0,0,1,3.62.44.88.88,0,0,1,.7.79c0,.44-.44.58-.79.7-.67.2-1.81.2-2.42.47-.21.09-.62.23-.56.46.18.44,1,.32,1.78.41.41,0,1.2.35,1.2.79s-.41.62-1.14.56a6.74,6.74,0,0,0-2.68.26c-.15.06-1,.17-1,.59s1,.17,1.23.67-.44.73-.5,1.31c0,.24.12.35.36.44a4.24,4.24,0,0,0,2.39.15c.79-.15,1.08.9.88,1-1,.55-3.3,0-3.83.29-.73.47,1.23,1.52,1.17,1.75a.88.88,0,0,1-.47.59c-1,.38-2.28-.35-3,.06s-.35,1.34-.73,1.84-1.52.35-2,.7a1.42,1.42,0,0,0,0,2.13,6.08,6.08,0,0,0,1.69,1.17c3,1.52,6.19,3,9.14,2.83a21.79,21.79,0,0,1,5.38.18,16.38,16.38,0,0,1,4.52,2.39,3.62,3.62,0,0,0,3,.23,1.6,1.6,0,0,0,1-1.75c-.44-2.33-4.3-3.06-4.35-5.4a12,12,0,0,0-1.17-5.84c-.33-.64-.38-2.13.38-2.34s.82.7,1.31.5c2.25-.88,2.34-4.44,4.67-5.11,1.37-.38,6-.44,5.61-1a3.3,3.3,0,0,1,0-3.69c.35-.46,1.31-.93,1.7-.46s-.8,1.34-.71,2.25,1.32,2.48.38,3.36c-.55.52-4.73.7-6,2.57-.75,1.13-.84,2,.06,1.95.73-.08,1.35-1,2-1.46,1.2-.87,2.16-1.22,2.83-.58.35.32-.11.93-.76,1.11s-1.81,1.55-1.46,1.9c.53.55,3.45-2,4.18-1.46.38.29-1.43,2.16-1.11,2.65s1.61-.35,2,.12c.56.7-1,2.08-1.84,2.69-.67.43-.41,2.07-1.37,2.57s-1.58,1.46-1.46,1.61.38.4.79.14c1.2-.76,2.68-1.66,3.3-1.43.35.15-.15,1.81-.59,2.6s1.79.35,1.46,1a3.3,3.3,0,0,0-.23,2c.18.91-2.39,1.1-2.63,1.72a.6.6,0,0,0,.52.91,1.28,1.28,0,0,1,.74,2.27,4.11,4.11,0,0,1-3.45.94,12.14,12.14,0,0,1-4.82-1.67.75.75,0,0,0-1.17.35,7.52,7.52,0,0,0,.68,2.17,6.61,6.61,0,0,1-.24,3.68c-.81,2.31-3,4.23-3.62,7a4.29,4.29,0,0,0,.35,2.33,17.68,17.68,0,0,0,2.63,4.24,1.78,1.78,0,0,1,.18,1.26c-.24.58-2,1.84-2.57,2.34a10.27,10.27,0,0,0-3.42,5.75c-.12.79-1.81,1.58-3,1.9a6.58,6.58,0,0,0-2.42,1c-.09.64.29,1.2.37,1.84.15,1.11-1.25,1.66-2.33,2a5,5,0,0,1-1.61.32c-.21,0-.26-.36-.23-.53a18,18,0,0,1,1.19-4,3.77,3.77,0,0,1,1-1.17l4.17-3.5,3.27-4.71a2.09,2.09,0,0,0,.41-1.14,3.11,3.11,0,0,0-1-2.33c-.82-.74-2-.85-2.92-1.32a25.06,25.06,0,0,1-3.1-2.34c-.64-.32-1,.85-1.11,1.52a27.45,27.45,0,0,0,.15,3,1.43,1.43,0,0,1-.29,1c-2.75,1.58-6.16,2.17-8.18,4.68a5.51,5.51,0,0,1-1.14,1.22c-1.14.79-3-.11-3.89,1.11-.37.56.06,1.29-.08,1.9-.09.35-.76.82-1.29,1.08a6.37,6.37,0,0,1-2.22.56c-.84-.41-.32-1.61,0-2.45a5.22,5.22,0,0,1,1.38-2.34,18.13,18.13,0,0,1,3-2.37c.67-.32,1.69-.32,2.51-.64a9.09,9.09,0,0,0,2.43-1.17,8.19,8.19,0,0,0,3-3,4.54,4.54,0,0,0-.3-4.67,20.1,20.1,0,0,1-2.48-3.53,2.39,2.39,0,0,1,.41-2.31s-.38-.27-.58-.21a29.86,29.86,0,0,1-12.3-1.83c-1-.41-2.08-1.73-2.81-1.82s-1.08.76-1.75.94a11.43,11.43,0,0,1-3.74,0,41.14,41.14,0,0,1-6.69-1.49,2.84,2.84,0,0,0-1.05.32,2,2,0,0,0-.58,1.61c-.06.79.17,1.52.08,2.33,0,.41-.26.85-.14,1.23s.58.67.9,1a3.35,3.35,0,0,1,.62,2.33c0,.91-.32,2.11.43,2.72.47.38,1.11-.11,1.7,0s.84.91.88,1.52a5.13,5.13,0,0,1-.94,2.57c-.26.26-.7.06-1-.09a4.54,4.54,0,0,1-2.11-1.81c-.2-.35-.2-.79-.4-1.17a4.59,4.59,0,0,0-1.49-1.45,3.35,3.35,0,0,1-1-2.34,12.24,12.24,0,0,1,.12-2.34,14.94,14.94,0,0,0-.29-4.67c-.27-1.17-.91-2.34-.62-3.51a2,2,0,0,1,1.06-1.31,34.09,34.09,0,0,0,8.32-1.46l-1.75-1.73c-.44,0-.79.44-1.23.44s-1.11-.67-1.28-.91a14.3,14.3,0,0,1-1.9-4.47,3.22,3.22,0,0,0-3.1-1.81,4.52,4.52,0,0,0-2.92,3.51c0,.41.2.76.15,1.17a3.08,3.08,0,0,1-1.11,1.66,4,4,0,0,0-1.17,1.7,2.48,2.48,0,0,0,.29,1.75,1.54,1.54,0,0,1,.23,1.17c-.35,1-2.65,1.95-3.33,1.95-.23,0-.43-.32-.52-.58a5.45,5.45,0,0,1,0-2.69,6.09,6.09,0,0,0,1.34-2.34c.35-1.16.18-2.42.73-3.5a75.61,75.61,0,0,1,5.93-8.18,1.46,1.46,0,0,1,1.43-.29c1.58,1,2.51,2.28,4,3.07.82.4,1.84,1,2.57.44s.85-4.5,1.32-5.5c.85-1.72,3.22-4,4.85-5.84Zm29.08-24.24-.64,3h-2.41l3.17-12h2.65l2.81,11h-2.28l-.59-2Zm2.39-2-1.05-4.62-1,4.62Zm-8.92-4c0-.84-.23-1.92-.9-2.18a1.5,1.5,0,0,0-1.76.45c-.54.89-.54,2.11-.51,4a15.19,15.19,0,0,0,.26,3.43c.54,1.7,2,1.79,2.68.74a4.43,4.43,0,0,0,.32-2.4h-.48v-2h3v6h-2a8,8,0,0,1-1.22.86,4,4,0,0,1-2.85-.13,4.21,4.21,0,0,1-2-2.91,24.67,24.67,0,0,1-.2-5.12,5.59,5.59,0,0,1,2.24-4.45,5.05,5.05,0,0,1,3.62-.13,3.88,3.88,0,0,1,2.08,3.88Zm-38.63-3.07a3,3,0,0,1,1.32,3.07h-1.93c0-1.23-.52-1.81-1.56-1.84a1.57,1.57,0,0,0-1.45,1.25c0,1.63,1.41,2,2.4,2.27a3.94,3.94,0,0,1,2,1.32,3.8,3.8,0,0,1-2.21,5.89,4.31,4.31,0,0,1-3.55-.7,3.45,3.45,0,0,1-1.11-3.19h2.18a2.34,2.34,0,0,0,.34,1.38,1.48,1.48,0,0,0,1.1.67,1.58,1.58,0,0,0,1.69-1.46,1.41,1.41,0,0,0,0-.29c-.13-1.87-3.25-2-4.33-3.19a3.68,3.68,0,0,1,.15-4.78,4,4,0,0,1,4.91-.4ZM329,262.17c0,.42.06,1.91.12,2.87a2.07,2.07,0,0,0,.31.68h-2.06c-.3,0-.33-.54-.35-1-.06-1.2,0-4-1.11-4H324.5v5h-2v-11h3.8c1.91,0,2.86,1.09,2.86,2.58,0,1,0,2.14-1.15,2.62A3.6,3.6,0,0,1,329,262.17Zm-2.92-5.45h-1.6v3h1.17C327.61,259.72,327.58,256.72,326.1,256.72Zm-49.6,10h-2v-10h-2v-2h7v2h-3v10Zm15,0v-10h-3v-2h7v2h-2v10Zm5-12h7v2h-2v10h-2v-10h-3Zm38,2v10h-2v-10h-2v-2h7v2Zm-49,6v-8h2v8c0,4.79-7,4.79-7,.15v-8.15h2v8.07a1.29,1.29,0,1,0,2.58,0Zm4.5,8.61a23.11,23.11,0,0,1,2.6-2c.93-.61-.12.79-.18,1.37-.17,1.58-1.37,1.75-2.68,1.46-.24-.06-.15-.5.26-.85Zm54.5,37.35,56,0,2.49-31-58.5,0v31Zm-46,96H240.34c11.86,10.09,39.31,30,57.16,38.13l1-38.59Zm-42-128.21a19.76,19.76,0,0,0-3.77,4.56,22,22,0,0,1,3.77,1.81v-6.37Z"/></svg>