<svg id="Layer_1" data-name="Layer 1" xmlns="http://www.w3.org/2000/svg" viewBox="0 0 600 600"><defs><style>.cls-1{fill:#d63832;}</style></defs><path class="cls-1" d="M561.5,440.88H38.5V159.12h523Zm-184-249.29a50.15,50.15,0,0,0-13.72,11.7c-3.79,4.61-6.68,10.22-9.51,15.84a63.47,63.47,0,0,0-5.85,19.58c-1.08,7.36-1.39,15.34-1.78,23.56-1,20.39-.26,41.84-1.87,61.57a46.2,46.2,0,0,1-.65,5.69c-.33,1.52-1.24,4-.57,5.36,1.15,2.3,5.6.18,6.9-.49,4.83-2.47,9.23-5.5,10.64-11,1-3.71.57-9.26.57-13.81,0-9.92.33-18.87.33-28.51q0-7,.32-14.05c.44-9.26.31-18.37,1.46-27.38,1.11-8.62,2.37-16.49,5-23.8,2.34-6.63,6-13.92,10.88-17.95,2.61-2.15,6.6-3.9,10.89-2.52a11.51,11.51,0,0,1,7.39,7.07c3,7.58.51,18.19-2.11,24-6.11,13.45-15.85,22.54-24.86,32.74-2.15,2.43-4.57,6-3.9,10.31s3.05,6.4,5.36,9.1c2,2.39,4.44,5.17,6.83,7.56s5,4.67,6.5,8c1.75,3.82,1,8.35-.65,11.62a58.59,58.59,0,0,1-5.61,8.77c-4.32,5.72-8.72,10.82-13.16,15.68-2.12,2.31-4.55,4.95-7,7.39-1.1,1.09-2.41,2.37-3.58,3.65a16.65,16.65,0,0,0-3.09,4.15c-2.65,5.78,1,12.8,3.17,16.65.74,1.3,1.7,3.48,3.41,3.82A3.17,3.17,0,0,0,362,365a11.31,11.31,0,0,0,2.27-3.09,94.27,94.27,0,0,1,6.66-9.59c7.87-10,16.52-19.76,25.1-28.92,3.51-3.74,7.24-7.16,9.35-12.26a18.38,18.38,0,0,0,1.29-9.18c-.74-6.16-4.15-10.32-8.28-13.32a204.9,204.9,0,0,1-18.12-14.3c-2.08-1.9-6.52-5.41-4.3-9.26,1-1.75,3-2.84,4.87-4.06s3.52-2.42,5.28-3.66c10.38-7.31,20-15.36,26.65-27a40.34,40.34,0,0,0,4.95-12.92c2-11.06-2.09-21.42-7.63-27-3.13-3.13-7-5.16-13.08-4.87A43.49,43.49,0,0,0,377.47,191.59Zm-213.71,210c2.35-3.38,2.28-8.15,2.28-13.81,0-3.15-.32-6.82,2.76-6.9,1,0,2.33.84,3.49,1.38,14.57,6.8,28.26,13.82,42.73,20.63,2.11,1,4.43,2.7,7.23,2.6,2.59-.1,4.06-2.14,5.28-4a17.34,17.34,0,0,0,3-6.34c.84-4.68-4-6-7.23-7.55Q197.55,375.2,172,362.51a29.55,29.55,0,0,1-4-1.95c-2.26-1.65-1.47-6.63-1.47-11,0-1.56.08-2.95.08-4.55a18.2,18.2,0,0,1,.17-4.47c.49-1.63,2.28-2.4,3.9-3.41a137.39,137.39,0,0,0,36.63-33.55,111.69,111.69,0,0,0,10.24-15.35,49.05,49.05,0,0,0,6.09-19.42,33.11,33.11,0,0,0-4.71-20.55,32.76,32.76,0,0,0-13.57-11.94c-7.08-3.37-17.15-5-27.13-3.74-1.75.22-3.42.48-5.12.82a199.07,199.07,0,0,0-27.78,7.8,300,300,0,0,0-49,22.25c-5,2.84-10,5.73-14.71,9s-8.43,7.27-10.31,13.4c-1.34,4.35-1.38,10.28-1.46,16.33,0,1.75.23,4,1.62,4.22,1.13.16,2.4-1.2,3.17-2,5.76-6.17,12.66-11.24,19.41-16.08,19.91-14.28,41.82-25.56,65.56-36a75.79,75.79,0,0,1,15.19-5.11,55.23,55.23,0,0,1,18.52-.73c6.13.9,10.53,2.74,13.73,6.58s4.71,8.78,4.71,15.59a50,50,0,0,1-3.17,17.14c-3.64,10-10.33,16.94-16.73,23.88a112,112,0,0,1-16.09,14.38c-1.35,1-4.6,3.62-6.74,3.41-2.43-.22-2.08-4.23-1.95-7.14s.22-5.78.25-8.29c.14-14,.69-27.74,1-41.75.06-2.84.4-6-.08-8.21-1.17-5.3-6.91-1.83-9.91-.32-2.21,1.11-3.84,1.83-5.28,3.41-1.9,2.08-1.34,6.75-1.46,10.56-.1,3.06-.17,6.24-.17,9.26,0,17.28-.55,33.54-.73,50.85a13.81,13.81,0,0,1-.32,4.39c-.48,1.24-1.45,1.61-2.76,2.35-5.95,3.35-11.81,6.61-17.71,9.91-1.82,1-4.71,2.12-4.71,4.72,0,2.4,2.12,3,3.89,3.81,5.54,2.69,10.51,5.22,16,7.64,2.63,1.16,4.38,1.83,4.95,4.55s.08,5.85.08,8.69c0,9.53-.42,17.61-.48,27C155.75,407.42,160.7,406,163.76,401.58Zm333-134.2c-2.2,3.55-3.77,6.44-6,9.91-.85,1.32-2.48,3.9-4.55,3.42-2.36-.55-.64-6.68-.82-8.78-.23-2.66-1.94-5.62-5-5.2-2.51.35-4.63,3.4-5.93,5.45-3,4.64-4.73,10.63-7.23,15.59-1.3,2.59-2.61,5.09-4.63,6.83-.79.67-2.16,1.58-3.41,1.38s-2.21-2.08-2.69-3.66a33.16,33.16,0,0,1-1-5.36c-.57-5,0-11.21-3.82-12.67-2.78-1.08-5.14,1-6.25,2.27-.71.8-1.24,1.7-2.28,2-1.52.5-3,0-4.47.09-4.23.21-7.78,2.5-10.39,4.38a40.36,40.36,0,0,0-9.43,10.24,42.21,42.21,0,0,0-6,13.65c-1.38,5.56-1.62,12.66,2.68,15.1,3.59,2,7.94-.92,10.24-2.6,4.81-3.51,7.53-7.12,11.37-11.45.81-.92,1.7-1.92,2.6-3.09.68-.88,1.64-3,2.76-2.84.89.15,1.38,2.05,1.79,3a28.74,28.74,0,0,0,1.54,3.25c1.14,1.91,3.17,4.47,5.61,4.8,5.1.67,8.33-2.76,10.56-5.61a51.09,51.09,0,0,0,3.33-4.79c.8-1.3,2.09-4.53,3.9-4.31,1.15.15,1.15,1.61,1.46,3.17.73,3.68,2.81,6.68,6.91,5a16,16,0,0,0,5.52-4.71c3.4-4.11,5.28-7.89,7.88-12.76,1.08-2,2.14-5.76,4.47-5.85,2.95-.11,3.51,4.47,4.06,6.66,1.15,4.6,2.68,9.74,6.66,11.46,2.46,1.06,5.27.36,7.23-.49a16,16,0,0,0,5.12-3.57c1.81-1.81,4.69-4.95,5.61-7.48.28-.79.65-2.8-.57-3.17-1.53-.45-2.68,1.78-4.23,1.95-2.42.27-4.42-1.42-5.44-2.92-1.83-2.69-2.63-7-3.57-11.05s-1.52-8.18-3.82-10.8a5.24,5.24,0,0,0-4.23-1.79C499.2,262.34,498.1,265.18,496.74,267.38Zm-57.6,21c4-.6,1.88,4.39.9,6.18s-2,3.25-2.85,4.71a42.41,42.41,0,0,1-3.08,4.47c-1,1.28-2.41,2.92-4,3.57a4.46,4.46,0,0,1-3.09.08c-1.43-1-.1-4.59.48-6A26.1,26.1,0,0,1,433.7,292C435.13,290.57,437,288.74,439.14,288.42ZM308.28,306.29c-2.39,2-4.91,4.86-5.53,8.62-1.21,7.31,5.33,10.45,12.27,9.18a18.35,18.35,0,0,0,11.86-7.48,11.81,11.81,0,0,0,2.19-7.47c-.44-5-5.19-7.42-10.72-7A17.36,17.36,0,0,0,308.28,306.29Zm-23.89,5.28a113.23,113.23,0,0,0-6.09,11.54,72.68,72.68,0,0,1-4,7.8c-1.09,1.73-3.54,5.63-6.34,5.44-1.32-.09-2.32-1.49-2.76-2.35a23.66,23.66,0,0,1-1.7-7.32c-.27-2.49.17-6.37-.9-8.2-1.3-2.21-4.12-1.47-5.85-.16-2.16,1.63-2.53,3.7-3.33,6.5-1.63,5.75-3.64,11.56-6.66,16.08-1.1,1.65-2.94,4.15-5.2,4-1.37-.1-2.56-1.63-3.33-3.08a30.38,30.38,0,0,1-3.08-9.59c-.33-2-.32-3.87-1.06-5.28a5.35,5.35,0,0,0-2.11-2.11c-2.32-1.12-5.9.07-7.4,1-1.66,1-2.16,2.87-3.73,3.49-2.08.84-3.6-.07-5.77-.16-4.41-.18-7.4,1.86-9.91,4.06a40.08,40.08,0,0,0-11,17c-1.09,3.4-2.12,8-1.3,12.27.75,3.86,3.22,6.87,6.91,7.06,4.12.22,7.38-2.15,10-4.06a41.29,41.29,0,0,0,7.07-6.9,56,56,0,0,0,4.79-5.69c.33-.49,1.11-1.78,1.87-1.7.93.09,1.24,2,1.7,3.08a26.49,26.49,0,0,0,1.63,3.17c1.07,1.82,2.8,4.1,5,4.72,2.57.73,5.54-.74,7.32-2,4.53-3.1,7.49-7.58,10.23-12.51.53-.94,1.4-2.31,2.44-2.19s1.2,1.65,1.54,2.68c1,3,2.71,6.16,5.61,7.15a4.93,4.93,0,0,0,4.46-.73c3.17-1.91,5.48-5.3,7.48-8.45.68-1.08,1.47-2.64,2.76-2.6,2.39.09,1.79,4.39,1.79,7.15,0,3.12-.17,6.18-.17,9,0,6.23-.12,11.59-.32,18-.28,8.79-.39,18-.57,27,0,2.8-.53,7.06.81,8.21,1.05.9,3.68.57,6.1.57,2,0,4.46.27,5.76-.17,2.6-.86,2-4,2.12-7.63.41-15,.39-30,.81-44.84.43-15.37.44-29.58.81-44.84,0-1.51.42-5-.08-6.34a2.47,2.47,0,0,0-2.68-1.54C286.29,308.35,285.29,310.13,284.39,311.57Zm-64.82,25.27c4.49-.72,1.75,5.85.81,7.71a45.61,45.61,0,0,1-7.15,10.89c-1.06,1.1-4,3.8-5.85,2.44-1.4-1.05-.26-4.93.25-6.58a27.92,27.92,0,0,1,2.35-5.69c1.85-3.21,4.9-6.64,7.88-8.2A5.56,5.56,0,0,1,219.57,336.84Z"/></svg>