<svg id="Layer_1" data-name="Layer 1" xmlns="http://www.w3.org/2000/svg" viewBox="0 0 600 600"><path d="M300.61,435.88c15.16-.07,26.56-7.67,26.59-21.36.08-12.22-12.71-15.73-24.25-18-9.47-1.82-18-5.3-18.06-13.39,0-.21,0-.43,0-.66.48-6.34,7.85-9.84,14.69-9.86,6.61,0,11.54,2.79,16,8l6.91-5.45c-10.27-7-15.22-7.09-22.9-7.12a34,34,0,0,0-16,4c-5.24,3-9.28,7.81-9.3,15.62v.31c.09,14.06,16.5,16.52,21.78,17.59,6.38,1.34,18.72,4.1,18.85,14.78-.09,7.14-8,10.92-14.43,10.93h-.09c-5.59,0-14.32-1.18-20.25-9.55l-7.54,5.73c6.12,5.16,13.28,8.29,27.95,8.31Zm-179.27-1.63h43v-4h-30v-27h24v-4l-24,.09V373.25h30v-4h-43Zm311-32c.11,24.62,12.61,33.84,32.64,34,14.88,0,21.87-3.5,25.45-8.39a12.23,12.23,0,0,0,2.61-7.58h-8.68c-.5,7.4-6.95,13.37-15.58,13.38-5.14,0-10.93-.78-15.42-5.14s-7.45-12.11-7.45-25.6c0-14.48,2.91-22.63,7-27.2s9.21-5.34,13.11-5.34a16.39,16.39,0,0,1,11.07,4c2.85,2.63,4.8,6.59,5,11.85h11.17c-.42-9.64-6.42-17.78-27.2-17.92-21.3.18-33.51,9.28-33.64,33.92Zm-373.41,32H70.69l24.62-66H88.8l-20,57.18-.85,2.41L48.78,369.25H35.66l23.24,65Zm159.44-28,17.22,28h13.28l-17.77-28.84-.55-.92,1-.37c6-2.21,14.4-7,14.38-17.52s-7.91-17.26-29-17.35H192.34v65h13v-29l12.85,1Zm-4-4-9,0v-30h10.42c10.16,0,16.81,6.45,16.82,14.22S225.7,402.23,214,402.25m179.26,10,9.05,22H414.7l-27.68-65H375l-30.11,65h5.65l10.59-22.5.22-.5,31.84,1Zm-30.37-4,14.4-30.87.84-1.79,13.51,32.66Zm158.41,26h43v-4h-30v-27h24v-4l-24,.09V373.25h30v-4h-43Z"/><path d="M378.59,231c-.29-.39-.2-1-.42-1.35-.08-1-.8-1.8-1-2.78a22.41,22.41,0,0,0-2.27-4.27l.07-.1a13.57,13.57,0,0,0-.51-3.1,4.6,4.6,0,0,1-.37-.53c0-.18-.19-.35-.23-.55s-.15-.32-.25-.45a9.76,9.76,0,0,0-1.43-2.27,61.21,61.21,0,0,0-4.76-9.07c-.94.58-1.88,1.13-2.85,1.7l-.23-.16v-.56a5.64,5.64,0,0,1-.9-.54,27.23,27.23,0,0,0-2.39-1.41l-.44-.19,4.31-2.92.14-.33a83.32,83.32,0,0,0-9.67-11.46l-6.5,6.46q-3.58-3.31-7.36-6.41l1.77-2.38.29.05c1.54,1.16,3.27,2.57,4.72,3.88H349l3.69-4,.06-.28a85.63,85.63,0,0,0-11.56-8.46c-1.68,2.52-3.12,5.28-4.92,7.82-2.63-1.69-5.43-2.86-8.15-4.32l.93-2.15c.15-.22.15-.61.48-.65,2.1.79,4.07,2,6.09,2.94.93-1.73,1.9-3.51,2.84-5.23l-.14-.15a73.25,73.25,0,0,0-13.09-5.62c-1.09,2.86-1.84,5.86-2.91,8.71-2.21-.7-4.46-1.26-6.69-1.82-.81-.28-1.68-.33-2.49-.61a19.24,19.24,0,0,1,.61-3,16.93,16.93,0,0,1,2.85.52c1.3.18,2.57.74,3.84.83.52-1.87,1.07-3.74,1.63-5.61a77.21,77.21,0,0,0-12.49-2.52c-.47,0-.76-.24-1.22-.05-.4,2.29-.53,4.78-.83,7.18l0-.07a1.36,1.36,0,0,0-.64-.59,1,1,0,0,0-1,.3c-.23.7-.19,1.48-.39,2.17q-3.45-.18-6.92-.23l-.08-.09a13.51,13.51,0,0,1,0-3,40,40,0,0,1,6.08,0c.19,0,.53,0,.41-.27-.08-1.83.42-3.84.23-5.71a86.63,86.63,0,0,0-13.57.19l-.09.19c.23,3,.8,6,.89,9.07-1.74.33-3.56.52-5.29.94-1.35.05-2.57.7-3.93.7l-.65-2.9a8.26,8.26,0,0,1,2.57-.75c1.22-.38,2.58-.38,3.79-.84a58.26,58.26,0,0,1-1.08-5.75,88.76,88.76,0,0,0-13.19,3.23c.84,3,2,5.8,2.85,8.75q-4.42,1.72-8.74,3.73a16.67,16.67,0,0,1-1.41-2.71,55,55,0,0,1,6.18-2.9l0-.19c-.61-1.87-1.41-3.74-2.15-5.52a120.3,120.3,0,0,0-13.1,6.55v.09c1.78,2.57,3.31,5.2,5,7.77-2.86,1.87-5.56,4.06-8.29,6.17-.7-.8-1.67-2.2-1.67-2.2v-.09a74.34,74.34,0,0,1,6-4.74v-.31l-3.23-4.48h-.27a83.12,83.12,0,0,0-12.12,9.84c2.23,2.43,4.48,4.12,6.67,6.36l-.87.92c-.51.54-1,1.11-1.51,1.67-.93.45-1.84.93-2.73,1.46A12.11,12.11,0,0,0,243,204c-.53.46-1.1.86-1.65,1.28l-.51-.34-.06-.18c1.4-2,3.22-3.89,4.58-5.86-1.34-1.19-3-2.43-4.33-3.66h-.25a74.1,74.1,0,0,0-7.24,9.06,32.3,32.3,0,0,0-2.08,3.48c2,1.12,4,2.14,6,3.2a1.78,1.78,0,0,0-.38.61,20.93,20.93,0,0,0-3.52,1.83c-1.35-.65-2.75-1.26-4.07-2l-.23.1a68.35,68.35,0,0,0-4.11,9.23c-.28.37-.56.71-.81,1.1v.87s.31.54,0,.62c-.06.19-.24.29-.35.45a30.8,30.8,0,0,0-1.44,3.15,4.62,4.62,0,0,0-.46,1.14c-.06.18-.13.39-.19.61l-.16.88c-.07.21.06.48-.18.61s-.27.59-.08.83a2.36,2.36,0,0,0,.42,1.6c0,.43-.45.71-.61,1.09s-.53.8-.83,1.15c-.19.61.38,1.09.71,1.46a2.26,2.26,0,0,0,.69.1,74.08,74.08,0,0,0-.84,10.08c.05.24.33.14.47-.27H230l.19.74.09,2.26h.08A93.24,93.24,0,0,0,231.52,260a12.31,12.31,0,0,1-3,.61l-.14-.19a55,55,0,0,1-1.12-7.72,41.84,41.84,0,0,0-5.86.32,72.18,72.18,0,0,0,3.22,16.61q4.31-1.37,8.65-2.6c1.12,3.4,2.42,6.7,3.86,10-1,.4-1.82,1.2-2.89,1.2a48.66,48.66,0,0,1-2.83-6.52c-1.4.42-2.84.89-4.19,1.41-.32.27-.88.27-1.26.6a59.53,59.53,0,0,0,6.57,13.78c2.56-1.59,5.22-3,7.81-4.62l.19.15a65,65,0,0,0,6,8.38l-2.19,1.91h-.17s-3-3.52-4.45-5l-4.64,3.13-.13.33a82.19,82.19,0,0,0,9.68,11.47l6.49-6.46c2.39,2.24,5,4.4,7.36,6.41l-1.77,2.38-.29-.05a32.5,32.5,0,0,1-4.72-4.2h-.42l-3.7,4.5-.05.27a85.62,85.62,0,0,0,11.55,8.47c1.68-2.52,3.13-5.29,4.92-7.82,2.61,1.68,5.42,2.85,8.13,4.3l-.94,2.16c-.14.23-.14.61-.46.66-2.11-.8-4.07-2-6.09-3-.93,1.73-1.91,3.51-2.84,5.25l.13.14a73.3,73.3,0,0,0,13.1,5.61c1.08-2.85,1.83-5.85,2.9-8.71,2.21.7,4.45,1.27,6.69,1.82.8.29,1.68.33,2.49.61a22.24,22.24,0,0,1-.61,3.05,18.44,18.44,0,0,1-2.86-.52c-1.3-.2-2.57-.75-3.83-.84-.52,1.88-1.08,3.74-1.64,5.61a75.92,75.92,0,0,0,12.49,2.53c.47,0,.75.23,1.21.05.52-2.9.56-6.14,1.09-9.07,2.89.19,5.8.27,8.74.33l.08.08a13.42,13.42,0,0,1,0,3,35.38,35.38,0,0,1-6.08-.05c-.19.05-.52,0-.42.29.09,1.82-.42,3.84-.23,5.69a86.65,86.65,0,0,0,13.57-.19l.09-.19c-.23-3-.79-6-.89-9.07,1.74-.33,3.56-.52,5.28-.94,1.36-.05,2.58-.7,3.92-.7l.67,2.9a8.26,8.26,0,0,1-2.58.76c-1.22.37-2.57.37-3.79.83a55.51,55.51,0,0,1,1.09,5.75,91.28,91.28,0,0,0,13.19-3.22c-.84-3-2-5.81-2.85-8.75,3-1.17,5.8-2.38,8.75-3.74a17,17,0,0,1,1.39,2.71,52.48,52.48,0,0,1-6.17,2.91l-.05.19c.61,1.87,1.41,3.73,2.16,5.52,4.45-1.77,8.64-4.11,13.53-6.55v-.09a64.86,64.86,0,0,1-5.4-7.76c2.85-1.88,5.56-4.07,8.29-6.17.69.79,2.11,2.2,2.11,2.2V302a72.87,72.87,0,0,1-6,4.35v.41l3.34,4.49H345c4.31-3,8.75-6,12.56-9.84-2.3-2.44-4.65-4.12-6.92-6.36l.9-.92c2.24-2.29,4.4-4.81,6.49-7.18l2.52,1.59.06.18c-1.45,2-3.34,3.9-4.76,5.88,1.39,1.18,3.1,2.42,4.5,3.65h-1.11a74.91,74.91,0,0,0,7-9.2,32.54,32.54,0,0,0,2-3.54c-2.56-1.53-5.21-2.88-7.8-4.41a91.32,91.32,0,0,0,4.42-9.34,12.57,12.57,0,0,1,2.94,1.07c-.75,2.23-1.91,4.23-2.65,6.42,1.62.88,3.4,1.61,5,2.55l.23-.08a87.74,87.74,0,0,0,5.57-14.27l-.08-.14q-3-.9-6-1.67c-.87-.38-1.94-.33-2.64-.88a107.56,107.56,0,0,0,2.1-10.55,15.27,15.27,0,0,1,3,.38,36.17,36.17,0,0,1-.83,5.57c.09.6-.51,1.12-.13,1.67,1.86.42,3.81.7,5.67,1.17l.12-.15a84,84,0,0,0,1.73-15.33c0-.22-.32-.13-.47-.27l-8.45-.05-.19-.14-.15-2.42a56.47,56.47,0,0,0-.65-7,2.08,2.08,0,0,0,.52.25c.45.38,1.16.19,1.7.42a8.1,8.1,0,0,1,1.17-.24c.11,1.06.23,2.13.34,3.18a43.36,43.36,0,0,0,5.86-.33c-.09-1-.23-2-.36-3a.31.31,0,0,1,.13-.08,1.29,1.29,0,0,0,.95.53c.24.24.42-.13.62-.19-.17-1.31-.78-2.48-.74-3.88a23.33,23.33,0,0,0-.53-3.28Zm-2.87-5.33a21,21,0,0,1,1.43,3.14,6.5,6.5,0,0,1,.51,1.92,3.57,3.57,0,0,1,.19.93c-.13.43.23.68.13,1.13a14.78,14.78,0,0,0,.19,1.47h0c-.08.15,0,.47-.1.66-.46-.1-.56-.48-.91-.77-.78-.65-1.65-.88-2.17-1.81-.26-.3-.77-.19-1-.59-.3-.08-.58-.42-.84-.56-.32-.51-.85-.67-1.09-1.22a6.28,6.28,0,0,1-1.37-1.2,10.2,10.2,0,0,1-1.46-2.19,5.91,5.91,0,0,0-.94-1.07c-.19-.53-.91-.9-.91-1.6-.22,0-.22-.19-.22-.38-.51-.4-.58-1-1-1.44-.1-.61-.89-.69-.83-1.41-.64-.52-.56-1.71-1.49-1.92a16.79,16.79,0,0,0-2.21-2.62,4,4,0,0,0-.68-.91,16.09,16.09,0,0,0-2.13-2,12.59,12.59,0,0,0-5-2.4c-.58-.32-1.46,0-1.91-.49a7.55,7.55,0,0,0-1.59-.72v0a19.26,19.26,0,0,0-7.26-1.17c-1.11-.13-2.05,0-3.18-.11a22.91,22.91,0,0,0-3-.35c-.07-.13-.13,0-.22-.07a14.21,14.21,0,0,0-5.68-.67c-2.3.13-4.24,1.09-6.44,1.6-.87.28-1.54.9-2.55.83-.69.34-1.13-.3-1.74-.54-4.44-1.59-9.27.8-13.61-1-.1,0-.29-.14-.43-.17-.47-.4-1.25-.69-1.38-1.28a4.94,4.94,0,0,0,1.91.22,5.5,5.5,0,0,0,2.2-.43c.14.11.27-.06.36-.11,1.2-.23,2.1-1,3.26-1.38a9.19,9.19,0,0,1,2.17-1,15.69,15.69,0,0,1,3.75-1.12,8.53,8.53,0,0,1,3.92.51,8.18,8.18,0,0,0,6.72-1.13c.67.62,1.49.85,2,1.63a22.87,22.87,0,0,0,3.31,1.91c.77.62,1.9.69,2.83,1.1,1.18.29,2.57.45,3.72.61.14.11.43.06.68.08,1.78.3,3.59.51,5.43.68s3.27.54,5.12.43a50.86,50.86,0,0,1,5.7,1.55c1.09.59,2.42.85,3.42,1.71a32.36,32.36,0,0,1,2.84,1.84c.61.35,1.11.93,1.68,1.28.46.51,1,.83,1.49,1.36,1.63,1.1,2.78,2.75,4.4,3.89.38.69,1.23,1.05,1.55,1.76.48,1.52,2.13,2.1,2.45,3.59ZM365,234.23c-.1.08-.08.24-.16.35a2.34,2.34,0,0,1-1.59,1.15l0,.05c-.72.19-1.07-.51-1.53-.88a2.35,2.35,0,0,0-1.55-1.15A2.92,2.92,0,0,0,357.8,235a1.53,1.53,0,0,1-.16.62,7.17,7.17,0,0,1-.59,3.51,15.48,15.48,0,0,1-1.31,1.18,3.72,3.72,0,0,1-3.4.5c-.59-.42-1.45-.64-1.85-1.28s-.81-1.26-1.16-1.85c-.1-1-1.1-1.48-1-2.66v-.56c1.2.22,2.4.91,3.73.48a11.16,11.16,0,0,0,2.35-1l0,0c.8-.48,1.68-1.3,2.49-1.79,1.14-.74,1.85-1.65,3.12-2.16a3.15,3.15,0,0,1,3.23,0c.29-.08.31.21.48.37a22.47,22.47,0,0,1,1.3,2.36c-.16.54.16.91,0,1.45ZM364,249.38A64.44,64.44,0,0,1,339.67,297c-.91.71-1.84,1.37-2.78,2l.06-.26a24.33,24.33,0,0,0,.53-5.4,13.53,13.53,0,0,0,.16-2.21c-.08-.42-.08-.8-.13-1.26a3.59,3.59,0,0,1,.16-1.49c.2-.48.42-.91.61-1.38,0-.3.3-.46.3-.78.64-.85,1-1.88,1.64-2.66.06-.35.27-.62.33-.94a5.16,5.16,0,0,0,.58-1.68c.08-.19,0-.48.1-.67a25.28,25.28,0,0,0-.1-2.62c0-.84-.45-1.52-.51-2.34a6.33,6.33,0,0,0,1-2.25,10.44,10.44,0,0,0,.16-2c.23-.42.57-.53.71-1a8.14,8.14,0,0,0,.23-3.68c0-.45-.3-.8-.23-1.22.43,0,.84.15,1.29.21,1.12,0,2.26.3,3.36-.1.51-.4,1,.16,1.63.1s1,.3,1.71.13c.34-.1.32-.48.38-.8-.84-.45-.94-1.33-1.45-2-.55-1.13.34-2.26.45-3.42,0-.16.19-.21.16-.39a24.21,24.21,0,0,0,1.09-2.65c0-.19.24-.37.23-.56a7.74,7.74,0,0,0,.83-1.83,16.55,16.55,0,0,0,.56-2,8,8,0,0,0,.18-3.1,6.78,6.78,0,0,0-.67-2.65.93.93,0,0,1-.21-.51c.08.16.38-.13.6,0,1.58,0,2.66-1.23,3.55-2.45-.05-.11.08-.16.14-.24.07-.39.38-.71.45-1.14-.22-.74.67-1,1-1.44a7.65,7.65,0,0,0,.85-4.16c.09-.33.44-.35.69-.62.09,0,.29-.13.42,0,.13-.08.35.1.53.16.83.74,1.54,2.1,2.91,1.62h.05A60.09,60.09,0,0,1,364,249.38ZM331.13,306.2c-.55.45-1.21.71-1.74,1.14a9.21,9.21,0,0,1-5.22.85,31,31,0,0,1-4.63-.64c-1.23-.49-2.55-1-3.72-1.56a10.76,10.76,0,0,1-2.26-1.74c-1.13-.85-2-2.16-3.39-2.69a11.11,11.11,0,0,0-3.2-1.94c-.2-.1-.3-.29-.4-.32l.06,0-.06,0c.06-.08.35,0,.56,0a3.6,3.6,0,0,0,1.16.11c.1.19.22.05.36.13a12,12,0,0,1,2.48,1.06c.19.08.35.43.62.46a4.33,4.33,0,0,0,1.59,1.19v.1c.64.47,1.29.87,2,1.3s1.55,1,2.23,1.49c.52.1.84.51,1.39.57a15.87,15.87,0,0,0,7,1.45,3.79,3.79,0,0,0,2.08-.26c.52-.56,1.42-.78,1.42-1.62-.54-.46-1.07.28-1.68.09a12.15,12.15,0,0,1-5.11-.26,10.57,10.57,0,0,1-2-.51c-.58-.29-1.29-.45-1.91-.83a22.76,22.76,0,0,1-3.15-2l-.06.05c-.69-.58-1.46-1-2.13-1.6a8.28,8.28,0,0,0-1.94-1.33,8.73,8.73,0,0,0-4.43-1.2,4.41,4.41,0,0,0-2.16.29,2,2,0,0,1-.75-.61c0,.05-.05-.1,0-.16a9,9,0,0,1,2.1-.68,8.48,8.48,0,0,1,2.11-.53,12.45,12.45,0,0,1,4.78.75c1.75.68,3.46,1.44,5.14,2.26,2.66,1.14,4.92,3,7.89,3.55,0,.08.69.22.69.22.34,0,.55.16.85-.06a1.82,1.82,0,0,0,.9-.18c.56-.14,1.29-.14,1.6-.72a23.29,23.29,0,0,1,1.29-2.35c.23-.36.07-.91.45-1.23a30.18,30.18,0,0,0,.83-6.43,3.16,3.16,0,0,1,0-1.3,6.19,6.19,0,0,0,.08-1.42,8.43,8.43,0,0,0,.31-1.14,12.91,12.91,0,0,1,1.5-3.72,30.29,30.29,0,0,0,1-3.06c0-.23,0-.39.29-.53.32-.48.68-1.13,1.23-1.33.74-.69,1.38-1.23,2.07-1.91a2.14,2.14,0,0,1,.16.65c.45,2.59-.69,4.75-2,6.72a12.68,12.68,0,0,0-1.39,3c-.07.83-.54,1.59-.23,2.48a51.33,51.33,0,0,1-.15,5.92,40.21,40.21,0,0,1-.88,4.16,11.47,11.47,0,0,1-1.44,3,6.2,6.2,0,0,1-2.18,2.84Zm-58.79,2.54v.3a8.42,8.42,0,0,1-2.62-.9c-1.07-.88-2.52-1.37-3.13-2.72-.35-.33-.6-.83-1-1.07,0-.23-.23-.3-.24-.47-.77-.76-.79-2.05-1.1-3.06,0-1.26-.52-2.63-.13-3.86a10.21,10.21,0,0,1,.33-2.3c.22-1,.36-2.09.52-3.06.14-.06,0-.27.1-.39,0-.47.23-.85.2-1.32a1.51,1.51,0,0,0,.17-.7c.06,0,.13-.07.13-.11.27.22.63.68,1.07.57a.9.9,0,0,0,.49-.8c0-.06-.13-.16,0-.19-.11-.13,0-.47-.19-.5-.23-1.61-2.09-2.59-3.52-3.42a4.26,4.26,0,0,1-2.71-4,4.52,4.52,0,0,1,.1-1c0,.08.16,0,.16.1l0,0a4.55,4.55,0,0,0,1.26,2.06c.47.3.69.76,1.23.9,1,.82,2.3,1.06,2.94,2.25a8,8,0,0,1,1.15,2.1,25,25,0,0,1,.36,2.77,10.53,10.53,0,0,1,0,3,2.72,2.72,0,0,1,0,.69c-.3.14.06.44,0,.66-.06.55,0,1.21-.14,1.73.23,1.8-.46,3.75.25,5.42-.06.43.35.69.24,1.17.27.5.38,1.07.89,1.4.12.19.12.49.41.43.25.17.33.47.66.47a15.42,15.42,0,0,0,2.26.36c2.73-.5,5.08-2.06,7.61-3.09a45.14,45.14,0,0,1,5.59-3.12,35.26,35.26,0,0,1,4.87-2.23c.87-.33,1.79-.4,2.69-.7.94.06,2.06-.27,2.93.22a16,16,0,0,1,1.6.6,11.57,11.57,0,0,0,.19,1.92c-1.65.31-3-.68-4.63-.3a9.26,9.26,0,0,0-2.73,1l0,0c-.68.49-1.62.71-2.36,1.2a13.43,13.43,0,0,0-3,1.73,23.38,23.38,0,0,1-2.42,1.16c0,.08-.11.08-.16.08a24.79,24.79,0,0,1-2.28,1.09v-.23a2.86,2.86,0,0,1-.89.4c-.3.06-.56.18-.88.26s-.54,0-.76.13a13.46,13.46,0,0,0-2.33.58c-.23.08-.52.29-.38.56a.12.12,0,0,0,.16.07,2.27,2.27,0,0,0,1.77.38,12,12,0,0,0,3.39-.84c1.49-.81,3-1.46,4.5-2.18.27-.06.53-.38.83-.38.19-.19.48-.26.69-.51a50.59,50.59,0,0,1,5.07-2.64c.4,0,.69-.35,1.12-.29.06.13-.18.21-.08.39-.06,0-.07,0-.1.05-.08.3-.26.68-.11,1v.63c-.84.23-1.68.67-2.53.83l0,0a26.19,26.19,0,0,0-2.46,1.16c-.07.22-.47.22-.56.39-1.29.59-2.25,1.41-3.49,2l0,0c-.06.25-.35.18-.44.31a6.07,6.07,0,0,1-1.48.75v.11a17.57,17.57,0,0,1-2.37.89,13.73,13.73,0,0,1-6.62.19Zm-8.46-17.26a16.14,16.14,0,0,1-.32,1.76c0,.1,0,.21-.06.29a22.35,22.35,0,0,1-.32,2.26c0,.27,0,.4-.08.56a21,21,0,0,0,0,2.75c-17.08-12.29-28-33.17-26.76-55.39.26.18.54.36.84.53a6.57,6.57,0,0,0,.24,2.13c.23.38.23.91.51,1.29.87,1.87,2.66,2.94,4.37,3.89a5.83,5.83,0,0,0,3.81.22.41.41,0,0,1,.38-.11,14.82,14.82,0,0,0,1.06,2.83,8.25,8.25,0,0,1,.68.91,6.77,6.77,0,0,0,1.06,1.48c.53.75,1.45,1,1.92,1.85a4.28,4.28,0,0,0,2.52,2.59c.14.21.54.1.49.45-.4.42-.4,1.06-.69,1.57a8,8,0,0,0,.39,3.26c0,.35.24.51.3.85,0,0,.07.11.15.11.16.8.85,1.16,1.36,1.64a4.49,4.49,0,0,0,1.45,2,8,8,0,0,0,1.44.61,1.82,1.82,0,0,0,.08.67,14.67,14.67,0,0,0,.55,2.05,3.41,3.41,0,0,0,.68,1.39c.16.48.58.84.77,1.3a9.89,9.89,0,0,0-.72,1.46,6.55,6.55,0,0,0-.09,3.87c.07.19.07.39.26.56a6.48,6.48,0,0,0,3.43,3.42,2.85,2.85,0,0,1,.61,1.68,8.58,8.58,0,0,1-.28,3.23Zm-36-54.61a3.94,3.94,0,0,0,1.19,1.51,3.82,3.82,0,0,0,1.68.45c-.06.33-.11.65-.17,1a15.88,15.88,0,0,1-3-.37c.06-.85.16-1.71.29-2.57Zm3.46,0c-.69.05-1.63.13-2-.58a5.29,5.29,0,0,1-.72-2.8c.54-.3.72-.88,1.2-1.23a3.94,3.94,0,0,0,.74-1c.4-.27.36-.69.75-.89a10.32,10.32,0,0,0-.58,4A15.51,15.51,0,0,0,231.38,236.92Zm.21-9.6a10.59,10.59,0,0,0-1.36,1.6c-.84.77-1.2,1.91-2.17,2.58a4.2,4.2,0,0,1-1.17,1.13,11.18,11.18,0,0,1-1.58.91,7.93,7.93,0,0,1-2.13.8c.48-1,1.33-2.06,1.82-3,.74-1,1.65-1.87,2.26-2.83a41,41,0,0,1,9.25-7.36c2.11-.88,4-2.4,6.48-2.53a10.25,10.25,0,0,1,3.41-.37c.75.27,1.6.23,2.38.45a13.78,13.78,0,0,0,3.71.8c.1,0,0,.14,0,.22a3.45,3.45,0,0,0-.78,1.28,21.74,21.74,0,0,0-2,4.21c-.06.38-.27.67-.24,1-.32.22-.26.62-.26.94.32.9,1.48,1.3,2.29,1.71.29,0,.32.21.61.22.29.78.91,1,1.36,1.59a4.91,4.91,0,0,1-3.55-.88c-.71-.72-.8-2-1.91-2.37-.65.07-1.5-.43-1.91.26-.85.61-.58,1.9-.83,2.82l.08.06a1.74,1.74,0,0,0,.08,1,10.7,10.7,0,0,0,1.13,2.24l0,0c1.32,1.13,1.74,2.66,2.65,4,0,.4.31.61.31,1a8.87,8.87,0,0,1-.26,6.27c-.1.42-.46.77-.46,1.25a18,18,0,0,1-1.3,1.92A3.47,3.47,0,0,1,245.6,250a4.39,4.39,0,0,1-3.85-.69c-1-.78-2.29-1.63-2.61-3a4.2,4.2,0,0,1-.23-1.6,5.05,5.05,0,0,0,4.5-1.3c1.71-1,2.24-3,2.72-4.85.15-2.19-.1-4.59-2-6.05a24.23,24.23,0,0,0-2.9-1.52,9.11,9.11,0,0,1-2.11-1.65c-.51-.93-1.33-1.84-1.28-3.07a1.94,1.94,0,0,1,.37-1.46,4.46,4.46,0,0,1,2.14-2c.29-.07.55,0,.77-.26.51-.38,1.42-.08,1.75-.74a1.28,1.28,0,0,0-.28-1.07,2.88,2.88,0,0,0-2.49.19,9,9,0,0,0-2.81,1.92c-.51.13-.8.53-1.2.74a9.07,9.07,0,0,0-3,2.05c-.13.24-.43.35-.64.56-.13.54-.72.64-.9,1.2Zm58.5-.61a16.23,16.23,0,0,0,2.45-.78c-.05.46-.58.83-.84,1.23l-.06,0c-.06.1-.22.07-.19.21l0,0c-.19.16-.24.32-.46.4-.16.29-.67.35-.83.62l0,0c-.45.49-1.12.72-1.54,1.15a1.94,1.94,0,0,1-.81.32c-.16.19-.43.19-.53.35a9.32,9.32,0,0,1-5.44.64,3.35,3.35,0,0,1-1.39-.19,10.44,10.44,0,0,0-2.2-.64,17.62,17.62,0,0,0-5.66-.05c-.15.18-.51.1-.75.21a6.65,6.65,0,0,0-2.64,2.08,7.53,7.53,0,0,0-1.2,1.9c-.21.18-.19.42-.37.63s-.43.52-.46.81l0,0c0,.11-.1.06-.16,0,0-.38-.1-1,.14-1.3a9.87,9.87,0,0,1,1.2-2.86,15.48,15.48,0,0,1,2.66-2.18c1.54-1.1,3.59-1.15,5.49-1.44s4.37-.2,6.53-.43a12.52,12.52,0,0,0,3.34-.4l1.06.11v0a8.63,8.63,0,0,0,2.75-.32Zm-8-14.21a8.66,8.66,0,0,1,4.78.58c.59.19,1.14,1.74,2,.77.05-.16.26-.18.32-.37s.38-.51.51-.72a6.43,6.43,0,0,1,5.75-2.21,2.3,2.3,0,0,1,1.56.62,1.72,1.72,0,0,1,.78,1.16c.07,0,.05.06.05.14s-.08.1-.13.1l0,0-.05.1a3.63,3.63,0,0,0-1.9.22c-2.37.67-4.11,2.94-5.57,4.75-.61.56-1.12.95-1.74,1.49-2.56,1.84-5.78.21-8.34-.69-1.14-.48-2.16-1.07-3.34-1.55l-.39-.32c1.78-1.39,3.33-3.62,5.78-4Zm-5.89,1.94a8.76,8.76,0,0,1-1.92.22c-1.09,0-2-.69-3-.93a14.71,14.71,0,0,0-4.85-1.71c.29-.51.93-.75,1.28-1.28,1.13-.65,2.41-1.6,3.85-1.43,2.53.4,4.62-1.12,7.37-.53l1,.5a11.86,11.86,0,0,1,2.51,1.37,7.45,7.45,0,0,0-2.47.85,12.47,12.47,0,0,0-3.72,2.94Zm21.16-4.8a8.49,8.49,0,0,0-6.06,0,1.59,1.59,0,0,1-.64.27,5.77,5.77,0,0,0-2,1.62.82.82,0,0,1-1.05.2,20.71,20.71,0,0,0-2.8-.82c-.29-.57-1.05-.89-1.47-1.31-1.24-.77-2.64-1.26-4-1.92a5.63,5.63,0,0,0-.67-2.4,10.75,10.75,0,0,0-.52-1.26,13.38,13.38,0,0,0-3.92-4.3c-.68-.24-1.21-.62-1.89-.89-1.85-.42-3.92-.54-5.51.45-.14.31-.66.34-.73.69a3.35,3.35,0,0,0-.58.91c-.33.05-.41-.21-.65-.32a8,8,0,0,0-2.5-1,.22.22,0,0,1-.2-.27,9.56,9.56,0,0,1,4.73-2.61c.3-.2.6-.47.56-.84s-.07-.64-.32-.92a6.27,6.27,0,0,1,.16-2.07v-1.59h0a5.19,5.19,0,0,1,1.83-2.81c.22-.41.72-.53,1-.8.46.44.6,1.21,1.14,1.63a11.68,11.68,0,0,0,3.46,2.21c.64.4,1.4.55,2,1l0,0a4.11,4.11,0,0,0,1.46.77,16.42,16.42,0,0,0,2.06.83,7.57,7.57,0,0,0,.94,2.89V197a6.87,6.87,0,0,0,1.72,1.68c.36.24.82.58,1.21.85.2,0,.27.15.48.09a6.21,6.21,0,0,1,.81.24,6,6,0,0,0,.52.88c.35.66.93.83,1.47,1.24,1.47.86,3.75,1.18,5.15-.08a5.87,5.87,0,0,0,1.77-1.46l.27-.14c.45.52,1.59.66,1.53,1.63a6.11,6.11,0,0,0,2.31,2.34,13.15,13.15,0,0,0,2.74.14c.07.05,0,.22,0,.35-.17.08-.08.25-.11.45h0l-.06.51a.88.88,0,0,0-.14.45,17.34,17.34,0,0,0,.49,6.45c.22.84.72,1.56,1,2.4a6.66,6.66,0,0,0,1.47,2c1,1.26,2.71,1.62,4.3,2.07v.08h0c-.2.24.22.69-.13.86a10.84,10.84,0,0,1-3.18-.9c-.39-.36-.91-.51-1.3-.83a8.5,8.5,0,0,1-1.9-1.53c-.48-.28-.48-.82-1-.94a1.92,1.92,0,0,1-.84-1.71l-.08,0a4.38,4.38,0,0,0-.38-2.1,4.74,4.74,0,0,0-2.14-2.41ZM260.79,198l-1.5,0c.44-.38.86-.75,1.31-1.12,1.73-1.32,3.53-2.57,5.37-3.74a1.55,1.55,0,0,0,0,.22c-.56.48-1.3.74-1.91,1.23-.4.37-1,.71-1.5,1.19a10.09,10.09,0,0,0-1.59,1.92C261.06,198,260.84,198,260.79,198ZM300,187.17a5.78,5.78,0,0,0,3,1.87c.07,0,.23-.13.33-.06.27.36.23.88.41,1.27A14.69,14.69,0,0,0,304,192a13.81,13.81,0,0,1-.36,4.2c-.14.47-.17,1-.34,1.41v-.16l1,.62v.18a6.12,6.12,0,0,0-1.14.53c-.06.19-.16.41-.22.59a2.12,2.12,0,0,0-.46,1,3.57,3.57,0,0,0-.29.51c-.09.08-.22.13-.16.29l0-.05c-.62.77-2,.61-2.81.58a3.82,3.82,0,0,1-1.3-1l0,0a8.83,8.83,0,0,0-.62-1v0c-.13-.35-.38-.48-.48-.8-.06,0-.08-.19-.16-.27-.51-1.06-3.3-1.84-3.3-1.84v.16c-.65-.26-1.95.23-2.33-.57-.22-.3-.66-.41-.82-.73l0,0-.47-.95a10.51,10.51,0,0,0-1.32-2.51,7.86,7.86,0,0,0-5.08-2.2c-.47-.19-1.07-.35-1.24-.85,2.23-1.4,4.59-3.07,6.79-4.59.13.08.16-.19.33-.19,1-.57,1.92-.88,2.93-1.54a10.15,10.15,0,0,1,4.23-1.1,10.32,10.32,0,0,1,3.74.3l.06.14,0,0c0,.17-.22.28-.19.5s-.24.19-.23.39a3.49,3.49,0,0,0-.46,2.09,3.29,3.29,0,0,0,.76,1.92Zm5.7,2.54a11,11,0,0,1-.38-1.29c.71-.32,1.46.14,2.13.34a15.22,15.22,0,0,1,2.82,1.82,16.85,16.85,0,0,1,1.73,2.06,4.33,4.33,0,0,1,.41,1.32.57.57,0,0,1,0,.29h0c-.18,1.31-.36,2.67-.41,4h-.06c0,.45-.24.88-.22,1.32-.06.22-.13.44-.2.66a5.09,5.09,0,0,1-.51,1.4,6.18,6.18,0,0,0-.73,1.21,2.66,2.66,0,0,1-1.15,1.56,5.4,5.4,0,0,1-2.21,1.7,5.94,5.94,0,0,1-3.68-.78.67.67,0,0,1-.56-.55c0-.37-.41-.52-.25-.9.06-.17.24-.25.25-.45.53-.55.62-1.36,1.22-1.95a19.24,19.24,0,0,0,1.39-3.8c.25-.92.42-1.84.66-2.76a21.07,21.07,0,0,0-.25-5.2Zm26.76,2.76a33.28,33.28,0,0,1-3.59,1.49c-1.74.45-3.63,1-5.4.42-.45-.13-.85,0-1.3-.16a11.86,11.86,0,0,0-2.36.49,10.52,10.52,0,0,0-4.4,2.85l0,0a21.2,21.2,0,0,0-1.64,1.42c-.23.05-.3.35-.59.3-.12-.17.07-.54.06-.85a51,51,0,0,0,.56-5.18c.07-.29.07-.69.13-1.07a14.65,14.65,0,0,1,.71-2.81,8.25,8.25,0,0,1,1.46-3.2,5.7,5.7,0,0,1,2.4-1.41c2.35-.77,4.36.56,6.29,1.71L326.4,188c.88.64,1.74,1.52,2.69,2.08a26.85,26.85,0,0,0,3.53,2.23l-.22.17,0,0Zm-17.61,7.34c.16-.23.51-.34.6-.58s.38-.32.64-.47c.06-.16.29-.26.42-.39a10.19,10.19,0,0,1,3.32-2.24,6.51,6.51,0,0,1,1.72-.37c.67-.34,1.34.16,2.07.08a11.91,11.91,0,0,0,7.31-1.11,8.91,8.91,0,0,1,3.42-1.08,4.65,4.65,0,0,1,1.24-.35,5,5,0,0,1,2.39.51c1.53.19,2.39,1.29,3.39,2.37v.09c-1.12.33-2.39-.21-3.66.08-1.72,0-3.35.68-5,.79l0,0c-.95,0-1.82.67-2.8.52a.64.64,0,0,0-.68.37c-.22.53.35.64.37,1.12,0,.21.23.44.1.63a7.84,7.84,0,0,1-1.85,1.26,17,17,0,0,1-2.11.77c-.15-.13-.18.07-.33,0-.32,0-.66.08-1,0v0c-1.59.19-3.09-.76-4.75-.71a21.69,21.69,0,0,0-7.89,2.4,5.8,5.8,0,0,0-.63.16c0-.21.21-.32.35-.48,1.14-1.16,2.25-2.37,3.4-3.45Zm27.7-1.63c1.78.67,3.14,1.94,4.69,2.91.08.26.48.35.48.64a71.3,71.3,0,0,1-7.3.23c-2-.13-4.17.32-6.18-.23a7.37,7.37,0,0,1-1.43-.72,2.64,2.64,0,0,1-1.41-1.2c-.17-.24-.38-.46-.3-.77a33.68,33.68,0,0,1,5.7-1.15,13.76,13.76,0,0,1,4.4-.08c0,.06.07.08.08.1.43-.16.81.21,1.27.27ZM305.82,209a9.61,9.61,0,0,0,1.66.69l0-.05a7.45,7.45,0,0,0,3.36.29,19.42,19.42,0,0,0,3.88-.19c1.29-.06,2.4-.08,3.66,0,.78.35,1.59.19,2.24.78a7.56,7.56,0,0,1,2.36,1.67c.38.49.77,1,1.12,1.45a9.92,9.92,0,0,1,1.45,1.63,25.45,25.45,0,0,1,1.19,2.68c.25.54.25,1.18.49,1.74l0,.22c-1.78-.72-3.46-1.79-5.41-2a10.75,10.75,0,0,0-4.85-.16c-2.61.32-5.23,1-7.85.35a6.33,6.33,0,0,1-4.94-3.84c-.19-.61-.56-1.26-.69-1.9a8.77,8.77,0,0,1-.62-2.3c-.16-.42.07-1.09-.19-1.51a21.42,21.42,0,0,1,.15-2.38c.46.51.82,1.31,1.53,1.68v.06a12.36,12.36,0,0,0,1.48,1.15Zm34.26,10.88a5.38,5.38,0,0,0,2.81-.39l.05,0,.08-.11a11.21,11.21,0,0,1,6.31.38,1.83,1.83,0,0,0,.72.37,15.43,15.43,0,0,0,2.16,1.58c.26.32.36.84.67,1.13l.14.21c-2,1.9-2.17,4.91-1.82,7.65a5.2,5.2,0,0,0,.71,2.08,1.29,1.29,0,0,0,.3.22c-1.24.93-2.75.23-3.91-.22-.14-.16-.43-.29-.5-.53-.86-.84-1.38-2.32-2.63-2.71a3.71,3.71,0,0,0-2.88-.43,21.87,21.87,0,0,0-2.54-2.11,2.66,2.66,0,0,0-1.93-.64,14.83,14.83,0,0,0-1.45,1.17,11.32,11.32,0,0,1-4.42.13,6.6,6.6,0,0,1-1.82-.75c-.43-.39-.13-1.09-.26-1.61-.1-.78-.3-1.5-.46-2.27a18.83,18.83,0,0,1-1.14-2.4,10.66,10.66,0,0,1-.42-1.73,8.79,8.79,0,0,0-1.22-3.34,9.7,9.7,0,0,0-2.46-3.39c-.26-.42-.64-.8-.91-1.2a7.67,7.67,0,0,1,1.72.67c.1.06.07.22.24.17,1.45,1.62,3,3,4.63,4.45a20.87,20.87,0,0,0,2.49,1.63V218a22.13,22.13,0,0,0,7.74,1.91Zm11.26,31.37h0a15.7,15.7,0,0,1-1,3.48,9.29,9.29,0,0,0-.8,1.53c0,.25-.29.4-.22.68a.34.34,0,0,0-.07.31h.3c-.12,1.1-1,1.82-1,3a3.76,3.76,0,0,0-.2,2.9c0,.16.23.24.2.37a.53.53,0,0,1-.38-.13c0-.1-.26-.13-.24-.26a4.72,4.72,0,0,1-1.19-2.34c-.38-1.53-.21-3.43-.55-5a5.92,5.92,0,0,0-1.08-2.6,7.88,7.88,0,0,0-2.62-1.95h-.12v.27a6.82,6.82,0,0,0-1-.22c-.11-.08-.34-.1-.36-.26.27-.74.83-1.24,1.13-2a5.4,5.4,0,0,0,.37-2.47c.11-.07,0-.17,0-.27s-.08-.49.08-.65a5,5,0,0,0,.27-.58c.35-.74,1-.92,1.58-1.3l.06.05c.18-.17.56-.15.8-.22.77-.16,1.57.36,2.32.64a13,13,0,0,0,2.19,1.32c1.52,1.25,1.67,3.24,1.62,5.32-.13.07-.05.23-.05.33Zm-14.69,25.59a16.71,16.71,0,0,0-.5-2c-.48-1.74-1.87-3.08-3-4.38a19.61,19.61,0,0,1-3.89-5.27,7.59,7.59,0,0,1-.74-2.62c.42-1.84.85-3.68,1.13-5.6a13.34,13.34,0,0,0,.3-2.42l.19,0a11.83,11.83,0,0,0,.26,1.58c.22.59.06,1,.41,1.55a5.84,5.84,0,0,0,.41,1.33,8.78,8.78,0,0,0,2,2.82,10.23,10.23,0,0,0,1.65,1.58c1.06,1.23,2.37,2.39,3.43,3.72a8.25,8.25,0,0,1,1.63,2.75,4.39,4.39,0,0,1-.74,4.64c-.43.53-.78,1.23-1.18,1.75-.46.36-.93.72-1.36,1.1-.11-.16,0-.31-.05-.58Zm-5.15,16.72a20.61,20.61,0,0,1-.69,4.53.76.76,0,0,0-.22.64,3.49,3.49,0,0,1-.23.48,2.34,2.34,0,0,1-1.45,1.58,7.73,7.73,0,0,1-3.57-.35v0c-.5-.1-.93-.4-1.35-.48-1.07-.62-2.51-1.36-3.49-2,.74-.71,1.51-1.19,2.19-1.9a52.61,52.61,0,0,0,5.39-5.26c1.15-1.35,2.34-2.53,3.36-4a23.8,23.8,0,0,0,1.56-2.11c0,.46-.35.59-.38,1-.23.65-.47,1.29-.65,1.95-.09.91-.32,1.94-.32,2.88-.2,1,0,2-.15,3ZM330.36,285a29.45,29.45,0,0,1-2.51,3c-.69.64-1.33,1.68-2.07,2.29a35.79,35.79,0,0,1-3.55,3.53c-.4.42-1,.72-1.3,1.12-.65.83-1.63,1.26-2.36,2-.52.19-.93-.23-1.42-.38-.3-.23-.85-.26-.87-.74.91-.72,1.9-1.5,2.78-2.27s1.78-1.76,2.51-2.72c0-.26.36-.51.2-.83s-.38-.4-.62-.22c-1,.91-2.15,2.24-3.19,3.14-.38.24-.68.59-1,.75,0,.22-.33.23-.43.35a11.8,11.8,0,0,1-1.6,1.26c-.55.19-1.22-.2-1.74-.38s-1.06-.23-1.29-.56a38.32,38.32,0,0,0,3.27-2.68c1.42-1,2.35-2.59,3.72-3.6a80.6,80.6,0,0,0,6.23-7.45c1.45-2.15,2.75-4,4-6.26a2.33,2.33,0,0,1,.45-.85,5.91,5.91,0,0,0,.4-1.07,13.93,13.93,0,0,1,.67-1.42c.17-.22.2-.55.53-.63.26.18.29.39.55.63a17.35,17.35,0,0,1,1.79,2.14,5.77,5.77,0,0,1-.68,1.33c-.62,1-1.24,2.05-1.78,3.14a.78.78,0,0,0,.32.38.81.81,0,0,0,.65-.2c1-.93,1.45-2.2,2.39-3.11.31.26-.13.45-.16.74a13.13,13.13,0,0,1-.78,1.65,10.22,10.22,0,0,0-1.13,2.21c-1.12,1.53-2.49,3-3.57,4.43-.46.55-1,1.14-1.39,1.74a5.22,5.22,0,0,0-.38.54c-.29.35-.59.58-.83.92a.83.83,0,0,0,.22.73,2,2,0,0,0,.84.06c1.68-1.9,3.17-4,4.79-6,.61-.35.84-1.12,1.25-1.62a24,24,0,0,0,1.59-2.48l0,0,.07-.11a.9.9,0,0,1,.05.59c-.09.51-.41.74-.6,1.2-.49.83-1.13,1.62-1.6,2.46a29.56,29.56,0,0,0-2.42,3.14Zm-29,16.85a5.59,5.59,0,0,1-1.62-2.64c-.22-.61-.68-1.42-.24-2a3.38,3.38,0,0,1,2.48.21c.23-.07.19.16.39.11v0c1.45.61,2.28,2.48,3.73,3.17a1.38,1.38,0,0,0,.45.38,26.63,26.63,0,0,0,2.76,1.28c.08.14-.13.33-.11.51a1.75,1.75,0,0,0-.39.81l0,0a2.16,2.16,0,0,1-1.76.85,8,8,0,0,1-5.67-2.68Zm0,2.4v.11a6.11,6.11,0,0,1-5,.09,2.39,2.39,0,0,1-1-.93,3.49,3.49,0,0,1-1-2.24c1.14-.89,2.81-.77,4.27-.61.31.43.37,1,.8,1.36a3.46,3.46,0,0,0,.35.49,12,12,0,0,0,1.62,1.73Zm1.53-8.23c-.64-.14-1.12-.41-1.74-.57a4.51,4.51,0,0,0-3.07.27c-.46,0-.75-.45-1.15-.59a6.93,6.93,0,0,0-3.88-.48,11.8,11.8,0,0,0-2.82.59c-.56.26-1-.33-1.52-.35a25.18,25.18,0,0,1-2.24-1.45,56.53,56.53,0,0,1-5.09-4.94,52.12,52.12,0,0,1-4.72-6.5c-.75-1.68-1.55-2.94-2.16-4.62a11.62,11.62,0,0,0-.68-1.9,5.28,5.28,0,0,1-.46-3.33,6.7,6.7,0,0,0-.07-1.42c0-.34-.22-.45-.13-.84l.26.53a.64.64,0,0,1,.22.48c.51,1.52,1.57,2.8,2.19,4.32a26.91,26.91,0,0,0,2.27,3.6c.29.32.53.74.85,1,.48.06.58.61.93.85,1.9,2.07,4.13,3.39,6.29,5.07a31.76,31.76,0,0,1,2.51,2.36c1,.83,1.74,1.85,2.82,2.6,2,2.13,5.24,1.51,8,1.73a17.59,17.59,0,0,0,6.61-1.45,6.46,6.46,0,0,0,2.34-.93,8.92,8.92,0,0,0,2-2.1l.22-.08c1-.81,1.87-1.87,2.71-2.69,1.14-1,2.27-1.94,3.36-3a11.56,11.56,0,0,0,2.47-2.27,31,31,0,0,0,3.41-4,23.13,23.13,0,0,0,1.5-2.37c.37-.56.51-1.33,1.06-1.63.27.16.1.53.37.75s.21.64.5.81a6.23,6.23,0,0,0,.45,1.09c.07.51.71,1.07.07,1.46-1,1.75-2.35,3.3-3.46,5-.78,1-1.59,1.82-2.36,2.81a40.13,40.13,0,0,1-4.14,4.33,28.68,28.68,0,0,1-4.5,4.23,7.13,7.13,0,0,1-1.44,1c-.52.26-.94.78-1.59.85a13.59,13.59,0,0,0-6.18,1.78Zm-15.46.37c-.71.32-1.46.75-2.19,1.09l-.05-.05c0,.05-.13.08-.1.16-.22-.11-.19.29-.41.19-.23.19-.58,0-.87-.13a16.21,16.21,0,0,1-2.42-2l0,0a2.84,2.84,0,0,0-1-.83v-.07c-.29-.22-.69-.43-1-.68a3.91,3.91,0,0,0-1.13-.22.56.56,0,0,0-.25.59,4.87,4.87,0,0,0,1.22,1.49c1,1,2,2,3,2.81,0,.23-.3.35-.48.42-.54,0-1-.42-1.42-.64-.78-.8-1.68-1-2.26-1.9l-.06,0a6.77,6.77,0,0,0-1.13-1.14c0-.22-.07-.1-.18-.26a11.68,11.68,0,0,0-1.1-1.15l0,0c-.35-.39-.69-.93-1.09-1.3a1,1,0,0,1-.24-.4,14,14,0,0,1-1.29-1.54v0c-.46-.48-.74-1.13-1.16-1.63-.32-.71-.89-1.38-1.23-2.09l-.06,0c0-.29-.19-.48-.23-.75-.24-.15-.17-.47-.4-.67a10.15,10.15,0,0,1-.86-2,10.94,10.94,0,0,1-.53-1.71c-.16-.61-.48-1.33-.61-1.84a6.5,6.5,0,0,1,.67-1h.19c.29,1.14.94,2.1,1.2,3.19.58,1.21,1.1,2.47,1.68,3.63.32.11.45.72.87.53.27-.07.4-.35.48-.61a3.85,3.85,0,0,0-.45-1.31,4.93,4.93,0,0,0-.68-1.52c0-.29-.31-.35-.28-.64s-.35-.77-.41-1.2c-.25-.64-.55-1.46-.84-2.1-.06-.54-.26-1-.32-1.55.74-.64,1.55-1.41,2.27-2,.22.32.13.78.45,1.07.48,2.29,1.78,4.23,2.75,6.31a43.75,43.75,0,0,0,5.86,7.66,26.88,26.88,0,0,0,4.29,4.1c.59.49,1.31.94,1.87,1.39,0,.08,0,.19-.08.19v0Zm-17.64-4.22a16.34,16.34,0,0,1-.1-2.72l.1-.13a45.09,45.09,0,0,0,3.36,4.4,12.08,12.08,0,0,0,2,2.21,17.17,17.17,0,0,0,3.95,3.59,5.86,5.86,0,0,0,.8.61,3.19,3.19,0,0,1-1.52.91,2,2,0,0,1-.8.42,34.47,34.47,0,0,1-3.34,1.42l-.29.23a3.59,3.59,0,0,1-3-.07c-.24-.08-.22-.33-.46-.35s-.29-.27-.45-.38c-.69-1.46-.53-3.12-.51-4.89.16-1.6-.08-3.6.19-5.25Zm-6.23-12.94c0,.06-.16,0-.06.1s-.08,0-.1,0a3.42,3.42,0,0,1-.32-1.15c-.24-.68.08-1.87-.88-2.19a4.16,4.16,0,0,1-1.06-1.81,2.57,2.57,0,0,0-.3-.77,7.72,7.72,0,0,1-.13-2.33c.06-.64.4-1.14.46-1.76.05-.05.13-.05.13-.12.16-.24.18-.59.35-.84a12.11,12.11,0,0,1,4.66-4c1.13-.4,2-1,3.1-1.44.14-.3.5-.24.64-.49.35-.23.48-.61.83-.8a3.77,3.77,0,0,1,.36.62,20.1,20.1,0,0,0,.85,3.06c.13.67.53,1.36.22,2.11a2.72,2.72,0,0,1-.55,1.71,3,3,0,0,1-1.44,1.19c0,.2-.27.17-.35.3a17.37,17.37,0,0,0-5.61,6.19v.18c0,.11-.16.27-.21.4a6.07,6.07,0,0,0-.45,1.6l0,0c-.05.07-.05.18-.12.18Zm-2.6-21a4.72,4.72,0,0,0,3-1,9.32,9.32,0,0,0,2.4-4.08,1.47,1.47,0,0,0,.27-.63c.05-.11.41.5.47.87a5.13,5.13,0,0,1-.53,2.88c-.56,1-1.74,1.68-2.39,2.65a8.52,8.52,0,0,1-1.72,1.16c-1.14.91-2.29,1.79-3.49,2.65-.87.91-1.87,1.84-2.64,2.82l-.08.06a1.06,1.06,0,0,1-.19.48c-.08.16-.13.32-.27.35s-.32-.27-.32-.51a4.76,4.76,0,0,1,.3-3.57,1,1,0,0,1,.26-.55c.91-.11,2,.16,2.91-.24a3.51,3.51,0,0,0,1.46-1.71c0-.22.16-.29.23-.48.13,0,.16-.22.22-.35,0-.28-.09-.65.14-.79Zm17.93-26.56c-.16.27-.54.4-.84.59-.75.32-1.06,1.23-1.71,1.6a8.31,8.31,0,0,0-2.23,1.73c-.62.46-.83,1.15-1.55,1.36-.72.75-1.17,1.63-1.81,2.26-.81-.29-1.36.75-2.24.33-.35-.26-.16-.77-.13-1.2a9.43,9.43,0,0,1,.4-1.3c.23-.84.91-1.5,1.09-2.36a7,7,0,0,1,2.35-2.55c.35-.11.56-.38.93-.46a15.77,15.77,0,0,1,4.21-.29v0a8,8,0,0,1,1.53.24Zm2.74.87a12.7,12.7,0,0,0,5.33-.34c.22,0,.13.26.1.29-.35.55-1,1-1.3,1.49a5.09,5.09,0,0,1-1.3,1,15.74,15.74,0,0,0-2.21,1.29h-.13c-1.84.85-2.62,2.9-3.66,4.4a8,8,0,0,1-.64,1.19c-.26.4-.32.78-.8,1a1.11,1.11,0,0,1-.48.22,1,1,0,0,1-.88.24c0-.13-.16-.1-.22-.24a13.11,13.11,0,0,1,1.52-7c.38-.54.77-1.13,1.17-1.6a23.79,23.79,0,0,1,3.5-1.83ZM274.46,238a11.12,11.12,0,0,0-.53,2.19,7.87,7.87,0,0,0,0,2.82c.19.8-.67,1.14-1,1.74a6.32,6.32,0,0,1-.72.64,7,7,0,0,1-1.17.68c-.32.14-.29-.18-.38-.34a2,2,0,0,0-.1-.29c.19-.68-.61-1-.32-1.63.22-1.2,1-2,1.29-3.17.91-1.14,1.59-2.46,2.81-3.2.33,0,0,.31.11.56Zm-5,3.3.09.22c-.05.15-.18.34-.23.53v.16a3.45,3.45,0,0,1-.18.51,10.75,10.75,0,0,0-.49,2.56c-.07.08-.21.22-.21.35-.64.29-.85,1.14-1.63,1.13-1.2-.07-2.64-.23-3.19-1.34-.33-1.14.29-2.05.85-3,.74-.54,1.58-1.58,2.69-1.3.7-.08,1.5.32,2.3.16Zm-.8,12c-.08,0,0-.3-.08-.38a10.27,10.27,0,0,0-1.1-2.35c0-.35.23-.51.38-.8.1,0,.23-.19.23-.19s.28,0,.27-.07a.42.42,0,0,0,.16,0c0,.11.23,0,.23,0,.24.24,0,.71.19,1a20.07,20.07,0,0,0,.16,3.12c.13.21,0,.71.1,1,0,.18-.21.12-.29.1-.33-.4,0-1.13-.25-1.55Zm-11.41,14h0c.51-1.45,1.84-2.3,2.94-3.45,1.13-.85,2.37-1.76,3.47-2.66.47-.16.71-.56,1.16-.81a35.1,35.1,0,0,0,2.56-2.61,6.16,6.16,0,0,0,.91-1.41c.67-.06.85.55,1.14,1a3.49,3.49,0,0,1-.06,3.09c-.08.13-.26.16-.23.32l0,0c-.9,1.15-2.42,1.5-3.73,2.22a28.45,28.45,0,0,0-3.06,1.38h-.11c-1,1.47-2.45,2.27-2.81,3.89-.24.45-.27,1-.54,1.45a1,1,0,0,1-.18.53,1,1,0,0,1-.78-.22c-.13-.24-.24-.27-.28-.58a3,3,0,0,1-.4-1.95Zm7.57,12.58c.13-.51.32-1,.4-1.5a8.86,8.86,0,0,1,1.06-2.05.9.9,0,0,1,.23-.32,17.12,17.12,0,0,1,4.86-4.61l-.05.1v1.28c.18.22.13.46,1,.67v.13c-1.08.08-1.2.22-1.17.38-1.3,1.74-3.44,2.81-4.59,4.75a3.24,3.24,0,0,0-.8,1.52c-.23.22,0,.64-.29.8a3.24,3.24,0,0,0-.08.59c-.15.05-.07.16-.19.23-.7-.24-.25-1.28-.38-2ZM326.46,269a19.6,19.6,0,0,1,.87-2.11,2.76,2.76,0,0,1,.52-1.09.22.22,0,0,0,0,.11c.14.05.14.26.27.37a15.12,15.12,0,0,0,1.78,2.88c0,.4-.3.72-.32,1.12-.14-.07,0,.06-.11.11a3.49,3.49,0,0,0-.42,1c-.23.48-.45,1-.68,1.42-.06.32-.38.51-.53.8a1.87,1.87,0,0,1-.77-1,6,6,0,0,1-.46-1.6c-.35-.59.12-1.28-.17-1.93Zm1.92-39.75c-.22.32-.26.77-.54,1-.56-1.17-1.9-2-2.49-3.19a12.64,12.64,0,0,0-5.4-2.7c-3-.84-6-1-8.92-2.18a3.7,3.7,0,0,1-1.14-.91c-.21-.45-.24-.93-.43-1.39,0,0,0,0,0-.08a30.72,30.72,0,0,0,5.95-.45,14.42,14.42,0,0,1,6.5.06c1.14.32,2,1.07,3.14,1.39a4.79,4.79,0,0,0,.88.43,8.85,8.85,0,0,1,2,2c.08.34.36.61.38,1a11,11,0,0,1,.05,5Zm10.53,22.55a4.76,4.76,0,0,0,.33.91c-.12.32.22.9-.3.9a3.57,3.57,0,0,1-2.13-.74,6.17,6.17,0,0,0-1.75-1.23c-.11-.07-.17-.29-.36-.21a1.39,1.39,0,0,0-.77,1.06,3.76,3.76,0,0,0-.59,2.46v.33H333c0,.15-.07.26,0,.42a1.46,1.46,0,0,0-.15.49c0,.61-.12,1.09-.07,1.65-.07,0-.08.06.57.08V258c-.69,0-.72,0-.72.06a1,1,0,0,1-.13-.22,3,3,0,0,0-.32-.65,11.07,11.07,0,0,1-.23-1.49.64.64,0,0,1-.1-.48,24.9,24.9,0,0,1,.1-3.36c-.06-.64-.06-1.28-.13-2a4.54,4.54,0,0,0-.74-2.72,5,5,0,0,1,1.28-2c.32-.58,1-.38,1.39-.88a7.94,7.94,0,0,1,4.38,1.39,6,6,0,0,1,1.83,2.27c.16.1.37.23.27.39h0c-.51.67-.64,1.55-1.35,2a2.85,2.85,0,0,0,.08,1.56ZM340.14,267c-.61-.72-1.2-1.46-1.9-2.2-.95-.94-1.73-1.78-2.57-2.66,0-.2.07-.35-.09-.54a7.49,7.49,0,0,1-.91-2.23c0-.39-.37-.83-.09-1.14.16,0,.21.26.25.31.42.4.75,1,1.3,1.29.09.26.48.32.64.53,1.33,1.28,2.94,2.4,3.6,4.18a5.56,5.56,0,0,1,.84,4.14l-.07,0c0,.13-.07,0-.15,0A8.39,8.39,0,0,0,340.14,267Zm1-4.33c-1.25-1.94-3.3-3.11-4.79-4.71a8.49,8.49,0,0,1-1.12-2.08c.06-.45-.23-.9,0-1.3s-.45-.43-.23-.88c1,.19,1.74,1.15,2.85,1.36a5.46,5.46,0,0,0,1.9.13c.14.16.34.08.53.06a.7.7,0,0,0,.47-.56,3,3,0,0,0,.11-.74c.08-.46-.08-1,.06-1.34.75.14,1.07.72,1.79,1.1a4.8,4.8,0,0,1,1.29,2.94c.29,1.39.06,3,.45,4.32a4.58,4.58,0,0,0,.46,1.41c0,.19.13.35.22.49.19.45.61.74.77,1.17a12.93,12.93,0,0,1-2.06,0c-1-.32-2.51,0-2.7-1.39Zm8.53-19.43c-.69-.35-1.2-.78-1.92-1.14a5.15,5.15,0,0,0-4-.49c-.08-.05-.19.06-.24.11s-.05,0-.08,0c-.45.45-1.29.58-1.59,1.23-.23.08-.22.26-.3.39a5.09,5.09,0,0,1-.58.81c.1.29-.28.22-.23.45l0-.06c-.07.19-.29.22-.22.43l0,0a.7.7,0,0,1-.22.48c-.08.1-.3-.07-.36-.13-.23-.22-.52-.32-.65-.53l-.06,0c-.14-.27-.45-.36-.64-.59a8.88,8.88,0,0,0-3.24-1.33,12.94,12.94,0,0,0-2.06-.19,10.29,10.29,0,0,0-2,1.39c-.08.18-.35.34-.49.45a1.63,1.63,0,0,1-.31.27.89.89,0,0,0-.24-.09l0-.36a30.65,30.65,0,0,0-.58-5c-.09-.84-.16-1.71-.32-2.51a9,9,0,0,0-.32-3c.06-.26.35-.35.32-.67.35.08.72.51,1.14.48,1.28.8,3.14.72,4.59.64a5.88,5.88,0,0,0,3.09-1.62,3.14,3.14,0,0,1,.46-.64c.22.13.74.19.87.56a5.8,5.8,0,0,1,1.85,2.53c.22.1.22.39.31.61-.09.51.37.83.3,1.33a.49.49,0,0,0,.45.4c.85-.27.91-1.33,1.5-1.89A5.46,5.46,0,0,0,344,233a21.46,21.46,0,0,0-.55-2.27c.22-.14.61,0,.86,0a2.85,2.85,0,0,1,1.55,1.42c.29.42.88.71.85,1.3-.1.08-.07.23,0,.32a7,7,0,0,0,1.13,3.87c-.1.26.15.38.13.58a14.84,14.84,0,0,1,1.09,1.82c.56.61.91,1.39,1.81,1.57.23.33.59.11.76.49a13.93,13.93,0,0,0,1.75.34c.42-.18,1,.06,1.44-.21.08,0,.06.05.08.11a9.28,9.28,0,0,1-.68.87c-1.2,1.23-3.13.6-4.52,0Zm-20.46-12.43.08-.42a.88.88,0,0,0,.16-.32c.13-.51.22-1,.4-1.55a9.91,9.91,0,0,0,4.29.88,3.93,3.93,0,0,0,3.24-1,2.8,2.8,0,0,0,1-.59,3.78,3.78,0,0,1,.9.56c.53.53,1.3.9,1.82,1.49,0,.4.38.53.48.91.27.19.29.58.58.8a5.57,5.57,0,0,1,.29,1.78s-.07.06-.06.08-.07.08-.09.11c-.38-.4-.62-.91-1-1.34a10.56,10.56,0,0,0-1.43-1.41,2.29,2.29,0,0,1-1.09-1,.58.58,0,0,0-.68-.21c-.55.23-.48.8-.84,1.22V231a4,4,0,0,1-4.17,1.64c-.64-.16-1.36,0-1.9-.51-.85-.15-1.25-.95-2-1.33Zm-36-31.76c-.91.64-1.87,1.56-3.12,1.2-1-.35-2.29-.79-2.78-1.75-.21-.78-1.12-1.12-1.89-1.23a7.63,7.63,0,0,1-2.08-1.33,3.92,3.92,0,0,1-1-1.89,5.39,5.39,0,0,1-.16-2.38c.06-.32.39-.23.53,0a3.65,3.65,0,0,1,.81.42,6.85,6.85,0,0,1,2.05.32c.1-.1.07.08.18.06,1.66.24,2.67,1.84,3.26,3.3.19,1.12,1.3,1.68,1.92,2.48.67.59,1.58.35,2.4.46.21.18-.16.23-.16.39Zm-8.32-12.82c-.77.45-1.3.87-2.05,1.28a10,10,0,0,1-6.69,2.05,3.31,3.31,0,0,1-2.14-.79l.93-.42a53.47,53.47,0,0,1,12.77-4A30.87,30.87,0,0,0,284.92,186.23Zm-4.54,5.58c-.17-.08-.42-.22-.68-.33a3.83,3.83,0,0,1-.61-.31c.46-.22,1-.35,1.53-.57l0,.86v-.06l-.08.08C280.65,191.64,280.46,191.7,280.38,191.81Zm18.46,27.44h0s.37-.86.39-1h.06a4.36,4.36,0,0,1,.26-1.2,2.18,2.18,0,0,1,.8.64c.13.56.88.68,1,1.2a12,12,0,0,0,3.07,2.17,15.12,15.12,0,0,0,3.46,1,1.37,1.37,0,0,1,.75-.05c.06.74.9.84,1.26,1.38.32.16.71.27,1.07.46a24.59,24.59,0,0,0,4.72,1.25c2.07.45,4.52.38,6.34,1.65a5.68,5.68,0,0,1,3,2.53,7.25,7.25,0,0,1,1.81,3.07c.25.48.12,1.12.34,1.62a9.5,9.5,0,0,1,.23,1.9l-.14.35v.35a.57.57,0,0,1,.05.23c-.3,0-.5-.34-.7-.58a7.66,7.66,0,0,0-1.55-1.76,19.75,19.75,0,0,0-3.62-2.91c-4.38-2.5-9.6-3.38-14.74-4-3.07-.38-6.08-.43-8.94-.86-.71-.18-1.67-.29-2-1,0-.48.43-.64.49-1.13a15.22,15.22,0,0,0,1.62-3.09c.13-.16.16-.4.29-.59s.19-.21.16-.55h0a3.27,3.27,0,0,0,.41-1Zm-2.66,8.68c.6.23,1.29.32,1.92.5,1.95.1,4.14.34,6.12.42,0,.1,0,0,.1.06l.06-.06c1.27.16,2.65.19,4,.45v0a43.46,43.46,0,0,1,5.8,1.08,39.67,39.67,0,0,1,4.59,1.5,8.08,8.08,0,0,1,2,1.19,20.35,20.35,0,0,1,3.39,2.74c.22.32.48.61.71,1a15.68,15.68,0,0,1,1.24,1.71c.22.48.67.9.74,1.45.29.24,0,.68.35.93-.06.29.29.31.45.47l.41.06c.06,1.53.32,3.24.27,4.88a56.27,56.27,0,0,1-.27,7.44,2.52,2.52,0,0,0-.07.69c-.07,1.32-.39,2.85-.57,4.25-.2.87-.35,1.66-.62,2.5-.16,1.19-.66,2.27-.83,3.46l-.48,1.82a8.31,8.31,0,0,0-.45,1.11,15.92,15.92,0,0,1-.87,1.69,2.58,2.58,0,0,1-.28.58,11,11,0,0,0-1.5,2.61c-.08.16-.22.29-.23.45-.19.13-.22.32-.39.5a1.75,1.75,0,0,1-.35.56,27.87,27.87,0,0,1-4.17,4.92c-.37.48-.89.93-1.28,1.35-.06,0-.09,0-.09.06a3.36,3.36,0,0,1-.51.32c-1.08,1.11-2.27,1.92-3.43,3-1.53,1.22-3,2.83-4.57,4.15a7.76,7.76,0,0,1-3.71,1.79c-2.93.89-6,.7-9,.54a5.86,5.86,0,0,1-3.25-2c-.58-.69-1.44-1.38-2-2.18-.83-.87-2.06-1.69-2.88-2.5a11.61,11.61,0,0,1-1-.67,11,11,0,0,0-1.29-1,25.6,25.6,0,0,1-4.32-4c-.51-.16-.58-.66-.92-1-.14-.42-.53-.63-.64-1.13s-.5-.79-.68-1.22c0-.21-.19-.28-.26-.5-.51-.92-1-2-1.56-3-.39-.68-.48-1.45-.84-2.13s-.55-1.25-.74-1.89a17.06,17.06,0,0,1-.77-1.87,47.87,47.87,0,0,1-1.9-8.23c-.12-.13,0-.42-.15-.58-.16-1.37-.32-2.43-.37-3.71a24.43,24.43,0,0,1-.06-4.68,6.13,6.13,0,0,0,2.91-1.82c.45-.29.74-.77,1.24-1.08a4.21,4.21,0,0,1,.95-.19,4.84,4.84,0,0,1-.66,1.19c-.48.92-1.35,1.74-1.32,2.93a1.28,1.28,0,0,0,.92.67,5.08,5.08,0,0,0,1.51.05c-.22.14-.08.32-.08.48.26.26.64.1,1,.1a1,1,0,0,0,0,.51,8.9,8.9,0,0,0,7.09,3.13c.13.22.42,0,.64,0a.83.83,0,0,1,.42-.05,65.87,65.87,0,0,0,6.69-2c.48-.35,1.27-.61,1.12-1.32-.87-1.29-2.33-1.9-3.52-2.72a14.71,14.71,0,0,0-2.56-.76,12.53,12.53,0,0,0-5.06.32c-1.6.58-3.08,1.39-4.58,2a1.23,1.23,0,0,1-.39.08c-.06-.13.16-.22.26-.26l2.19-1.52c.1-.08,1.6-1,1.76-1.06a6.41,6.41,0,0,1,4.14-.85,16.44,16.44,0,0,1,1.79.64.47.47,0,0,0,.42-.16c0-.65-.22-.87-.73-1.3a8.18,8.18,0,0,0-3-.43,9.07,9.07,0,0,0-2.63.7,4.17,4.17,0,0,0-1.32.7c-.83.4-1,.77-1.75,1.14-.32.32-1.15.82-1.5,1.14a4.35,4.35,0,0,1-1.44.36c0-.39.38-.58.45-1,.1-.13.29-.18.22-.42a8.84,8.84,0,0,0,.95-1.32,11.09,11.09,0,0,1,2.35-1.82,12.62,12.62,0,0,1,4.7-.66,56.23,56.23,0,0,0,6.51.58c1.29-.23,2.69-.32,3.72-1.19.19-.18.16-.47.26-.7a.55.55,0,0,0-.79-.14,7.28,7.28,0,0,1-3.83.76,34.85,34.85,0,0,1-3.63-.15c-1.5-.19-2.67-.65-4.18-.38-.47-.08-1.54.49-2,.36,0-1.58,1.37-2.94,2.27-4.32a13.06,13.06,0,0,1,3-1.82c.66-.53,1.59-.87,2-1.66a8.59,8.59,0,0,0,1.58-1.9,2.73,2.73,0,0,0,.16-1.16s0-.05,0-.1v-.09c1.16-.68,2.19-1.45,3.3-2.19.08-.1.32-.26.35-.42a7.39,7.39,0,0,0,1.56-1.5c.31-.38.47.1.79.22,0,.36.49.41.84.57ZM277.5,250.2c.29-.06.67-.35.84-.08v.75c-.07,0-.21,0-.23-.14l0,0a3.13,3.13,0,0,1-.59-.56Zm11.13-.22a1.81,1.81,0,0,1-.37,1.86,7.26,7.26,0,0,1-2.61.84,8.5,8.5,0,0,1-2.89-.08,8.72,8.72,0,0,1-2.47-.89,1.11,1.11,0,0,0,0-.92,1.56,1.56,0,0,1,0-1.25,11.43,11.43,0,0,1,4.33-1.48,11.21,11.21,0,0,1,4,.72c.15,0-.39.2-.08,1.2Zm1.1-.69a9.81,9.81,0,0,1,1.94,1.41,6,6,0,0,1-1.67.59s.15-1.47-.27-2ZM280,225.8c-3.27.38-7.07.08-9.79,2.08-.84.51-1.52,1.39-2.56,1.68-.93.61-2.11.83-3.07,1.46-2.16.56-4.74,1.13-6.95.27a4.69,4.69,0,0,1-2.89-1.52c.8-.11,1.6,0,2.46-.19a10.06,10.06,0,0,0,4.56-1.9c1.45-.8,2.61-2.05,4.08-2.87a11.07,11.07,0,0,1,5.2-2.64,9.77,9.77,0,0,1,4.95.1l.13.11c.69.05,1.14.42,1.82.51a6.12,6.12,0,0,0,1.81,1c.83.54,1.76,1.07,2.65,1.55l0,.11a8.39,8.39,0,0,1-2.42.27ZM255.11,232c.29,0,.45.35.71.4a11.92,11.92,0,0,0,6.91.93,13.44,13.44,0,0,0,3.56-1h.14c-.08.48-.38.84-.35,1.38-.11.22-.06.48-.16.69a10.39,10.39,0,0,0,.45,5c-.22.22-.67.19-.94.38a5.63,5.63,0,0,0-3.3,4.5c.06,1.07-.29,2.2.43,3a2.44,2.44,0,0,0,1.62,1.36c.35.64,1.2.45,1.78.66.06.36-.31.57-.38.94-.19.16-.15.42-.39.56.06.16-.13.16-.1.29a22.81,22.81,0,0,1-.78,2.42,6.75,6.75,0,0,1-1,1.93,3,3,0,0,1-2.51,1.57c-.85.11-1-.72-1.58-1.1-.23-.47-.39-.9-.62-1.46a3.22,3.22,0,0,0-1.64-2.53,2.82,2.82,0,0,0-1.56-.19,3,3,0,0,0-1.7,1.68,4.19,4.19,0,0,0,.42,2.16,4.66,4.66,0,0,0,3.84,2.49c.36.1.68-.11,1-.06a2.29,2.29,0,0,1-.4,1.29c-.16.53-.48,1.2-1.12,1.22a4.13,4.13,0,0,1-2.06-.16c-1.67.06-2.29-1.39-3-2.58-1.52-.86-2.29-2.24-3.27-3.66a7,7,0,0,1-1-3.52c.61-1.12,1.78-2.17,2.14-3.46.09-.33.31-.62.39-1s.15-.8.39-1.14a10.56,10.56,0,0,0,0-6.27,13.92,13.92,0,0,0-1.78-3.87c-.48-1.17-1.7-1.91-2-3.17a4.45,4.45,0,0,1-.32-.91c.23-.53.06-1.13.42-1.59l0,0,.16-.25c.29.06.27.4.46.54a5,5,0,0,0,1.89,2.27c.19.16.49.21.68.39a6.36,6.36,0,0,0,3.91.38c.18-.15.56-.2.64-.47Zm2.29,24c-.07.11-.29.08-.39,0a4,4,0,0,1-1.6-2.14c.1-.44.4-.63.78-.9.72.13.55,1.06.83,1.6a5.36,5.36,0,0,0,.38,1.41Zm-21-28.8a6.77,6.77,0,0,0-3.32,1.46c-.16-.08-.16.19-.2.1a16,16,0,0,1,1.82-2.13,14.72,14.72,0,0,0,1.54-1.36l0,0A6.07,6.07,0,0,0,236.44,227.16Zm-3.07,4a9,9,0,0,1,3-1.78c.32-.13.68.13,1-.13.22,0,.16.19.27.29a6.32,6.32,0,0,0,1.73,2.14v0a3.58,3.58,0,0,0-2.13-.19,3.11,3.11,0,0,0-1.86,1.55c0,.61-.11,1.33.53,1.6a.82.82,0,0,0,.83-.19c.24-.24.19-.64.56-.75a1.5,1.5,0,0,1,1.16-.21,1.37,1.37,0,0,1,.43,1.36,2.45,2.45,0,0,0-.3.58,3.46,3.46,0,0,1-3,1.74,3.1,3.1,0,0,1-2.53-2.35c0-1.28-.36-2.59.31-3.71Zm1.5,8a5.06,5.06,0,0,0,5.17-3c0-.3.3-.48.23-.8a2.1,2.1,0,0,0,.1-.81,7.68,7.68,0,0,0-.5-1.86c-.18-.27-.35-.53-.51-.81.9.51,1.84,1.07,2.82,1.52s2.13,1.23,2.32,2.43a7,7,0,0,1-1,5.09c-.94.81-1.76,1.71-3,1.85s-2.81,0-3.73-.91c-.91-.55-1.95-1.2-1.84-2.51v-.18Zm54.48,65.41a10.65,10.65,0,0,1,3.85-1c.31.25.34.83.68,1a3.8,3.8,0,0,0,2.2,1.84,8.65,8.65,0,0,0,2.37.38,5.74,5.74,0,0,0,3-.69c.53-.1.61-.62,1.09-.88a5.47,5.47,0,0,0,3.27.83,3.27,3.27,0,0,0,1.68.19,4.8,4.8,0,0,0,2.66-2.32c.22-.4.46.06.64.19s.43.19.5.38a30.39,30.39,0,0,0,3.25,2.72c.46.25,1,.61,1.55.9a4.1,4.1,0,0,1,1.2.49,67.44,67.44,0,0,1-34.69-.08c2.27-1.26,4.36-2.87,6.77-4Zm70.18-76.11a11.73,11.73,0,0,0-3.07,2,14.46,14.46,0,0,1-3.12,2.07c0-.83-.68-1.46-.68-2.29a7.93,7.93,0,0,1-.18-2.49,4.93,4.93,0,0,1,.93-2.95c.35-.75,1.17-1,1.75-1.5.71-.24,1.46-.4,2.2-.61l1,0a4.92,4.92,0,0,1,1.94,1.82c.19.55.68.88.81,1.49.38.45.39,1,.67,1.55.07.1.17.18.13.34a4.25,4.25,0,0,0-2.37.51Zm-4-6.9c-.29.27-.75.24-1.07.51a.91.91,0,0,1-.18-.48c-.4-.59-1.18-.9-1.66-1.3l-.07-.08a22.71,22.71,0,0,1,2.32.13,12.41,12.41,0,0,0,1.81.72l.24.24C356.38,221.27,356,221.59,355.52,221.56Zm-7.4-3.33c-.07-.08-.14,0-.22,0l0,0c-1.48-.61-3.42-.21-4.94-.1-1.39.69-2.88.32-4.33.19-1.3-.29-2.53-.54-3.82-.91-1.16-.19-1.84-.93-2.8-1.42-.69-.61-1.58-1-2-1.75a1.09,1.09,0,0,1-.38-.43c-1-.9-1.71-1.7-2.66-2.58a4.13,4.13,0,0,0-1-.94,2,2,0,0,1-.83-.45,10.47,10.47,0,0,1,2.13-.59,16.16,16.16,0,0,1,4.18-1,24.48,24.48,0,0,1,4.27.56c0,.11.13,0,.16.08a7.82,7.82,0,0,0,2.51.42c.16.14.46,0,.67.11,2.06.32,4,0,6.28.23a15,15,0,0,1,4.1.91,4.28,4.28,0,0,1,2,1c.78.46,1.45,1.07,2.2,1.6.43.81,1.14,1.23,1.6,2a11.12,11.12,0,0,0,2.24,2c-2.28,2.43-6.23,1.79-9.26,1.07Zm18.91-10h.28a23.87,23.87,0,0,1,1.77,3,8,8,0,0,1-.62-.54,20.43,20.43,0,0,0-2.3-1.95l.87-.47Zm-4.24-.49a36.46,36.46,0,0,1,3.55,2.54v.23c.41.4.92.58,1.23,1.06a18.5,18.5,0,0,1,1.77,1.53v.17c1.08.89,1.53,2.12,2.6,3.11.16.61.83,1,.87,1.68.31.14.13.56.44.71a3.5,3.5,0,0,1,.55,1.81c-1.11-.92-2-1.94-3.12-2.91a25.93,25.93,0,0,0-2.7-2.54c-.74-.68-1.63-1.21-2.29-1.92-1.24-1-2.68-1.57-4-2.41a1.71,1.71,0,0,1-.26-.21,32.15,32.15,0,0,0-7.79-2.83c-1.45-.39-3.21-.34-4.61-.66q-3.63-.48-7.28-.78a24.69,24.69,0,0,1-6.23-1.31c-.82-.63-1.87-.86-2.6-1.52a5.41,5.41,0,0,1-1.61-1.55v-.47a20.86,20.86,0,0,0,2,1.3c1.72.9,4.09.61,6,.61.09.16.21,0,.31,0,1.7-.19,3.24-.1,4.91-.19l.08.06a15.07,15.07,0,0,0,2.44-.06,12.54,12.54,0,0,0,1.5-.13c.38.07.93,0,1.28.23,1,.27,2.24-.16,3.2.35a11.78,11.78,0,0,1,3.3,1c.59.38,1.35.4,1.92.8a4.58,4.58,0,0,1,1.51.68,8.91,8.91,0,0,1,3,1.67Zm-6.45-4.29v0c-.79-.27-1.58-.6-2.37-.8l-.13-.48,2.21-1.91h.22c1.57,1.27,2.66,3.33,3.89,4.82-1.24-.56-2.46-1.12-3.82-1.6Zm-46.82-33.89a54.17,54.17,0,0,1,10.41,2c-.19,1-.52,2-.8,3-2.15-.56-4.45-.89-6.63-1.44l-.19.08c-.22,2.06-.74,4.07-.94,6.09a52.89,52.89,0,0,1,5.71,1.13c2,.51,3.92,1.16,5.88,1.77l.2-.08,3-8.44.23-.14a65.44,65.44,0,0,1,7.67,3.23,7.37,7.37,0,0,1,2.17,1.36l-1.35,2.57c-2.2-.88-4.26-2.1-6.46-3-.93,1.82-1.55,3.79-2.3,5.65a75.56,75.56,0,0,1,10.49,5.53l.22-.19c1.37-2.57,3.1-5,4.68-7.48h.38a62.62,62.62,0,0,1,8.47,6.3v.28a16.34,16.34,0,0,1-1.83,2.16c-1.88-1.41-3.74-2.81-5.47-4.13-1.22,1.64-2.35,3.32-3.51,5l.27.33a69.31,69.31,0,0,1,9,7.63c2.24-1.91,4.2-4.17,6.5-6.22l.34-.05a52.78,52.78,0,0,1,7.34,9,11.71,11.71,0,0,1-2.51,1.68,69.08,69.08,0,0,0-4.59-5.71l-4.49,4,.13.16c-.44-.2-.86-.42-1.31-.58a10.22,10.22,0,0,1-1.94-1.25c-.65-.59-1.43-1-2-1.5a7.31,7.31,0,0,1-1.55-1.14c-1.88-1.44-3.3-3.81-5.5-5-1.36-.39-2.81-1.09-4.16-.9a30.84,30.84,0,0,1-5.44-3.07,18.11,18.11,0,0,0-1.76-1.41,12.68,12.68,0,0,0-8.9-4.14,5.21,5.21,0,0,1-1.64.19c-1.51-2.59-4.6-2.86-7.15-3.76a3.71,3.71,0,0,1-1.75-1.5c.38-2.7.69-5.41,1.06-8.1Zm-2.63,9.13c.31.11.51.61.78.8,2.18,2.67,6.47,1.31,8.28,4.51,0,.08,0,.19-.09.19l0,0a9.5,9.5,0,0,0-2.08,2.39,5.06,5.06,0,0,0-.39,1.31.44.44,0,0,0-.16.29c-.1.14,0,.4-.14.51s-.07,0-.09.06,0,.39-.17.48a3.45,3.45,0,0,1-.35,1c.06.13-.19.16-.09.26-.33.14-.46-.29-.69-.39a11.69,11.69,0,0,0-5.83-3,15.15,15.15,0,0,1-2.64-.08c0-.08-.11-.06-.22-.08s-.27-.21-.45-.19a1.92,1.92,0,0,1-1.14-1.25,3.09,3.09,0,0,1,1.71-3.12,7.06,7.06,0,0,0,3.2-2.75C306.6,179.48,306.68,179,306.89,178.71Zm-30.55-5v-.56a51.8,51.8,0,0,1,9.74-2.43,23.08,23.08,0,0,1,.66,3c-2,.56-4,1-6,1.36l-.28.23c.56,1.92,1,3.88,1.68,5.8a77.8,77.8,0,0,1,11.23-2l.38-.37c-.38-2.85-.61-5.89-.84-8.8l.23-.23a55.18,55.18,0,0,1,10.11-.22l.08.14a7.73,7.73,0,0,1-.08,3c-2.37.09-4.45-.23-6.77.05a56.87,56.87,0,0,0,.27,6.14c2.56-.1,5.13-.07,7.69.06-.07.15-.17.31-.23.45a4.13,4.13,0,0,1-2.56,1.74,9.74,9.74,0,0,0-2.72-.82c-.36-.07-.83,0-1.14-.08a12.75,12.75,0,0,0-5.79,1.39l-1.19.63a64.14,64.14,0,0,0-18.43,5.49c-.39-.43-.53-1.07-.88-1.51-.38-.18-.14-.67-.46-.93h0a83.18,83.18,0,0,1,7.91-3.19c-.68-2.87-1.75-5.58-2.6-8.4Zm-30.7,18.49a49.79,49.79,0,0,1,9.4-8,20.07,20.07,0,0,1,1.77,2.38c-.66.7-1.59,1.22-2.29,1.83a23.38,23.38,0,0,0-3.65,3.22c1.41,1.55,2.66,3.09,4,4.45l1.22-1.07a92.72,92.72,0,0,1,9.26-6.74c-1.59-2.62-3.27-5.19-4.72-7.86a58.13,58.13,0,0,1,9.67-5,6.26,6.26,0,0,1,1.27,3c-2.05,1-4.17,1.87-6.22,2.95.89,1.82,1.82,3.69,2.85,5.47l.67-.35a6.58,6.58,0,0,0-1.87,2.36,16.42,16.42,0,0,0-.91,2.43,68.21,68.21,0,0,0-9.2,6.85l-.62.06A23.29,23.29,0,0,0,251,199.9c.36-.38.7-.79,1.05-1.16-2-2-4.49-4.49-6.45-6.5Zm-.83,12.51a49,49,0,0,1,7-3.46,17.6,17.6,0,0,1,8.69-1.44c.75.08,1.5.38,2.27.48,1.5.38,2.3,1.81,2.88,3.07-.07.24.24.19.14.42a.72.72,0,0,1-.41.11v-.06c-1.59-.29-3.25-1-4.79-1.2a32.84,32.84,0,0,0-8.71.39c-.65.27-1.37.35-2,.59a14.79,14.79,0,0,0-1.94.59c-1.49.8-2.91,1.36-4.46,2.13a2.65,2.65,0,0,1-.89.48c.43-1,1.6-1.16,2.27-2.1ZM266,206.12a15.47,15.47,0,0,1-1.92,2.69,7.56,7.56,0,0,1-3.39,1.92,19.76,19.76,0,0,1-3,.93c-4.17.91-8.37-.16-12.74-.19a39.46,39.46,0,0,0-5.1,0l-.1-.08c.16-.05.08-.18.26-.24a18.08,18.08,0,0,1,3.2-2.71c1-.59,2.05-1,3.1-1.6.77-.43,1.62-.67,2.37-1.17a3.1,3.1,0,0,0,1.12-.38c.94,0,1.71-.53,2.62-.63a25.41,25.41,0,0,1,7.83-.43,28.82,28.82,0,0,1,3.5.85c.64.26,1.23.21,1.78.64a1.17,1.17,0,0,0,.38.05c0,.17.1.25.07.38Zm-32.5,2a53.59,53.59,0,0,1,6.88-9.92h.38a11.54,11.54,0,0,1,2.11,1.82q-2.28,3-4.49,6v.24c.49.35,1,.68,1.48,1v0a8.05,8.05,0,0,0-1.58,1.92c.22.56-.45,1.12.11,1.55l-.11.13-4.77-2.78Zm-3.35,6.15c.32-.1.69.13,1,.22a5,5,0,0,0,1.11.53c-.68.51-1.35,1-2,1.55s-1.38,1.29-2,1.94c.61-1.43,1.23-2.86,1.93-4.24Zm-6.63,14.36a13.7,13.7,0,0,1,1-2.51c.16-.13.16-.38.35-.53.22-.79.93-1.3,1.2-2.11.29-.26.47-.74.8-1,0-.18.22-.16.24-.32a29.61,29.61,0,0,1,3.27-3.62c1.07-.83,2.13-1.71,3.26-2.43a9.76,9.76,0,0,1,2.23-1.49,9,9,0,0,1,2.13-1,9.93,9.93,0,0,1,3.72-.48,48.58,48.58,0,0,1,6.37.19c.32.14.69,0,1.07.1a26.86,26.86,0,0,0,6.88.27,21.73,21.73,0,0,0,5.55-1.33,7.76,7.76,0,0,0,2.82-1.71,11.74,11.74,0,0,0,2.66-3.57c0-.56.53-.88.38-1.49s.48-1.34.13-2a4.22,4.22,0,0,0-.32-1.42,2.74,2.74,0,0,1-.43-.67c-.07-.16-.23-.38-.18-.56,1.14-.11,1.2-1.75,2.39-1.84a6.21,6.21,0,0,1,3.78.61l.24.14a12,12,0,0,1,2.82,2.64c.69.64.81,1.52,1.31,2.19.29.48.32,1,.61,1.49a4.19,4.19,0,0,1,.29.78c-1.87,0-3.49.61-5.25.82a6.16,6.16,0,0,0-3.62.38,19.68,19.68,0,0,0-1.95.85c-.13.24-.42.3-.59.46-.61.71-1.44,1.12-1.94,1.83-.48.22-.59.73-1,1.05-.19.4-.69.67-.77,1.09-.33.19-.08.56-.07.75.16.11.4.53.8.38a6.1,6.1,0,0,1,3.43-.54c2.05.46,3.75,1.72,5.73,2.2a1.6,1.6,0,0,0,.75,1.46,13.16,13.16,0,0,1,3.59,1.23,5.54,5.54,0,0,0,.93.51c.59.07,1,.53,1.6.68a26.84,26.84,0,0,0,3.15,1.13c.31.05.48.32.83.26a8.16,8.16,0,0,0,1.75.27,5.53,5.53,0,0,0,4.14-1.36c.39-.4,1-.59,1.3-1.14.8-.51,1.12-1.34,1.78-2a17.49,17.49,0,0,1,2.11-1.84,3.18,3.18,0,0,1,3-.61c.29.16.67.3.8.61a.8.8,0,0,0-.19.67s0,0-.06,0c-.07.38-.29.75-.39,1.17.06.62-.48.83-.42,1.44a1.32,1.32,0,0,0-.24.54c-.23.28-.19.58-.43.87-.23.64-.84,1.07-1.11,1.76a6.44,6.44,0,0,1-1.45,1.26,4,4,0,0,0-.53.47,13.53,13.53,0,0,1-2.51,1.07,7.53,7.53,0,0,1-3.95.62,13.32,13.32,0,0,1-5-1.74c-1.26-.72-2.62-1.33-3.88-2.14a12.78,12.78,0,0,0-2-.61,12.48,12.48,0,0,0-8.32.67c-2.75,1.33-5.12,3.75-7.73,5.23a7.84,7.84,0,0,1-6.48,1.23c-.53,0-.93-.35-1.44-.38a4.6,4.6,0,0,1-1.76-1,16.71,16.71,0,0,1,.84-2.19,12,12,0,0,1,1.59-3.11,11.06,11.06,0,0,1,2.53-3,13.43,13.43,0,0,1,2.69-1.73,6.33,6.33,0,0,1,2.46-1,3.37,3.37,0,0,1,1.38-.22c.32-.16.14-.62.22-.88s-.32-.34-.53-.45a8.71,8.71,0,0,0-2.69.45c-.8.19-1.23.75-2,.94-.91,1-2.24.58-3.11,1.54a11.1,11.1,0,0,1-2.2,1c-1.62-.31-3.11-.93-4.79-1.09-1.29-.53-2.7,0-4,0-1.31.53-2.81.35-3.95,1.14a41.68,41.68,0,0,0-5.33,3,23.28,23.28,0,0,0-2.4,1.6c-.13,0-.22.16-.38.24a28.39,28.39,0,0,0-5.7,5.57,19.13,19.13,0,0,0-2.11,2.69L223,231a7.21,7.21,0,0,1,.46-2.33Zm39.64,75.79-.22.2c-1.37,2.6-3.11,5.06-4.7,7.58h-.37a64.41,64.41,0,0,1-8.49-6.4v-.28a18,18,0,0,1,1.83-2.19c1.88,1.44,3.74,2.85,5.49,4.17,1.22-1.65,2.35-3.35,3.51-5.05l-.27-.34a71,71,0,0,1-9.06-7.72c-2.24,1.94-4.22,4.22-6.52,6.29l-.32,0a52.71,52.71,0,0,1-7.37-9.14,11.23,11.23,0,0,1,2.53-1.7,66.45,66.45,0,0,0,4.6,5.77l4.5-4a78.77,78.77,0,0,1-7.55-10.75l-.14-.08-7.73,4.4h-.27a37.88,37.88,0,0,1-2.53-4.4,31.07,31.07,0,0,1-2.64-6.48l2.82-1c1,2.37,2,4.69,3.14,7l.23,0,5.21-2.65.09-.23a53,53,0,0,1-4.79-12.4c-.52-.43-1.07.14-1.6.19-2.52.62-5,1.57-7.54,1.94a74.46,74.46,0,0,1-2.49-13,12.2,12.2,0,0,1,3.05-.42c.47,2.74.83,5.68,1.41,8.42A58.63,58.63,0,0,1,232.8,261l.18-.2A65,65,0,0,1,231.35,247h0v-2.36c-3-.14-6.05-.09-9-.28a23.86,23.86,0,0,1,.09-4.78c.18-1.44.33-2.93.56-4.4l.07-.06a11.64,11.64,0,0,0,3.32-1.29,38.14,38.14,0,0,0-.72,6.18l4.08.38a5.36,5.36,0,0,0,1.92,0c.08-.88.2-1.72.31-2.56a6.27,6.27,0,0,1,.82-.41.11.11,0,0,1,.09.16,6.09,6.09,0,0,0,1.23,4.06l.35.23a65.11,65.11,0,0,0,4.48,28.51c4.43,12.08,13.29,22.95,24.1,30.51.16.69.39,1.34.53,2a31.42,31.42,0,0,0,2.06,3.1l-2.51-1.54Zm60.22,15.78v.56a49.75,49.75,0,0,1-9.72,2.43,20.21,20.21,0,0,1-.67-3,60.57,60.57,0,0,1,6-1.35l.28-.23c-.57-1.92-1-3.88-1.69-5.8a77.32,77.32,0,0,1-11.23,2l-.38.38c.38,2.85.62,5.89.84,8.8l-.22.22a56.11,56.11,0,0,1-10.11.23l-.09-.14a7.6,7.6,0,0,1,.09-3c2.38-.09,4.44.22,6.77,0a59.65,59.65,0,0,0-.28-6.14,85.19,85.19,0,0,1-11.41-.32c-.46,3-.79,6.12-1.22,9.17a54.37,54.37,0,0,1-10.42-2c.19-1,.52-2,.8-3,2.15.56,4.45.88,6.64,1.45l.19-.09c.23-2.06.75-4.06.94-6.08a52.71,52.71,0,0,1-5.7-1.13c-2-.52-3.93-1.17-5.9-1.77l-.18.09-3,8.41-.22.15a64.62,64.62,0,0,1-7.68-3.23,7,7,0,0,1-2.15-1.36L265,312.8c2.21.89,4.26,2.1,6.46,3,.9-1.75,1.5-3.62,2.21-5.41a14.29,14.29,0,0,0,4.49-.23,12.06,12.06,0,0,0,2.16-.68c1.25.38,2.51.74,3.77,1a66.22,66.22,0,0,0,35.19-1.11,2.61,2.61,0,0,0,.75.11c.08,0,.16.16.24,0a8.7,8.7,0,0,1,1.51.35c.74,0,1.49.19,2.23.16a2.59,2.59,0,0,1,1,0l.62-.07c-1.6.66-3.23,1.28-4.87,1.85.66,2.88,1.74,5.6,2.58,8.4Zm45-73.42h0v2.3c3.14.14,6.23.1,9.29.28a24.29,24.29,0,0,1-.09,4.67,40.29,40.29,0,0,1-1.35,7.49,20.87,20.87,0,0,1-2.91-.6c.24-2.45,1-4.86.92-7.3l-4.19-.38a6,6,0,0,0-2,.05,67,67,0,0,1-2.56,12.95l9,2.63A53.92,53.92,0,0,1,370,280c-.34.09-.72-.14-1.07-.22-.53-.41-1.39-.41-1.78-1a67.74,67.74,0,0,0,2.8-6.48c-1.94-.69-3.92-1.25-5.81-2l-.18.14a64.94,64.94,0,0,1-5.66,11.23v.44l8.16,4.45a52.47,52.47,0,0,1-7.28,9.74h-.4a12,12,0,0,1-2.22-1.79c1.6-2,3.19-3.93,4.74-5.92v-.23c-1.63-1.1-3.37-2-5-3.06H356a88,88,0,0,1-8.69,10.12c2,1.95,4.63,4.43,6.67,6.43a50.84,50.84,0,0,1-9.69,7.86,18.14,18.14,0,0,1-1.84-2.35c.69-.69,1.65-1.2,2.38-1.8a24.71,24.71,0,0,0,3.77-3.2c-1.46-1.53-2.75-3.05-4.16-4.39L343.18,299a96.49,96.49,0,0,1-9.56,6.66c1.65,2.6,3.38,5.14,4.88,7.77a61.49,61.49,0,0,1-10,4.9,6,6,0,0,1-1.32-2.93c2.12-1,4.31-1.85,6.42-2.92q-1.26-2.52-2.7-5a8.68,8.68,0,0,0,1.53-1.44c.72-.23.68-1.08,1.17-1.47a7.36,7.36,0,0,1,1.16-2.37c-.08-.08,0-.16.07-.19a1.35,1.35,0,0,1,.17-.68,71.13,71.13,0,0,0,15.77-13.92,64.54,64.54,0,0,0,14.35-42.17h0a59.86,59.86,0,0,0-.8-7.68,5.12,5.12,0,0,0,.77-.69c0-.34.46-.42.46-.76s.08-.53.31-.67a4.9,4.9,0,0,1,.71.8c.23.18.47.38.7.6a54.74,54.74,0,0,1,1,10Zm3.41-10.09a11,11,0,0,1-3.86-2.88,50.15,50.15,0,0,1-3.52-5.26c-.39-.64-.74-1.3-1.12-1.94a15.64,15.64,0,0,0-1.45-2.78c.08-.13-.19-.07-.08-.23A25.75,25.75,0,0,0,359,220.8a10.67,10.67,0,0,0-2.35-1.26c-.07,0,0-.1-.11-.08,1.1-.39,1.68-1.68,2.91-2,.19-.19.51-.43.35-.74a.57.57,0,0,0-.57-.33,6.87,6.87,0,0,1-2.56-1.91c-.58-1-1.36-1.55-2-2.49l-.45-.39a5.52,5.52,0,0,1,2.16.91c2.56,1.16,4.4,3.68,6.23,5.65.27.39.62.84.89,1.3.41.8,1.06,1.55,1.48,2.29l0,0c.33.64.87,1.23,1.16,1.9.82,1.25,1.65,2.42,2.43,3.78.2.08.2.27.3.4.29.43.7.69.9,1.17a10.49,10.49,0,0,1,1.36,1.39,18.46,18.46,0,0,0,2.23,2.19v.06c1.39,1,2.66,2.16,4,3.09.16.22.42.38.33.72a.34.34,0,0,0-.08.29c-.31.36-.64.8-1.25.69a7.34,7.34,0,0,1-2.83-1.06c-.45-.1-.83.29-1.3.26a.65.65,0,0,1-.47.05Zm2.58,2.79c-.06-.32-.1-.65-.17-1a1.38,1.38,0,0,0,.39.09c.32.14.72.23,1,.33a13.29,13.29,0,0,0,1.68-.27s.06,0,.07-.06l.06.46a12.53,12.53,0,0,1-3,.43Z"/><path d="M307.3,246.57S307.35,246.52,307.3,246.57Zm-1.19,33.12a15.18,15.18,0,0,1-4,.76,15.43,15.43,0,0,1-4.24-.29c-2-.18-3.76.7-5.76.25-.64,0-1-.51-1.59-.56-.19-.1-.33.08-.35.24s.18.45.29.66a5.7,5.7,0,0,0,4.85.72,14.13,14.13,0,0,1,3.61-.06c2.3.69,4.71.08,6.83-.56.39-.19,1.14-.34,1.22-.92A.54.54,0,0,0,306.11,279.69Zm-14-5.36c-.11.13,0,.29.07.38a3.2,3.2,0,0,0,2.43,0c1-.27,1.16-.67,2.18-.86l.68,0c.35-.08.49.07.9.26s.36.42,1.12.19c1.79-1.45,3.39.68,5.27.53.2-.22.54,0,.69-.23a.5.5,0,0,0-.23-.56c-1.54.14-2.38-1.28-3.78-1.44-1-.29-1.68.45-2.51.67-1.93-1.35-3.1.2-4.73.63-.56.35-1.67-.12-2.09.44Z"/><path d="M383.41,248.42c0-1.28-.06-3.87-.06-3.87a83.67,83.67,0,0,0-24.59-56.77,81.91,81.91,0,0,0-49.54-23.58c-29.57-2.85-56.1,8.8-74.42,31.63a83.63,83.63,0,0,0-17.86,48.72s-.05.69-.05,1c0,1.27.05,3.84.05,3.84a83.64,83.64,0,0,0,24.6,56.78,82,82,0,0,0,49.54,23.58c29.57,2.85,56.09-8.8,74.41-31.63a83.57,83.57,0,0,0,17.87-48.72s.05-.68.05-1Zm-10.24,34.83c-12,24.66-37.56,42.38-64.53,45-2.94.33-6.31.42-9.25.51a81.81,81.81,0,0,1-80.93-84.2,81.53,81.53,0,0,1,8.65-33.8c12-24.66,37.57-42.4,64.51-45,3-.33,6.31-.42,9.27-.53a83.16,83.16,0,0,1,31.43,6.64,82.3,82.3,0,0,1,49.5,77.57A81.42,81.42,0,0,1,373.17,283.25Z"/><path d="M324.66,245.48a4.44,4.44,0,0,1-2.84,1.46,5.48,5.48,0,0,1-3.29-1.64,17,17,0,0,1-2-1.18c-1.7-1-3.38-.83-5.47-.51a9.08,9.08,0,0,0-2.88,1.45,5.57,5.57,0,0,0-1.31.92,2.46,2.46,0,0,0-.46.72c0,.11-.1.4.14.35a3,3,0,0,1,.39-.22c.17-.08.13-.05.18-.1l.09-.08.08-.08s0,0,0,0a3.06,3.06,0,0,1,.49-.28,8.76,8.76,0,0,1,4.39-1.56,8.32,8.32,0,0,1,4.09.71,10.54,10.54,0,0,1,2.94,2.13c.06.27-1.63-1-2.28-1.15a11.25,11.25,0,0,0-5.43-.69,8.7,8.7,0,0,0-4.69,2.81c-.07.07-.18.5-.29.48-.12.19-.29.45-.12.69a1.24,1.24,0,0,0,.52,0c.48-.43.52-.68.91-.92a9,9,0,0,1,9.06-1.07c.42.32,1.06.54,1.29,1.07,0,.7.35,1.24-.16,1.73-.22,0-1,.64-1.18.59-1.78,1.16-4,1-6.1.53-.83-.13-1-.78-1.36-1.47s.07-1.57-.81-1.77c-.09,0-.22.07-.22.18-.59.94-.1,1.5.06,2.27l-.08.06c-.58-.24-1.54-.19-1.77-.91a.32.32,0,0,0-.38.06c-.15.23,0,.53,0,.77.2.53.62.52,1,.81,1.24.22,2.46.7,3.65,1a9.28,9.28,0,0,0,6.76-.67,12.87,12.87,0,0,0,2.89-1.73,5.1,5.1,0,0,1,.63-.43c.13-.19.07-.28.25-.52,0-.35-.12-.3-.38-.52a7.74,7.74,0,0,1-.82-.54l-.54-.37a12.49,12.49,0,0,0,2.66.08c.92-.46,1.74-.42,2.25-1.35.23-.11.33-.43.56-.53a7.38,7.38,0,0,0,.59-1,.57.57,0,0,0-.14-.56c-.49.1-.7.66-.9,1Zm-4.56,3.82a7.55,7.55,0,0,1-.92.68c-.17,0-.07-1-.15-1.25s1.09.59,1.07.57ZM309,275.39c-.55.38.38.78,0,1.18a9.5,9.5,0,0,1-2.24.67c-1.93.35-3.68-.71-5.55-.83-1,0-1.64.8-2.66.91a6.18,6.18,0,0,0-3.78-.75c-1.18.16-2.21.64-3.31.72s-2.16.29-3-.36l.16-.21c0-.14.06-.35-.08-.43-.58-.29-.93.32-1.33.64-.18.54-.83.69-.72,1.31a.59.59,0,0,0,.56.32,2.43,2.43,0,0,1,.72-.62.92.92,0,0,1,.74.14c2.21,1.3,4.06-.26,6.25-.47a5.24,5.24,0,0,1,3.43.77,2.5,2.5,0,0,0,2.26-.65c.64-.59,1.72-.27,2.46,0a5.25,5.25,0,0,0,3.87.42c1.07-.35,2.29-.49,3.36-.91l.65.38a.35.35,0,0,0,.48-.19,1.64,1.64,0,0,0-.48-.8c-.52-.4-.87-1.24-1.78-1.24ZM295.5,254.92a18.7,18.7,0,0,1,.16,3.26,20.29,20.29,0,0,1-.75,3.22c-.29,1.9-.48,3.82.56,5.41.53,1.2,1.91,1.47,3.07,1.71a4.63,4.63,0,0,0,1.87-.51c0-.13.06-.39-.1-.55a14.07,14.07,0,0,1-2.05-.18,2.27,2.27,0,0,1-2.07-1.84c-.93-2.88.72-4,.68-6.78l-.08-1.48c-.08-1.75-.51-3.94,0-5.75a17.84,17.84,0,0,0-.08-3.61c.05-.72-.38-1.24-.34-1.72a.66.66,0,0,1-.23-.38c-.22,0-.24.11-.4.19a2.46,2.46,0,0,1-.08.27c-.07,1.38.13,2.69,0,3.92-.08,1.7-.72,3.2-.21,4.82Zm-1.33,14.21a4.6,4.6,0,0,1,2.56.51c.13,0,.21-.23.19-.39a1.09,1.09,0,0,0-.48-.4c-1.18-1.18-3.17-1-4.61-.53-.46.1-.77.34-1.33.07a1.35,1.35,0,0,1-.57-1.2.51.51,0,0,0-.67,0,2,2,0,0,0,.54,1.9c1.2,1.24,2.92.07,4.37,0Zm4.24,2c-.27.06-.23.35-.32.54.78.42,1.87.84,2.66.15.1-.22.32-.38.26-.64s-.13-.22-.26-.22a3.17,3.17,0,0,1-2.34.17Z"/><path d="M305.53,245.3a8.5,8.5,0,0,0,2.78-1.92,6.69,6.69,0,0,1,2.61-1.81c.81-.22,1.58-.4,2.19-.59a7.06,7.06,0,0,1,2.93.43c1,.19,1.06.4,2.19.69a17.62,17.62,0,0,0,1.75.64,18.08,18.08,0,0,0,1.75.59,5.36,5.36,0,0,0,3.9-.64c.26.07.23-.14.4-.19s.13-.32,0-.4a12.46,12.46,0,0,1-2.88.32,9.43,9.43,0,0,1-1.9-.32c-1-.36-2-.75-2.93-1.17a27.34,27.34,0,0,0-3.4-1.07,10.15,10.15,0,0,0-2.64-.05,8.67,8.67,0,0,0-3.45,1.57,16,16,0,0,0-1.16,1.14c-.92.75-1.66,1.75-2.85,2.11a.93.93,0,0,0-.33.26c.26.4.64.28,1.07.41Zm.72,9.59a.21.21,0,0,0,.31,0,.23.23,0,0,0,0-.14c-.16-.27-.08-.48-.19-.78s-.46-.58-.54-1a13.62,13.62,0,0,1-1.32-3.41.89.89,0,0,0-.67-.57.78.78,0,0,0-.24.27,9.08,9.08,0,0,0,.67,2.83c.51,1,.92,2.21,1.94,2.8Zm-5,14.08c.7,0,1.51,0,2-.08a5.78,5.78,0,0,0,3.25-.66,2.38,2.38,0,0,0,.84-2.47l-.17-.23c-.83-.08-.64.85-.87,1.35-.81,1.1-2,.89-3.58,1.08l-1.55.37c-.17.16-.45.23-.32.48.14.06.24.19.4.16Z"/></svg>